<?xml version="1.0" encoding="UTF-8"?>
<svg version="1.1" xmlns="http://www.w3.org/2000/svg" width="528" height="528">
<path d="M0 0 C154.11 0 308.22 0 467 0 C465.85136698 19.52676133 465.85136698 19.52676133 465.22381592 26.17371941 C465.15204998 26.95895762 465.08028403 27.74419584 465.00634336 28.55322915 C464.77087243 31.12231593 464.53146327 33.69101838 464.29199219 36.25973511 C464.11836202 38.14490641 463.94497812 40.03010041 463.77181625 41.91531479 C463.29967728 47.04766505 462.82404538 52.17968627 462.34778786 57.31165576 C461.83313211 62.86410708 461.32175456 68.41686049 460.80993652 73.96957397 C459.80885596 84.82444217 458.80470587 95.67902427 457.79940224 106.53350209 C456.98278677 115.35115626 456.16722883 124.16890765 455.35241699 132.98672867 C455.17820555 134.87199543 455.17820555 134.87199543 455.00047469 136.79534838 C454.7645264 139.34874297 454.52857967 141.90213769 454.29263449 144.45553257 C452.71030844 161.5783373 451.12692766 178.70104422 449.5413208 195.82354546 C449.4794319 196.49186609 449.41754301 197.16018672 449.35377869 197.8487595 C448.85126031 203.27523567 448.34870971 208.70170886 447.84615701 214.12818185 C445.88255211 235.33109355 443.92233475 256.53431598 441.96484375 277.73779297 C439.76359922 301.58150809 437.55999532 325.42500316 435.35280228 349.26816857 C435.11772513 351.80767602 434.88265203 354.34718384 434.64758301 356.88669205 C434.53192608 358.13616118 434.41626915 359.38563032 434.29710746 360.67296215 C433.48116295 369.48967167 432.66693836 378.30653906 431.85339355 387.12347031 C430.86330541 397.85333836 429.87071708 408.58297149 428.87485695 419.31230544 C428.36660138 424.78895085 427.85951569 430.26569809 427.35551453 435.74273682 C426.89473437 440.74974826 426.43068627 445.75644535 425.96395922 450.76290585 C425.79515553 452.57995434 425.62757725 454.39711714 425.46130705 456.2143992 C425.23621762 458.67260366 425.00677759 461.13036325 424.77618408 463.58805656 C424.71171443 464.30368895 424.64724479 465.01932133 424.58082151 465.75663954 C424.3023846 468.6807387 423.93334991 471.19995028 423 474 C420.36730957 475.04827881 420.36730957 475.04827881 416.76757812 476.01464844 C416.1059819 476.19596565 415.44438568 476.37728287 414.76274109 476.56409454 C412.52203049 477.17475018 410.27683404 477.76691231 408.03125 478.359375 C406.41869833 478.794651 404.80644148 479.23102046 403.19445801 479.668396 C398.74482006 480.87206455 394.29097155 482.05944306 389.83624268 483.24411011 C385.02258208 484.52700364 380.21276606 485.82416902 375.40234375 487.11914062 C359.39206001 491.42339646 343.3753404 495.70333728 327.34456444 499.93067551 C321.74176969 501.40849342 316.14012563 502.89063366 310.5390625 504.375 C309.45013828 504.66340004 308.36121407 504.95180008 307.23929214 505.24893951 C294.4361704 508.64736716 281.71987686 512.20661605 269.0859375 516.1875 C266.75368604 516.90082422 264.42102731 517.6128187 262.08789062 518.32324219 C258.16416459 519.51847916 254.29905903 520.80895543 250.43554688 522.18457031 C235.04184007 527.18057574 221.46468441 522.70370312 206.54651451 518.232337 C200.41075735 516.39342608 194.24756343 514.69302531 188.05419922 513.05908203 C187.11413591 512.81106527 186.17407261 512.56304852 185.20552254 512.3075161 C183.26892646 511.79716549 181.33224231 511.28714901 179.39547348 510.77745438 C174.36769128 509.44934543 169.3461022 508.09825754 164.32421875 506.74804688 C162.26872493 506.19585431 160.21322361 505.64368966 158.15771484 505.09155273 C157.13885193 504.81780823 156.11998901 504.54406372 155.07025146 504.26202393 C151.09236152 503.19375135 147.11397515 502.12733518 143.13555622 501.06103462 C119.70736125 494.78076329 96.29052937 488.45905008 72.88172913 482.10691571 C69.49297858 481.18741362 66.1041514 480.26819404 62.71533203 479.34894562 C56.14348269 477.56622906 49.57171333 475.78321785 43 474 C39.11039609 432.07465189 35.22100916 390.14928366 31.33188597 348.22389096 C30.86538313 343.1949148 30.39887861 338.1659388 29.93237305 333.13696289 C29.83955879 332.13641574 29.74674453 331.13586858 29.65111772 330.10500181 C28.35847462 316.17021497 27.06574185 302.23543646 25.77293445 288.30066486 C25.23176856 282.46758083 24.6906154 276.63449562 24.14946174 270.80141046 C23.70096406 265.96707696 23.25245699 261.13274434 22.80393052 256.29841352 C20.94484775 236.26068103 19.08624344 216.22290452 17.22977503 196.18492962 C16.54063942 188.74674977 15.85140463 181.3085791 15.16215554 173.87040976 C14.99286704 172.04346552 14.82358511 170.21652068 14.65430984 168.38957521 C12.48673123 144.99563026 10.3116112 121.60241049 8.12466654 98.21026794 C7.26432259 89.00632621 6.40691947 79.80211033 5.54989773 70.59785873 C4.83657009 62.9397638 4.11937275 55.28204527 3.3990159 47.62460852 C2.96830767 43.03614761 2.54136291 38.44734258 2.11554122 33.85842586 C1.92182014 31.77922393 1.72652242 29.70016815 1.52946305 27.62127995 C1.26370637 24.81577341 1.0036349 22.00979462 0.74494934 19.20362854 C0.62992232 18.01178441 0.62992232 18.01178441 0.51257151 16.79586262 C-0.00130792 11.12691057 0 5.75341232 0 0 Z " fill="#2162AF" transform="translate(30,0)"/>
<path d="M0 0 C96.69 0 193.38 0 293 0 C293 10.52003798 292.44065842 20.75932192 291.46801758 31.20849609 C291.28020622 33.32852512 291.11304873 35.45048018 290.96606445 37.57373047 C289.74347213 55.05047924 289.74347213 55.05047924 285.98999023 59.24755859 C283.03143166 60.61287249 280.17490087 61.26490126 277 62 C274.16570603 63.10143312 271.40902679 64.36925728 268.63671875 65.6171875 C267.04004713 66.30534815 265.4418414 66.98995797 263.84228516 67.67138672 C262.58729218 68.20792877 262.58729218 68.20792877 261.3069458 68.75531006 C260.44252869 69.12480774 259.57811157 69.49430542 258.6875 69.875 C256.86504968 70.65505943 255.04262191 71.43517155 253.22021484 72.21533203 C235.66786192 79.72609844 218.10201883 87.20531443 200.53393555 94.67919922 C184.67780672 101.42651357 168.83889136 108.2119037 153 115 C217.35 115.495 217.35 115.495 283 116 C281.77919844 133.09122187 280.52249737 150.1508428 278.9765625 167.2109375 C278.78698373 169.32514351 278.59764936 171.43937144 278.40853882 173.55361938 C277.91578789 179.05630859 277.42017884 184.55873617 276.92376709 190.06109619 C276.13923496 198.76307214 275.3594519 207.46547547 274.57906342 216.16782379 C274.29056559 219.38169302 274.00120292 222.59548352 273.71173096 225.80926514 C272.73582203 236.66159567 271.77913209 247.51524396 270.85449219 258.37207031 C270.76260054 259.44683687 270.67070889 260.52160343 270.57603264 261.62893867 C270.13783193 266.75465554 269.70302259 271.8806105 269.27481079 277.00717163 C269.12005364 278.82461896 268.96514509 280.6420534 268.81005859 282.45947266 C268.74242184 283.2861356 268.67478508 284.11279854 268.60509872 284.96451187 C268.33038809 288.14732866 268.0143602 290.95691939 267 294 C264.34469535 295.08075558 261.80389483 295.94553248 259.0625 296.75 C258.22783203 297.00458984 257.39316406 297.25917969 256.53320312 297.52148438 C248.28877404 299.99781108 239.96527763 302.18789252 231.64355469 304.38696289 C224.18156752 306.37100846 216.82190089 308.56553298 209.47729492 310.94360352 C203.76771424 312.78466709 198.01885347 314.36557106 192.2109375 315.87109375 C186.7564033 317.30841895 181.35031854 318.91426701 175.9375 320.5 C174.89891846 320.80220459 173.86033691 321.10440918 172.7902832 321.41577148 C168.39077109 322.69856961 163.99697211 323.9885101 159.62890625 325.375 C158.43136719 325.74625 157.23382813 326.1175 156 326.5 C155.01 326.8196875 154.02 327.139375 153 327.46875 C146.17617117 328.67713636 139.96166897 326.53534391 133.5625 324.375 C126.08953877 321.93397116 118.57835939 319.71523331 111 317.625 C91.89027606 312.33517706 72.90068631 306.6511329 53.97875977 300.72558594 C49.37845492 299.2954098 44.79583296 297.90587354 40.109375 296.78515625 C39.04734863 296.52943848 39.04734863 296.52943848 37.96386719 296.26855469 C36.1682629 295.85157448 34.36562309 295.46519491 32.5625 295.08203125 C30 294 30 294 28.89419556 291.90742493 C27.82186912 288.42081778 27.43183651 285.01487906 27.13037109 281.39916992 C27.06180405 280.65051163 26.993237 279.90185333 26.92259216 279.13050842 C26.69870659 276.6644368 26.48587898 274.19755047 26.2734375 271.73046875 C26.11992456 270.00794977 25.96583242 268.28548232 25.81118774 266.56306458 C25.48884106 262.9547979 25.1716315 259.34612959 24.85839844 255.73706055 C24.45811135 251.126602 24.04803088 246.51708337 23.63443565 241.90780163 C23.31581854 238.35029941 23.000976 234.79247142 22.687397 231.23452187 C22.53750228 229.53570705 22.3867955 227.83696367 22.23524094 226.13829613 C22.02351727 223.75549977 21.81651926 221.37233844 21.61083984 218.98901367 C21.54852676 218.2962735 21.48621368 217.60353333 21.42201233 216.88980103 C21.02482122 212.2088165 21 207.73603401 21 203 C40.8 203 60.6 203 81 203 C81.495 208.713125 81.99 214.42625 82.5 220.3125 C82.65662109 222.09180908 82.81324219 223.87111816 82.97460938 225.7043457 C83.67236921 233.81781269 84.24577821 241.84721809 84 250 C85.07290283 250.10505859 86.14580566 250.21011719 87.2512207 250.31835938 C92.94251349 251.0338549 98.430424 252.48819809 103.98046875 253.90625 C105.67699333 254.33339294 105.67699333 254.33339294 107.40779114 254.76916504 C111.00217256 255.67497764 114.59488356 256.58721484 118.1875 257.5 C121.79112847 258.41154988 125.39509085 259.32175781 128.99934387 260.23083496 C131.23682695 260.79561111 133.4738951 261.36203425 135.710495 261.93029785 C136.72537491 262.1872644 137.74025482 262.44423096 138.78588867 262.70898438 C139.67443039 262.93469116 140.56297211 263.16039795 141.47843933 263.39294434 C146.13173452 264.51320657 149.21804537 265.24957967 153.859375 263.8125 C155.26703125 263.38771362 155.26703125 263.38771362 156.703125 262.9543457 C158.21132813 262.48194458 158.21132813 262.48194458 159.75 262 C161.91106396 261.34635098 164.07253599 260.69404985 166.234375 260.04296875 C167.34876953 259.70442871 168.46316406 259.36588867 169.61132812 259.01708984 C175.05576429 257.38297449 180.52545824 255.84221919 186 254.3125 C187.55787231 253.87635376 187.55787231 253.87635376 189.1472168 253.43139648 C197.39697404 251.1366968 205.67764013 249.01410917 214 247 C213.98332275 246.27578857 213.96664551 245.55157715 213.94946289 244.80541992 C213.8157532 233.70751559 214.51967831 222.68367989 215.22680664 211.61303711 C215.43770091 208.30935267 215.642239 205.00532145 215.84570312 201.70117188 C215.97879768 199.56768528 216.112249 197.43422091 216.24609375 195.30078125 C216.3065538 194.32965897 216.36701385 193.35853668 216.42930603 192.35798645 C216.48929276 191.42298813 216.54927948 190.48798981 216.61108398 189.5246582 C216.66215805 188.72083206 216.71323212 187.91700592 216.76585388 187.08882141 C217.12219278 182.38805069 217.57319119 177.69489692 218 173 C151.67 173 85.34 173 17 173 C12.84285714 132.81428571 12.84285714 132.81428571 12.9375 122.6875 C12.94652344 121.41261719 12.95554687 120.13773437 12.96484375 118.82421875 C12.97644531 117.89222656 12.98804687 116.96023437 13 116 C31.58379997 107.76974256 50.35684425 100.01251318 69.14009094 92.25222778 C77.81063321 88.6685033 86.46776956 85.05327925 95.125 81.4375 C114.0565738 73.56037664 133.02945055 65.78278952 152 58 C80.225 57.505 80.225 57.505 7 57 C0 1 0 1 0 0 Z " fill="#F9F9F9" transform="translate(115,97)"/>
<path d="M0 0 C62.37 0 124.74 0 189 0 C189 12.37632738 189 12.37632738 188.50024414 18.18920898 C188.41916821 19.15423843 188.41916821 19.15423843 188.33645439 20.13876343 C188.15718632 22.25828485 187.97125386 24.37716194 187.78515625 26.49609375 C187.65316994 28.03749067 187.5215538 29.57891933 187.39027405 31.12037659 C187.03020143 35.33204082 186.66388293 39.54314091 186.29624176 43.75415039 C185.97675992 47.421794 185.6607895 51.08973757 185.34459305 54.75766563 C182.84200951 83.77107111 180.2304176 112.77447636 177.60134888 141.77664185 C173.26638054 189.61661428 169.07527614 237.46926034 164.8812741 285.32175756 C164.19707971 293.12795987 163.51227297 300.93410829 162.82720947 308.74023438 C161.89276608 319.38856912 160.95971249 330.03702498 160.02762222 340.68556595 C159.67889048 344.66924673 159.32967684 348.65288481 158.98003769 352.63648605 C158.57152377 357.29131708 158.16411256 361.94624336 157.7575357 366.60124397 C157.60987696 368.28981551 157.46184778 369.9783547 157.31339669 371.66685677 C157.10957214 373.98593391 156.90691672 376.30510834 156.70507812 378.62435913 C156.64256957 379.34066931 156.58006101 380.05697948 156.51565826 380.79499602 C156.01554278 386.61550734 155.61858861 392.43946921 155.26257324 398.27070045 C155 401 155 401 154 404 C151.86474609 404.88793945 151.86474609 404.88793945 149.0234375 405.61328125 C147.445625 406.02634521 147.445625 406.02634521 145.8359375 406.44775391 C144.69382812 406.73312012 143.55171875 407.01848633 142.375 407.3125 C141.20453125 407.61591309 140.0340625 407.91932617 138.828125 408.23193359 C135.22139301 409.16526313 131.61081817 410.08262744 128 411 C123.99840375 412.03557054 119.99929737 413.08059316 116 414.125 C115.04665771 414.37241943 114.09331543 414.61983887 113.11108398 414.87475586 C106.82823888 416.50802419 100.56991525 418.21418778 94.3203125 419.96972656 C87.06340193 422.00000934 79.78238868 423.93845559 72.5 425.875 C71.53324844 426.13212265 71.53324844 426.13212265 70.54696655 426.3944397 C69.9007132 426.56631805 69.25445984 426.73819641 68.58862305 426.9152832 C67.28303792 427.26252335 65.97745523 427.60977269 64.671875 427.95703125 C64.02531448 428.12898514 63.37875397 428.30093903 62.71260071 428.47810364 C56.38850125 430.16092765 50.06872253 431.8596161 43.75 433.5625 C42.70884033 433.84287109 41.66768066 434.12324219 40.5949707 434.41210938 C34.98790758 435.92272172 29.38212958 437.43799115 23.77734375 438.95703125 C22.59108398 439.27792725 21.40482422 439.59882324 20.18261719 439.92944336 C17.90815632 440.54476796 15.63404821 441.16139851 13.36035156 441.77954102 C11.82652832 442.19417603 11.82652832 442.19417603 10.26171875 442.6171875 C9.36412842 442.86065918 8.46653809 443.10413086 7.54174805 443.35498047 C5.04777654 443.98787575 2.5230572 444.49538856 0 445 C0 425.53 0 406.06 0 386 C28.32709059 377.28397213 28.32709059 377.28397213 36.3125 375.04296875 C41.25937653 373.64379922 46.19126769 372.1947257 51.125 370.75 C61.24463175 367.79063609 71.37844048 364.88308206 81.51977539 361.99902344 C87.35544582 360.33691142 93.18494338 358.65727776 99.00390625 356.9375 C100.10927734 356.61136719 101.21464844 356.28523438 102.35351562 355.94921875 C104.44570732 355.33034768 106.53690771 354.70811241 108.62695312 354.08203125 C109.55572266 353.80746094 110.48449219 353.53289062 111.44140625 353.25 C112.25295166 353.00765625 113.06449707 352.7653125 113.90063477 352.515625 C116 352 116 352 119 352 C119.04931671 351.38234772 119.09863342 350.76469543 119.14944458 350.12832642 C121.85286768 316.31648324 124.71871554 282.52476873 127.82739258 248.74780273 C128.07771851 246.02718851 128.32794745 243.30656538 128.578125 240.5859375 C128.63907537 239.9235589 128.70002575 239.26118031 128.7628231 238.57872963 C129.61428357 229.31781462 130.43872864 220.05493667 131.234375 210.7890625 C131.3280687 209.69893356 131.42176239 208.60880463 131.51829529 207.48564148 C131.94838664 202.46939173 132.37435152 197.45282716 132.79516602 192.43579102 C132.94282415 190.7006796 133.09052629 188.96557192 133.23828125 187.23046875 C133.30154602 186.45986115 133.36481079 185.68925354 133.42999268 184.89529419 C133.74935045 181.16985848 134.26368839 177.68155803 135 174 C91.44 174 47.88 174 3 174 C6.07592609 171.69305543 8.14208433 170.35392247 11.55419922 168.91308594 C12.46274658 168.52621109 13.37129395 168.13933624 14.30737305 167.74073792 C15.29648682 167.32613815 16.28560059 166.91153839 17.3046875 166.484375 C18.87464478 165.81842567 18.87464478 165.81842567 20.47631836 165.13902283 C23.94041492 163.67092397 27.4076955 162.21050437 30.875 160.75 C33.29597572 159.72558337 35.71670799 158.70059125 38.13720703 157.67504883 C41.90969402 156.07688651 45.68241789 154.47929418 49.45626831 152.88435364 C58.22768667 149.17711868 66.99142322 145.45232624 75.75 141.71484375 C77.53798508 140.95202591 77.53798508 140.95202591 79.36209106 140.17379761 C83.97135774 138.20711566 88.58049299 136.24012622 93.18939209 134.27258301 C96.37324068 132.91381585 99.55765877 131.55639096 102.7421875 130.19921875 C104.07117065 129.63145973 104.07117065 129.63145973 105.42700195 129.05223083 C116.5891371 124.29770117 127.79970202 119.66679082 139 115 C140.98 96.19 142.96 77.38 145 58 C97.15 58 49.3 58 0 58 C0 38.86 0 19.72 0 0 Z " fill="#369CD6" transform="translate(263,39)"/>
<path d="M0 0 C0.06921476 12.71821256 -0.13467986 25.4123495 -0.5 38.125 C-0.54840332 39.87369167 -0.59658133 41.62238959 -0.64453125 43.37109375 C-0.76043926 47.58080534 -0.87934126 51.79042201 -1 56 C-0.01 55.67 0.98 55.34 2 55 C3.78912807 54.92092324 5.58118467 54.90240329 7.37199402 54.91770935 C8.48678635 54.92474884 9.60157867 54.93178833 10.75015259 54.93904114 C11.97366425 54.95198715 13.1971759 54.96493317 14.45776367 54.97827148 C16.38962776 54.9926828 16.38962776 54.9926828 18.36051941 55.00738525 C21.89333619 55.03385525 25.42606974 55.06663699 28.95882201 55.10053515 C32.65035971 55.13488907 36.341942 55.16346161 40.03352356 55.19264221 C47.02457448 55.24878509 54.01556957 55.31014227 61.00655967 55.37336355 C68.96533257 55.44508354 76.92415017 55.51100474 84.88297689 55.57643402 C101.25537644 55.7111612 117.62770428 55.85318629 134 56 C134 57.65 134 59.3 134 61 C133.67 59.68 133.34 58.36 133 57 C88.78 57 44.56 57 -1 57 C-1 75.15 -1 93.3 -1 112 C3.29 112 7.58 112 12 112 C12 112.33 12 112.66 12 113 C-35.52 113 -83.04 113 -132 113 C-136.15714286 72.81428571 -136.15714286 72.81428571 -136.0625 62.6875 C-136.05347656 61.41261719 -136.04445313 60.13773438 -136.03515625 58.82421875 C-136.02355469 57.89222656 -136.01195312 56.96023437 -136 56 C-117.42364551 47.77303996 -98.65818914 40.01871276 -79.88256836 32.2612915 C-71.8398855 28.93710255 -63.80721504 25.5891801 -55.77639771 22.2364502 C-49.18628222 19.48612507 -42.5932207 16.7428707 -36 14 C-35.21191956 13.67201416 -34.42383911 13.34402832 -33.61187744 13.00610352 C-28.79805389 11.00312161 -23.98256081 9.00424155 -19.1647644 7.01083374 C-17.64889301 6.38301719 -16.13352425 5.75398551 -14.61868286 5.12368774 C-12.53621439 4.25750617 -10.45196711 3.39575734 -8.3671875 2.53515625 C-7.18237793 2.044104 -5.99756836 1.55305176 -4.77685547 1.04711914 C-2 0 -2 0 0 0 Z " fill="#E1E2E3" transform="translate(264,157)"/>
<path d="M0 0 C19.8 0 39.6 0 60 0 C60.495 5.713125 60.99 11.42625 61.5 17.3125 C61.65662109 19.09180908 61.81324219 20.87111816 61.97460938 22.7043457 C62.67236921 30.81781269 63.24577821 38.84721809 63 47 C64.07217773 47.10578369 65.14435547 47.21156738 66.24902344 47.32055664 C71.94783367 48.03708513 77.45293286 49.47002925 83.015625 50.87109375 C84.14901306 51.15348404 85.28240112 51.43587433 86.45013428 51.7268219 C88.83419703 52.32215975 91.21767218 52.91985509 93.60058594 53.51977539 C97.25022853 54.43755747 100.90228311 55.3452322 104.5546875 56.25195312 C106.8751512 56.83272956 109.19546893 57.41408959 111.515625 57.99609375 C112.60731995 58.26699326 113.69901489 58.53789276 114.8237915 58.81700134 C115.83874695 59.07389236 116.85370239 59.33078339 117.89941406 59.59545898 C118.79017639 59.81894516 119.68093872 60.04243134 120.59869385 60.27268982 C123 61 123 61 127 63 C127 83.46 127 103.92 127 125 C121.60918729 123.80204162 116.44917494 122.62514497 111.18359375 121.08203125 C109.93642578 120.71819336 108.68925781 120.35435547 107.40429688 119.97949219 C106.08199878 119.59060519 104.75973386 119.20160534 103.4375 118.8125 C102.05931523 118.40893906 100.68105908 118.00562182 99.30273438 117.60253906 C97.21207738 116.99095892 95.12152571 116.37903297 93.03134155 115.76583862 C88.74419669 114.50822624 84.45377652 113.26272124 80.16015625 112.02734375 C63.50718477 107.22795556 63.50718477 107.22795556 55.375 104.4375 C49.35096276 102.37771148 43.27160857 100.65642871 37.125 99 C36.19187988 98.74669922 35.25875977 98.49339844 34.29736328 98.23242188 C29.83222038 97.02306376 25.36310123 95.83554323 20.8828125 94.68359375 C19.33832744 94.26902645 17.79404425 93.85370608 16.25 93.4375 C15.54117676 93.26412109 14.83235352 93.09074219 14.10205078 92.91210938 C12.140625 92.37109375 12.140625 92.37109375 9 91 C6.83953979 87.00682357 6.5014245 82.84950189 6.13037109 78.39916992 C6.06180405 77.65051163 5.993237 76.90185333 5.92259216 76.13050842 C5.69870659 73.6644368 5.48587898 71.19755047 5.2734375 68.73046875 C5.11992456 67.00794977 4.96583242 65.28548232 4.81118774 63.56306458 C4.48884106 59.9547979 4.1716315 56.34612959 3.85839844 52.73706055 C3.45811135 48.126602 3.04803088 43.51708337 2.63443565 38.90780163 C2.31581854 35.35029941 2.000976 31.79247142 1.687397 28.23452187 C1.53750228 26.53570705 1.3867955 24.83696367 1.23524094 23.13829613 C1.02351727 20.75549977 0.81651926 18.37233844 0.61083984 15.98901367 C0.54852676 15.2962735 0.48621368 14.60353333 0.42201233 13.88980103 C0.02482122 9.2088165 0 4.73603401 0 0 Z " fill="#E2E2E2" transform="translate(136,300)"/>
<path d="M0 0 C48.84 0 97.68 0 148 0 C148 18.81 148 37.62 148 57 C101.47 57 54.94 57 7 57 C0 1 0 1 0 0 Z " fill="#E3E3E3" transform="translate(115,97)"/>
<path d="M0 0 C23.1 0 46.2 0 70 0 C70 12.37556335 70 12.37556335 69.74047852 16.5246582 C69.68364395 17.45965652 69.62680939 18.39465485 69.56825256 19.35798645 C69.50576828 20.32910873 69.443284 21.30023102 69.37890625 22.30078125 C69.28258156 23.85903877 69.28258156 23.85903877 69.18431091 25.44877625 C68.98020467 28.73689058 68.77136158 32.02468469 68.5625 35.3125 C68.42613602 37.50453888 68.29006605 39.69659607 68.15429688 41.88867188 C67.48774233 52.59628407 66.7986229 63.30130962 66 74 C59.12390885 76.3634332 52.19761692 78.38730109 45.1875 80.3125 C37.14012251 82.54173657 29.11668958 84.82850883 21.125 87.25 C8.94418185 90.92445858 8.94418185 90.92445858 5.4375 91.9375 C4.22900391 92.29134766 4.22900391 92.29134766 2.99609375 92.65234375 C1 93 1 93 -2 92 C-1.34 92 -0.68 92 0 92 C0 61.64 0 31.28 0 0 Z " fill="#369CD5" transform="translate(263,270)"/>
<path d="M0 0 C0.06921476 12.71821256 -0.13467986 25.4123495 -0.5 38.125 C-0.54840332 39.87369167 -0.59658133 41.62238959 -0.64453125 43.37109375 C-0.76043926 47.58080534 -0.87934126 51.79042201 -1 56 C-8.13983591 56.94338622 -15.11593167 57.13667346 -22.31274414 57.11352539 C-23.51374756 57.11367142 -24.71475098 57.11381744 -25.95214844 57.1139679 C-29.21805773 57.11339402 -32.48392318 57.10840743 -35.74982381 57.10139394 C-39.17309326 57.09510744 -42.59636373 57.09455243 -46.01963806 57.09336853 C-52.48984374 57.09027075 -58.96003236 57.08207844 -65.43023056 57.07201904 C-72.80151793 57.06080949 -80.17280615 57.05533529 -87.54409993 57.05032361 C-102.6960761 57.03989441 -117.84803633 57.02232526 -133 57 C-132 54 -132 54 -130.29972839 52.980896 C-129.55781754 52.67750305 -128.81590668 52.37411011 -128.05151367 52.06152344 C-127.20546066 51.70919647 -126.35940765 51.35686951 -125.48771667 50.99386597 C-124.55719986 50.61948395 -123.62668304 50.24510193 -122.66796875 49.859375 C-121.7013179 49.46025909 -120.73466705 49.06114319 -119.73872375 48.64993286 C-116.55907076 47.33974921 -113.37337443 46.04497304 -110.1875 44.75 C-107.99042754 43.84763095 -105.79381543 42.94414028 -103.59765625 42.03955078 C-99.16524805 40.21513172 -94.73074032 38.3959726 -90.29443359 36.58105469 C-82.42028704 33.35675763 -74.56711059 30.0829316 -66.71676636 26.8012085 C-63.0910819 25.28632636 -59.46340107 23.77624069 -55.8359375 22.265625 C-50.9652509 20.23651427 -46.09545293 18.20529305 -41.2265625 16.171875 C-35.48688592 13.77518554 -29.74457704 11.38491829 -24 9 C-22.97519531 8.57396484 -21.95039063 8.14792969 -20.89453125 7.70898438 C-17.80632785 6.42698112 -14.71601711 5.15020201 -11.625 3.875 C-10.68414551 3.48393066 -9.74329102 3.09286133 -8.77392578 2.68994141 C-7.48204346 2.15892822 -7.48204346 2.15892822 -6.1640625 1.6171875 C-5.40561035 1.30378418 -4.6471582 0.99038086 -3.86572266 0.66748047 C-2 0 -2 0 0 0 Z " fill="#E8E8EA" transform="translate(264,157)"/>
</svg>
