<?xml version="1.0" encoding="UTF-8"?>
<svg version="1.1" xmlns="http://www.w3.org/2000/svg" width="2000" height="2000">
<path d="M0 0 C467.94 0 935.88 0 1418 0 C1415.70279241 32.16090627 1415.70279241 32.16090627 1414.7774992 42.37371254 C1414.6695033 43.58893293 1414.56150741 44.80415331 1414.45023891 46.05619856 C1414.15810167 49.33797521 1413.86381692 52.61954978 1413.56849938 55.90104145 C1413.24385658 59.51486987 1412.92219248 63.12896381 1412.60010904 66.74302107 C1412.03643951 73.06345332 1411.47095741 79.38372126 1410.90422654 85.70387971 C1410.05760463 95.14549033 1409.21391411 104.58736139 1408.37076988 114.02928312 C1406.93859127 130.06658332 1405.5040995 146.10367583 1404.06831551 162.14065361 C1402.62405927 178.2723984 1401.18092506 194.40424299 1399.73916435 210.53621101 C1399.64825569 211.55338992 1399.55734702 212.57056883 1399.46368355 213.61857135 C1399.00061846 218.79988517 1398.53757336 223.98120078 1398.07453652 229.16251712 C1394.75029857 266.35993214 1391.42378556 303.55714341 1388.0960083 340.75424194 C1384.82746985 377.2893218 1381.55986719 413.82448515 1378.29364014 450.35977173 C1378.19249768 451.49112688 1378.09135522 452.62248203 1377.98714784 453.78812067 C1376.55290181 469.83130639 1375.11873339 485.87449903 1373.68458574 501.91769354 C1373.17059364 507.66748954 1372.65659584 513.41728502 1372.14259815 519.16708052 C1371.93674629 521.46982813 1371.73089444 523.77257574 1371.52504259 526.07532335 C1371.42309916 527.21570641 1371.32115574 528.35608946 1371.21612311 529.53102957 C1370.70083049 535.29531482 1370.18553802 541.05960007 1369.67024612 546.82388538 C1369.51709587 548.53709215 1369.51709587 548.53709215 1369.36085168 550.28490916 C1368.74190767 557.20870039 1368.12296984 564.13249218 1367.504036 571.05628432 C1365.32822257 595.39630576 1363.1522763 619.7363153 1360.97600555 644.07629585 C1360.87297539 645.22861251 1360.76994523 646.38092916 1360.66379295 647.5681645 C1360.45572444 649.89525704 1360.24765592 652.22234959 1360.0395874 654.54944213 C1350.64523435 759.61838871 1341.25701519 864.68787771 1328.69860188 1005.51755257 C1327.74331497 1016.23138735 1326.78796516 1026.94521652 1325.83257634 1037.65904222 C1320.31099299 1099.57863303 1314.79000582 1161.49827689 1309.27282954 1223.41826055 C1307.77424581 1240.23700282 1306.27547523 1257.05572838 1304.77584362 1273.87437725 C1304.67864608 1274.96446601 1304.67864608 1274.96446601 1304.57948496 1276.07657676 C1303.93790106 1283.27197914 1303.29626469 1290.46737683 1302.65455537 1297.66276803 C1302.34261918 1301.16047667 1302.03069623 1304.6581865 1301.71878242 1308.15589714 C1301.6577453 1308.84034804 1301.59670817 1309.52479893 1301.53382143 1310.22999076 C1300.51748351 1321.62726823 1299.50240295 1333.02465731 1298.48770501 1344.4220809 C1297.61226209 1354.25450701 1296.73574465 1364.08683693 1295.85834519 1373.91908863 C1295.36137562 1379.48857844 1294.86488296 1385.05810959 1294.36975038 1390.62776303 C1293.92000049 1395.68683977 1293.4688354 1400.7457883 1293.01657797 1405.80464148 C1292.85536778 1407.61063252 1292.6946568 1409.41666822 1292.5345351 1411.2227561 C1291.47566292 1423.16215323 1290.28760784 1435.08307747 1289 1447 C1243.34114252 1459.69494362 1197.67805554 1472.37428885 1152 1485 C1121.32725017 1493.47819254 1090.66030659 1501.9769174 1060 1510.5 C1028.35400673 1519.29708798 996.70057401 1528.06689795 965.04174805 1536.81768799 C934.43383714 1545.2781289 903.83271134 1553.76263422 873.23726273 1562.26802826 C839.15027648 1571.74398329 805.05394674 1581.18590046 770.95197105 1590.60776901 C768.08450592 1591.40009236 765.21713231 1592.19274632 762.34976196 1592.9854126 C758.73496282 1593.98459049 755.11967523 1594.98197158 751.5039978 1595.97796631 C744.01195564 1598.04382657 736.52626791 1600.12424058 729.06298828 1602.29199219 C727.90110489 1602.62713837 726.7392215 1602.96228455 725.54212952 1603.30758667 C723.49306116 1603.90127089 721.44637375 1604.5032852 719.40306091 1605.1164856 C718.52440872 1605.3705014 717.64575653 1605.62451721 716.74047852 1605.88623047 C716.00829605 1606.10391083 715.27611359 1606.32159119 714.52174377 1606.54586792 C707.77892825 1607.76015815 702.07841719 1606.78801121 695.61572266 1604.91821289 C694.81100493 1604.69446299 694.00628721 1604.47071308 693.1771841 1604.24018288 C690.50330251 1603.49409441 687.83381369 1602.73338025 685.1640625 1601.97265625 C683.24923854 1601.43533348 681.33414666 1600.89896472 679.41880798 1600.36347961 C675.30859942 1599.21228847 671.20026842 1598.05469857 667.09329224 1596.89202881 C660.54284538 1595.03771545 653.9884586 1593.19761736 647.43334961 1591.35986328 C639.50940734 1589.13748713 631.58633017 1586.91208015 623.66438961 1584.68257904 C604.81227292 1579.37767892 585.94305226 1574.13506943 567.07073975 1568.90255737 C558.72698614 1566.58901398 550.38441098 1564.27122666 542.04168701 1561.95397377 C537.40691793 1560.66669964 532.77205595 1559.37976007 528.13720703 1558.09277344 C512.24112637 1553.67868056 496.34551172 1549.26291005 480.4498682 1544.84724331 C473.87978038 1543.02214365 467.3096501 1541.19719693 460.73950195 1539.37231445 C442.97070798 1534.43691134 425.20216116 1529.50062283 407.43434334 1524.56170654 C399.03965757 1522.22829462 390.64485556 1519.895301 382.25 1517.5625 C380.86140211 1517.17662342 380.86140211 1517.17662342 379.44475174 1516.78295135 C351.7324326 1509.08226691 324.01378041 1501.40473194 296.29074097 1493.74273682 C261.82083139 1484.21597502 227.35735757 1474.666351 192.90343094 1465.08193207 C189.72143701 1464.19693874 186.5393117 1463.31241938 183.35714722 1462.42803955 C178.36024163 1461.03922877 173.36370686 1459.64909166 168.36745453 1458.25793266 C166.54544244 1457.7507973 164.72331928 1457.24406077 162.90106964 1456.73777962 C151.57063094 1453.5892923 140.27446612 1450.34362772 129 1447 C127.00212338 1428.87026866 125.1904378 1410.73502485 123.58206177 1392.56666565 C123.35512242 1390.02454667 123.12796333 1387.48244729 122.90060788 1384.94036549 C122.41023867 1379.45358016 121.9216829 1373.96663586 121.434389 1368.47957659 C120.70525502 1360.26944553 119.97317198 1352.05957914 119.24055929 1343.84975785 C117.9924696 1329.8624475 116.74672496 1315.87492921 115.50229454 1301.88729286 C114.24451829 1287.74975507 112.9856327 1273.61231671 111.72541237 1259.47499657 C111.64564822 1258.58018417 111.56588408 1257.68537178 111.48370284 1256.76344385 C111.07702384 1252.20128184 110.67032725 1247.6391214 110.26362475 1243.07696148 C107.33023435 1210.17140663 104.39927788 1177.26563534 101.46969604 1144.35974121 C98.57478261 1111.84329636 95.67901256 1079.326928 92.78201294 1046.81066895 C92.6000971 1044.76881238 92.41818129 1042.7269558 92.2362655 1040.68509923 C91.50565105 1032.48456934 90.77502846 1024.28404019 90.04439561 1016.08351194 C88.00727615 993.21914758 85.9702878 970.35477155 83.93339539 947.49038696 C83.84083972 946.45143991 83.74828405 945.41249286 83.65292366 944.34206257 C80.808802 912.41642512 77.96530145 880.49073239 75.12226742 848.56499806 C74.64244807 843.17688739 74.16262526 837.78877702 73.68280309 832.40066659 C73.49066003 830.24301549 73.29851698 828.08536439 73.10637392 825.92771328 C64.39083635 728.05750306 55.66936596 630.18782328 46.94357425 532.31852677 C44.23695325 501.96077093 41.53080172 471.60297328 38.82513428 441.24513245 C38.73758567 440.26283113 38.65003706 439.28052982 38.55983546 438.26846181 C36.64233226 416.75391713 34.72493404 395.23936309 32.80762574 373.72480105 C32.12343486 366.04735226 31.43923407 358.36990435 30.75502866 350.69245686 C30.58492735 348.78375422 30.41482655 346.87505154 30.24472625 344.96634881 C27.53494417 314.55981398 24.82396852 284.15338571 22.11243993 253.74700658 C19.38914276 223.20852799 16.66729088 192.66992092 13.94739705 162.13113901 C13.57261763 157.92314171 13.1978229 153.71514577 12.82301903 149.50715065 C12.74956591 148.68247149 12.67611279 147.85779232 12.60043382 147.00812288 C11.43624735 133.93792783 10.27056738 120.86786643 9.10426551 107.79786 C7.96063344 94.98155754 6.81856111 82.1651169 5.6781815 69.34852462 C5.06813464 62.49276967 4.45738547 55.63707911 3.84461808 48.78156674 C3.28847449 42.5587908 2.73433367 36.33584001 2.18184903 30.11273817 C1.98205788 27.86641887 1.7815127 25.62016648 1.58015458 23.3739871 C1.30843917 20.34177219 1.03941417 17.30933049 0.77109432 14.27681351 C0.69180877 13.3993484 0.61252322 12.5218833 0.53083507 11.61782834 C0.46005182 10.8114956 0.38926858 10.00516286 0.31634039 9.1743958 C0.25476492 8.48350813 0.19318946 7.79262046 0.12974807 7.08079679 C-0.01716565 4.72471094 0 2.36066181 0 0 Z " fill="#E44D26" transform="translate(291,393)"/>
<path d="M0 0 C292.71 0 585.42 0 887 0 C887 12.37384773 887 12.37384773 886.54443359 17.30419922 C886.44344864 18.42464127 886.34246368 19.54508331 886.23841858 20.69947815 C886.12622482 21.88919724 886.01403107 23.07891632 885.8984375 24.3046875 C885.71894823 26.27693574 885.53946124 28.24918418 885.36005878 30.22144032 C885.16803487 32.32233086 884.9736163 34.42298712 884.7784729 36.52359009 C884.154715 43.23961428 883.54562418 49.95697872 882.93470955 56.67418098 C882.72109474 59.02106183 882.50686689 61.36788619 882.29258728 63.71470642 C881.2899189 74.71230577 880.32009446 85.71249023 879.37109375 96.71484375 C879.30519295 97.47810722 879.23929214 98.2413707 879.17139435 99.02776337 C878.59476909 105.70781866 878.01945612 112.38798556 877.44866943 119.06854248 C877.21232007 121.83473558 876.97488595 124.60083171 876.73634338 127.36683655 C876.52299229 129.84181777 876.3111027 132.31692593 876.10142517 134.79222107 C874.88367338 148.87820137 873.40723867 162.92761328 872 177 C647.93 177 423.86 177 193 177 C194.98 194.82 194.98 194.82 197 213 C197.9284616 222.84120685 198.84223582 232.68061887 199.69780731 242.52799606 C200.00502563 246.05543775 200.31637108 249.5825154 200.62744141 253.10961914 C200.75656936 254.57408071 200.88568918 256.03854299 201.01480103 257.50300598 C201.07932087 258.23478373 201.14384071 258.96656147 201.2103157 259.7205143 C201.40630852 261.94597702 201.60169388 264.17149241 201.79696655 266.39701843 C202.67756936 276.42141206 203.58358262 286.44329284 204.50399399 296.46410561 C204.92622523 301.06591768 205.34559398 305.66799177 205.7651844 310.27004528 C206.10036218 313.94306981 206.43741718 317.61590235 206.77874756 321.2883606 C207.15780687 325.36750236 207.52836352 329.44737704 207.8984375 333.52734375 C208.01062622 334.71822601 208.12281494 335.90910828 208.23840332 337.13607788 C208.38988831 338.8262352 208.38988831 338.8262352 208.54443359 340.55053711 C208.63292572 341.51205185 208.72141785 342.47356659 208.81259155 343.46421814 C209.08670981 348.63592936 209 353.82102927 209 359 C422.18 359 635.36 359 855 359 C855 373.62239672 855 373.62239672 854.46850586 379.07519531 C854.35066742 380.31765015 854.23282898 381.56010498 854.11141968 382.84020996 C853.97926157 384.16951834 853.84706844 385.49882324 853.71484375 386.828125 C853.57665683 388.26674523 853.43911341 389.70542738 853.30215454 391.14416504 C853.00773584 394.22756718 852.70994975 397.31061681 852.40945435 400.39343262 C851.58751739 408.83365697 850.790672 417.27628074 849.9921875 425.71875 C849.86755851 427.0336655 849.86755851 427.0336655 849.74041176 428.37514496 C847.97760291 446.99071921 846.36204712 465.61779773 844.77553177 484.24909973 C842.29719443 513.34370169 839.69868797 542.42502067 837 571.5 C834.40210727 599.49208716 831.89266441 627.48962007 829.5 655.5 C827.1073353 683.51038338 824.59749372 711.50787391 822 739.5 C818.84999942 773.44895066 815.84462022 807.4084232 812.94021606 841.37924194 C812.67880473 844.43566951 812.41631947 847.49200164 812.15280151 850.54824829 C812.02420262 852.04078939 811.89563193 853.53333292 811.76708984 855.02587891 C811.70397551 855.75849253 811.64086117 856.49110615 811.57583427 857.24592018 C811.17548161 861.90929134 810.78668792 866.57350366 810.40458584 871.23840427 C810.14531082 874.39019091 809.88023506 877.54147461 809.61416054 880.69269371 C809.49019486 882.17763218 809.36883524 883.6627909 809.25029564 885.14817238 C809.08679594 887.19405452 808.91415396 889.23897958 808.73950195 891.28393555 C808.59711845 893.0183918 808.59711845 893.0183918 808.45185852 894.78788757 C807.98877528 898.07979279 807.24426332 900.91918494 806 904 C804.13427734 905.12084961 804.13427734 905.12084961 801.8359375 905.65234375 C800.54163818 905.97549561 800.54163818 905.97549561 799.22119141 906.30517578 C798.28194824 906.51384277 797.34270508 906.72250977 796.375 906.9375 C794.36913213 907.43092027 792.36394502 907.92711451 790.359375 908.42578125 C789.31458984 908.67924316 788.26980469 908.93270508 787.19335938 909.19384766 C781.95806 910.51548057 776.79712871 912.0775704 771.625 913.625 C763.78094683 915.94292956 755.93478314 918.05103271 747.984375 919.97265625 C742.40279078 921.36805231 736.92078882 923.1061236 731.42089844 924.78930664 C725.66580523 926.5371375 719.90262594 928.06241015 714.05395508 929.4675293 C708.87152966 930.73346038 703.78541937 932.24328399 698.6875 933.8125 C689.53300522 936.62485263 680.29456361 939.02476922 671.01513672 941.38720703 C663.23301898 943.38270678 655.54067869 945.57818822 647.86328125 947.94140625 C642.93891438 949.44787375 638.00682046 950.79713196 633 952 C626.92988899 953.46857525 620.97140215 955.17260842 615 957 C608.34786141 959.03375476 601.6926226 960.89413264 594.93310547 962.53344727 C587.66778336 964.3019916 580.47926673 966.33308732 573.28222656 968.35888672 C569.52390951 969.414657 565.76179211 970.45669367 562 971.5 C560.49998134 971.91659949 558.99998135 972.33326619 557.5 972.75 C530.5 980.25 530.5 980.25 528.25146484 980.87451172 C526.74652608 981.29260466 525.24164354 981.7109 523.73681641 982.12939453 C520.06280567 983.15087905 516.38799244 984.16921195 512.7109375 985.1796875 C504.07362359 987.55851756 495.46879364 990.03068783 486.875 992.5625 C478.82879198 994.92973787 470.77742533 997.13384982 462.62109375 999.0859375 C460.09778991 999.72288798 457.64130555 1000.39550371 455.16015625 1001.1640625 C453.93167969 1001.54304688 452.70320313 1001.92203125 451.4375 1002.3125 C450.36371094 1002.65925781 449.28992188 1003.00601563 448.18359375 1003.36328125 C441.17563434 1004.76487313 434.08740661 1002.107245 427.3125 1000.3125 C425.79934204 999.91538818 425.79934204 999.91538818 424.25561523 999.51025391 C416.80974472 997.53425911 409.4339889 995.36874515 402.06958008 993.1105957 C397.07609517 991.58962326 392.07523096 990.21907879 387 989 C380.05604262 987.32001031 373.25213416 985.30141076 366.421875 983.2109375 C361.30751155 981.65780259 356.19520222 980.25690376 351 979 C344.05604262 977.32001031 337.25213416 975.30141076 330.421875 973.2109375 C325.30751155 971.65780259 320.19520222 970.25690376 315 969 C308.05604262 967.32001031 301.25213416 965.30141076 294.421875 963.2109375 C289.30751155 961.65780259 284.19520222 960.25690376 279 959 C272.05604262 957.32001031 265.25213416 955.30141076 258.421875 953.2109375 C253.30751155 951.65780259 248.19520222 950.25690376 243 949 C236.05604262 947.32001031 229.25213416 945.30141076 222.421875 943.2109375 C217.30751155 941.65780259 212.19520222 940.25690376 207 939 C200.92989596 937.53142644 194.97137123 935.82747474 189 934 C183.11098949 932.19872753 177.23636389 930.5094116 171.25 929.0625 C164.58168222 927.44735971 158.01572303 925.57352081 151.4375 923.625 C143.40891927 921.24761704 135.36248329 919.01058339 127.25 916.9375 C119.21582051 914.88418409 111.25905851 912.66317708 103.34667969 910.17944336 C98.16514923 908.57376214 92.94345598 907.20988207 87.67944336 905.90673828 C86.56946613 905.6306649 86.56946613 905.6306649 85.43706512 905.34901428 C83.62493473 904.89843841 81.81249812 904.44909438 80 904 C77.41505039 880.31083428 75.10097511 856.61424037 73.10742188 832.86816406 C72.36730767 824.0544426 71.61141663 815.24206268 70.85546875 806.4296875 C70.77848125 805.53117821 70.70149376 804.63266891 70.62217331 803.70693207 C69.06651176 785.56955183 67.40566694 767.44265787 65.71599579 749.31734085 C63.14921723 721.77930015 60.67950399 694.23403296 58.29940796 666.67919922 C58.06357318 663.9499198 57.82723997 661.22068389 57.59082031 658.49145508 C57.22208604 654.23235932 56.85492968 649.97313058 56.48917961 645.71377754 C56.35429642 644.14433093 56.21903503 642.57491677 56.08337593 641.00553703 C55.89814919 638.8604871 55.71457297 636.71530254 55.53149414 634.57006836 C55.42825333 633.36700546 55.32501251 632.16394257 55.21864319 630.92442322 C55 628 55 628 55 625 C113.74 625 172.48 625 233 625 C234.45881537 627.91763075 234.41723167 630.69888755 234.69262695 633.94848633 C234.75469645 634.66736149 234.81676594 635.38623665 234.88071632 636.1268959 C235.08709995 638.52829475 235.28765722 640.9301449 235.48828125 643.33203125 C235.63264473 645.02407491 235.77739164 646.7160859 235.92250061 648.4080658 C236.2304248 652.00707992 236.53586344 655.60629277 236.83929443 659.20568848 C237.31101557 664.80119612 237.78794456 670.39625101 238.26611328 675.99121094 C238.42474991 677.84786934 238.58338029 679.70452827 238.74200439 681.56118774 C238.82013618 682.47563282 238.89826797 683.3900779 238.9787674 684.33223343 C239.21467423 687.09567044 239.45003275 689.85915366 239.6852417 692.62265015 C240.95681282 707.55485036 242.2693243 722.48309627 243.61465454 737.40884399 C244.47330991 746.93528798 245.29985776 756.46029756 246 766 C247.20011719 766.29132812 248.40023437 766.58265625 249.63671875 766.8828125 C258.41169012 769.03354952 267.13961908 771.27955247 275.8125 773.8125 C284.59903176 776.37572722 293.44325767 778.68122311 302.3125 780.9375 C312.72230352 783.58621632 323.05404414 786.42148247 333.34814453 789.49365234 C341.25443001 791.83303541 349.21980673 793.84829908 357.22802734 795.80566406 C363.55034673 797.36024838 369.81407881 799.04695558 376.0625 800.875 C385.49325108 803.63247061 394.99372696 806.09397321 404.51596069 808.51190186 C413.84950062 810.88262696 423.13507582 813.36649882 432.31835938 816.2734375 C440.64084724 818.79068956 447.60830989 818.54455156 455.8125 815.8125 C457.29700555 815.34651171 458.78274198 814.8844309 460.26953125 814.42578125 C461.03990723 814.18811035 461.8102832 813.95043945 462.60400391 813.70556641 C466.70153735 812.49893591 470.84940696 811.50556223 475 810.5 C481.21795976 808.98248284 487.37355795 807.35298814 493.5 805.5 C500.46811394 803.39244191 507.48756908 801.6022732 514.55859375 799.875 C519.91894656 798.55349546 525.21592998 797.09820643 530.5 795.5 C537.46811394 793.39244191 544.48756908 791.6022732 551.55859375 789.875 C556.91895344 788.55349376 562.21589111 787.09808725 567.5 785.5 C573.5446788 783.67308473 579.61559759 782.06032454 585.75 780.5625 C592.71578257 778.8614279 599.61532027 777.00409323 606.5 775 C618.21324678 771.59478243 630.02260266 768.34357394 642 766 C641.97607178 765.03384766 641.95214355 764.06769531 641.92749023 763.07226562 C641.73976095 751.84989748 642.59628559 740.86217453 643.73605347 729.70477295 C644.32612604 723.91194492 644.88470648 718.11605448 645.4453125 712.3203125 C645.56879562 711.0479776 645.69227875 709.7756427 645.81950378 708.4647522 C647.41091245 691.97866924 648.80360289 675.47493861 650.21510315 658.97268295 C650.88286498 651.17296131 651.55521785 643.37363266 652.2265625 635.57421875 C652.30031601 634.71705324 652.37406952 633.85988773 652.45005798 632.97674751 C653.92498271 615.83684893 655.40925906 598.69781177 656.92630005 581.56158447 C657.18149843 578.67696685 657.43444064 575.79216608 657.68527222 572.90716553 C658.03103552 568.93112513 658.38427827 564.95578405 658.73828125 560.98046875 C658.83696503 559.83415482 658.9356488 558.68784088 659.037323 557.50679016 C659.13497955 556.42455673 659.23263611 555.3423233 659.33325195 554.22729492 C659.41428665 553.30800705 659.49532135 552.38871918 659.57881165 551.4415741 C660.21171207 546.27007853 661.14346819 541.13919085 662 536 C459.05 536 256.1 536 47 536 C41.29203601 477.77876726 41.29203601 477.77876726 39.03198242 450.88745117 C38.30428459 442.2483746 37.56268794 433.61048203 36.8203125 424.97265625 C36.70707264 423.65403028 36.70707264 423.65403028 36.5915451 422.30876541 C34.97705628 403.53142477 33.24859881 384.76524916 31.5 366 C29.0063405 339.22847509 26.63639471 312.44852523 24.34634399 285.65884399 C21.92556844 257.34911445 19.37157893 229.05358584 16.74590683 200.76216507 C14.03489399 171.54521821 11.43800434 142.32042737 8.94503784 113.08407593 C7.4351396 95.37683096 5.89773444 77.67367776 4.23046875 59.98046875 C4.08720768 58.45573025 3.94395805 56.93099068 3.80072021 55.40625 C3.26082001 49.66813972 2.72084392 43.93006519 2.1630249 38.19366455 C1.79223867 34.37568565 1.42887799 30.55705695 1.06640625 26.73828125 C0.95741501 25.64621872 0.84842377 24.55415619 0.73612976 23.42900085 C-0.00677331 15.51396845 0 8.04291883 0 0 Z " fill="#FEFEFE" transform="translate(556,689)"/>
<path d="M0 0 C191.07 0 382.14 0 579 0 C578.34 8.91 577.68 17.82 577 27 C576.855625 29.784375 576.71125 32.56875 576.5625 35.4375 C576.0936868 43.95985417 575.11212503 52.41265131 574.16088867 60.89282227 C573.06255843 70.89333744 572.28979347 80.89934199 571.64672852 90.9387207 C571.57510498 92.03917725 571.50348145 93.13963379 571.4296875 94.2734375 C571.34050049 95.71855713 571.34050049 95.71855713 571.24951172 97.19287109 C570.98533631 100.16497373 570.50295916 103.05991339 570 106 C569.82762694 108.39407023 569.68422206 110.79032073 569.5625 113.1875 C569.24274228 118.87592465 568.76465945 124.5253293 568.125 130.1875 C567.03334995 139.94090463 566.27338244 149.71744763 565.5 159.5 C564.7066061 169.52301321 563.90747963 179.53263643 562.76953125 189.5234375 C561.81807625 198.16452065 561.18623962 206.83474217 560.5 215.5 C559.70623535 225.52299366 558.90748155 235.53261965 557.76953125 245.5234375 C556.6483917 255.70559012 555.93026213 265.93044413 555.140625 276.14257812 C554.55149142 283.6833544 553.89439098 291.20767654 553.07514954 298.72712708 C551.9386488 309.35693178 550.97009038 319.99970646 550.01635742 330.6472168 C549.8272554 332.74633365 549.63802732 334.84543914 549.44868469 336.9445343 C548.93893144 342.5997661 548.43093777 348.25515467 547.92328811 353.91057563 C547.38479776 359.90619904 546.84468201 365.90167605 546.30476379 371.89717102 C545.39518913 381.99996655 544.48664882 392.10285463 543.57885742 402.20581055 C542.31735889 416.24521957 541.05404717 430.28446497 539.79033124 444.32367456 C538.79085919 455.42799102 537.79185186 466.5323493 536.79296875 477.63671875 C536.63789498 479.36063642 536.63789498 479.36063642 536.47968841 481.11938071 C535.1330543 496.08934767 535.1330543 496.08934767 533.78955364 511.05959606 C533.59492341 513.23092348 533.40029151 515.40225076 533.20565796 517.57357788 C533.10900835 518.65194792 533.01235873 519.73031796 532.91278034 520.84136587 C532.27041946 528.00253796 531.62340757 535.16327857 530.97408813 542.32382292 C530.51324818 547.41032298 530.05453263 552.49701349 529.59613478 557.58373415 C529.37761746 560.00304795 529.15818581 562.42227938 528.9377445 564.84141862 C527.85494265 576.7283068 526.81262016 588.59977071 526.20595074 600.52158642 C525.87311596 606.14301336 525.21699364 611.72106447 524.5625 617.3125 C523.48825003 626.86657826 522.63003779 636.4065796 522 646 C521.30625765 656.53855689 520.28838523 667.00600827 519.10546875 677.5 C518.20407032 685.65811107 517.53926689 693.81045542 517 702 C516.30605557 712.53854591 515.28838622 723.00599947 514.10546875 733.5 C513.07642399 742.81337478 512.38569466 752.12712848 511.77172852 761.47583008 C511.11773952 771.09938951 510.11409988 780.6649767 509.03735352 790.24926758 C508.20113512 797.79344676 507.62135661 805.29402037 507.26342773 812.8737793 C507.03868143 816.86197557 506.57399753 820.80879552 506.06640625 824.76953125 C504.89438285 834.32464524 504.18372257 843.89963097 503.5 853.5 C502.78238128 863.5763158 501.98071216 873.60602267 500.73692322 883.63212585 C499.81881833 891.18557274 499.27817686 898.7601691 498.73849487 906.34848022 C497.76672564 919.95375498 496.59431047 933.50210497 495.05493164 947.0559082 C494.03639949 956.19189385 493.37339117 965.33117128 492.76928711 974.50268555 C492.13186166 983.86793632 491.15679366 993.17339482 490.10546875 1002.5 C489.20407032 1010.65811107 488.53926689 1018.81045542 488 1027 C487.30605557 1037.53854591 486.28838622 1048.00599947 485.10546875 1058.5 C484.20407032 1066.65811107 483.53926689 1074.81045542 483 1083 C482.30712396 1093.52232082 481.29412795 1103.97410451 480.10986328 1114.45166016 C479.02339848 1124.26582818 478.27782365 1134.08819666 477.64648438 1143.94140625 C477.53916992 1145.59076172 477.53916992 1145.59076172 477.4296875 1147.2734375 C477.37022949 1148.23685059 477.31077148 1149.20026367 477.24951172 1150.19287109 C476.98533631 1153.16497373 476.50295916 1156.05991339 476 1159 C475.82762694 1161.39407023 475.68422206 1163.79032073 475.5625 1166.1875 C475.24274323 1171.87590764 474.76502721 1177.52537549 474.125 1183.1875 C472.80894442 1194.88761742 471.95600413 1206.63016781 471.05322266 1218.36791992 C470.93002225 1219.94059317 470.80681299 1221.51326573 470.68359375 1223.0859375 C470.6294783 1223.80919724 470.57536285 1224.53245697 470.51960754 1225.27763367 C470.23255731 1228.9177111 469.8121619 1232.43828199 469 1236 C452.27260085 1240.99460887 435.45964005 1245.66033511 418.63024902 1250.29702759 C406.63338951 1253.60270928 394.64466066 1256.92823391 382.6875 1260.375 C373.52076656 1263.01458959 364.33182786 1265.54728723 355.11547852 1268.00756836 C343.60172756 1271.08943302 332.11290402 1274.26084891 320.625 1277.4375 C319.59648926 1277.7218692 318.56797852 1278.0062384 317.50830078 1278.29922485 C304.43811008 1281.91536067 291.38509438 1285.58295628 278.35327148 1289.33496094 C270.29672337 1291.64779892 262.2136821 1293.84577341 254.11547852 1296.00756836 C242.60172756 1299.08943302 231.11290402 1302.26084891 219.625 1305.4375 C218.59648926 1305.7218692 217.56797852 1306.0062384 216.50830078 1306.29922485 C203.45200531 1309.91151627 190.4119203 1313.57218065 177.39501953 1317.32397461 C168.88419512 1319.76929246 160.34035452 1322.07704058 151.78393555 1324.35693359 C143.83027 1326.48474257 135.91156477 1328.72100678 128 1331 C119.18662724 1333.53729306 110.36108105 1336.00959481 101.5 1338.375 C91.19115631 1341.12725328 80.90415754 1343.95184027 70.625 1346.8125 C69.49572083 1347.12658813 69.49572083 1347.12658813 68.34362793 1347.44702148 C60.45876683 1349.640273 52.57534997 1351.83866363 44.69332886 1354.042099 C41.48327375 1354.93908591 38.27276458 1355.83444086 35.06219482 1356.72958374 C32.83348238 1357.35169708 30.60545336 1357.97621364 28.37744141 1358.60083008 C26.97562172 1358.99182754 25.57376788 1359.38270255 24.171875 1359.7734375 C22.9765918 1360.10778809 21.78130859 1360.44213867 20.54980469 1360.78662109 C13.72152425 1362.60764244 6.85593139 1364.28601715 0 1366 C0 1305.28 0 1244.56 0 1182 C8.98425849 1178.63090307 8.98425849 1178.63090307 12.96875 1177.640625 C13.85691406 1177.41568359 14.74507812 1177.19074219 15.66015625 1176.95898438 C16.59730469 1176.72501953 17.53445313 1176.49105469 18.5 1176.25 C26.71702391 1174.15598423 34.87098185 1171.91281346 43 1169.5 C51.99914333 1166.83176465 61.03686833 1164.38895672 70.12890625 1162.05859375 C75.95893784 1160.55667425 81.70141673 1158.89316487 87.4375 1157.0625 C92.4244352 1155.57516845 97.46028552 1154.2952968 102.5 1153 C109.57805672 1151.1796547 116.58392154 1149.26378375 123.55078125 1147.05078125 C129.02752071 1145.38232948 134.55773714 1143.91471243 140.08447266 1142.421875 C147.21544574 1140.49374237 154.32837323 1138.50703595 161.4375 1136.5 C170.65588607 1133.90071268 179.90409142 1131.44564991 189.17944336 1129.05859375 C195.00509523 1127.54957295 200.74576034 1125.87716938 206.48046875 1124.05078125 C211.22567749 1122.63406521 216.01586966 1121.41691521 220.8125 1120.1875 C228.92271714 1118.10686838 236.97254148 1115.87981598 245 1113.5 C253.99924508 1110.83208871 263.0368555 1108.38896001 272.12890625 1106.05859375 C276.95957122 1104.81412881 281.74512504 1103.51433108 286.5 1102 C292.21952201 1100.17844843 298.00006011 1098.67739909 303.8125 1097.1875 C312.94295827 1094.84340527 321.99490813 1092.29341128 331.03442383 1089.62158203 C341.31382452 1086.59092094 351.64966749 1083.77725698 362 1081 C362.86992184 1077.07287723 363.30733548 1073.20955891 363.64501953 1069.20288086 C363.73102291 1068.19726105 363.73102291 1068.19726105 363.81876373 1067.17132568 C363.94347699 1065.70865879 364.06687186 1064.24587902 364.18910599 1062.78300285 C364.38730615 1060.41106649 364.5889244 1058.03944112 364.79135132 1055.66786194 C365.08433696 1052.23124296 365.37586657 1048.79450502 365.66625977 1045.35766602 C366.44889112 1036.10101538 367.24303096 1026.84535043 368.0390625 1017.58984375 C368.12053276 1016.64202404 368.20200302 1015.69420433 368.28594208 1014.71766281 C369.8756784 996.24442726 371.5622877 977.78095996 373.28372574 959.31959534 C375.77338168 932.61741506 378.15335965 905.9080401 380.4375 879.1875 C382.85148411 850.94800979 385.38111241 822.72121526 388 794.5 C390.60734801 766.40091074 393.12029867 738.29626401 395.51560211 710.17832947 C398.82787524 671.31417567 402.40742091 632.47459964 405.99289989 593.63490009 C406.46463345 588.52413808 406.93580407 583.41332421 407.40702629 578.30251503 C407.73327444 574.76842587 408.06073665 571.23445075 408.38832092 567.70048523 C408.58818761 565.53567899 408.78801388 563.37086901 408.98779297 561.20605469 C409.12021629 559.78362127 409.12021629 559.78362127 409.25531483 558.33245182 C409.90961121 551.22463714 410.45236074 544.11931036 411 537 C197.82 537 -15.36 537 -235 537 C-249.8 374.2 -249.8 374.2 -251 355 C-26.93 355 197.14 355 428 355 C428 351.7 428 348.4 428 345 C428.09388971 343.29395014 428.21253839 341.58862438 428.37963867 339.88818359 C428.46380539 339.00630875 428.54797211 338.1244339 428.63468933 337.21583557 C428.72817154 336.28609421 428.82165375 335.35635284 428.91796875 334.3984375 C429.01527786 333.38953964 429.11258698 332.38064178 429.21284485 331.34117126 C429.42343909 329.16130623 429.63608515 326.98163863 429.85058594 324.80215454 C430.43576537 318.84959698 431.00384102 312.89539714 431.57421875 306.94140625 C431.69300385 305.70543198 431.81178894 304.4694577 431.93417358 303.19602966 C435.93200001 261.4928244 439.40186433 219.73837377 443 178 C150.29 178 -142.42 178 -444 178 C-444 180.64 -444 183.28 -444 186 C-444.33 186 -444.66 186 -445 186 C-445 183.03 -445 180.06 -445 177 C-298.15 177 -151.3 177 0 177 C0 118.59 0 60.18 0 0 Z " fill="#F06529" transform="translate(1000,511)"/>
<path d="M0 0 C292.71 0 585.42 0 887 0 C887 12.37384773 887 12.37384773 886.54443359 17.30419922 C886.44344864 18.42464127 886.34246368 19.54508331 886.23841858 20.69947815 C886.12622482 21.88919724 886.01403107 23.07891632 885.8984375 24.3046875 C885.71894823 26.27693574 885.53946124 28.24918418 885.36005878 30.22144032 C885.16803487 32.32233086 884.9736163 34.42298712 884.7784729 36.52359009 C884.154715 43.23961428 883.54562418 49.95697872 882.93470955 56.67418098 C882.72109474 59.02106183 882.50686689 61.36788619 882.29258728 63.71470642 C881.2899189 74.71230577 880.32009446 85.71249023 879.37109375 96.71484375 C879.30519295 97.47810722 879.23929214 98.2413707 879.17139435 99.02776337 C878.59476909 105.70781866 878.01945612 112.38798556 877.44866943 119.06854248 C877.21232007 121.83473558 876.97488595 124.60083171 876.73634338 127.36683655 C876.52299229 129.84181777 876.3111027 132.31692593 876.10142517 134.79222107 C874.88367338 148.87820137 873.40723867 162.92761328 872 177 C647.93 177 423.86 177 193 177 C194.98 194.82 194.98 194.82 197 213 C197.9284616 222.84120685 198.84223582 232.68061887 199.69780731 242.52799606 C200.00502563 246.05543775 200.31637108 249.5825154 200.62744141 253.10961914 C200.75656936 254.57408071 200.88568918 256.03854299 201.01480103 257.50300598 C201.07932087 258.23478373 201.14384071 258.96656147 201.2103157 259.7205143 C201.40630852 261.94597702 201.60169388 264.17149241 201.79696655 266.39701843 C202.67756936 276.42141206 203.58358262 286.44329284 204.50399399 296.46410561 C204.92622523 301.06591768 205.34559398 305.66799177 205.7651844 310.27004528 C206.10036218 313.94306981 206.43741718 317.61590235 206.77874756 321.2883606 C207.15780687 325.36750236 207.52836352 329.44737704 207.8984375 333.52734375 C208.01062622 334.71822601 208.12281494 335.90910828 208.23840332 337.13607788 C208.38988831 338.8262352 208.38988831 338.8262352 208.54443359 340.55053711 C208.63292572 341.51205185 208.72141785 342.47356659 208.81259155 343.46421814 C209.08670981 348.63592936 209 353.82102927 209 359 C286.22 359 363.44 359 443 359 C443 417.41 443 475.82 443 536 C312.32 536 181.64 536 47 536 C41.29203601 477.77876726 41.29203601 477.77876726 39.03198242 450.88745117 C38.30428459 442.2483746 37.56268794 433.61048203 36.8203125 424.97265625 C36.70707264 423.65403028 36.70707264 423.65403028 36.5915451 422.30876541 C34.97705628 403.53142477 33.24859881 384.76524916 31.5 366 C29.0063405 339.22847509 26.63639471 312.44852523 24.34634399 285.65884399 C21.92556844 257.34911445 19.37157893 229.05358584 16.74590683 200.76216507 C14.03489399 171.54521821 11.43800434 142.32042737 8.94503784 113.08407593 C7.4351396 95.37683096 5.89773444 77.67367776 4.23046875 59.98046875 C4.08720768 58.45573025 3.94395805 56.93099068 3.80072021 55.40625 C3.26082001 49.66813972 2.72084392 43.93006519 2.1630249 38.19366455 C1.79223867 34.37568565 1.42887799 30.55705695 1.06640625 26.73828125 C0.95741501 25.64621872 0.84842377 24.55415619 0.73612976 23.42900085 C-0.00677331 15.51396845 0 8.04291883 0 0 Z " fill="#EAEAEA" transform="translate(556,689)"/>
<path d="M0 0 C58.74 0 117.48 0 178 0 C179.45881537 2.91763075 179.41723167 5.69888755 179.69262695 8.94848633 C179.75469645 9.66736149 179.81676594 10.38623665 179.88071632 11.1268959 C180.08709995 13.52829475 180.28765722 15.9301449 180.48828125 18.33203125 C180.63264473 20.02407491 180.77739164 21.7160859 180.92250061 23.4080658 C181.2304248 27.00707992 181.53586344 30.60629277 181.83929443 34.20568848 C182.31101557 39.80119612 182.78794456 45.39625101 183.26611328 50.99121094 C183.42474991 52.84786934 183.58338029 54.70452827 183.74200439 56.56118774 C183.82013618 57.47563282 183.89826797 58.3900779 183.9787674 59.33223343 C184.21467423 62.09567044 184.45003275 64.85915366 184.6852417 67.62265015 C185.95681282 82.55485036 187.2693243 97.48309627 188.61465454 112.40884399 C189.47330991 121.93528798 190.29985776 131.46029756 191 141 C192.80017578 141.43699219 192.80017578 141.43699219 194.63671875 141.8828125 C203.41169012 144.03354952 212.13961908 146.27955247 220.8125 148.8125 C229.59903176 151.37572722 238.44325767 153.68122311 247.3125 155.9375 C257.72230352 158.58621632 268.05404414 161.42148247 278.34814453 164.49365234 C286.25443001 166.83303541 294.21980673 168.84829908 302.22802734 170.80566406 C308.55034673 172.36024838 314.81407881 174.04695558 321.0625 175.875 C330.4928873 178.63236424 339.99389511 181.08835627 349.51394653 183.51290894 C358.89127406 185.90316326 368.22395935 188.40521843 377.49414062 191.18554688 C382.00100656 192.5182427 386.32864364 193.45956383 391 194 C390.34 194.66 389.68 195.32 389 196 C388.79488286 198.43281306 388.71485712 200.75321594 388.7215271 203.18789673 C388.7128385 204.31139513 388.7128385 204.31139513 388.70397437 205.45759046 C388.68689875 207.98039623 388.68409142 210.50301991 388.68115234 213.02587891 C388.67185937 214.82911125 388.66169165 216.63233927 388.65071106 218.43556213 C388.62332582 223.34230281 388.60823649 228.24901464 388.59528303 233.15581179 C388.57968966 238.27947595 388.55288744 243.40308089 388.5272522 248.52670288 C388.48039703 258.23413071 388.4436856 267.94156959 388.41057932 277.64905298 C388.37240545 288.69850244 388.32298296 299.74789252 388.27259517 310.79729199 C388.16917513 333.53148402 388.07994758 356.26571417 388 379 C386.39577375 378.68611865 384.79192245 378.37032058 383.18823242 378.05371094 C382.29504807 377.87805603 381.40186371 377.70240112 380.48161316 377.52142334 C377.68794079 376.93443178 375.02053718 376.15136128 372.3125 375.25 C366.23851074 373.32061518 360.1112949 371.70360817 353.9375 370.125 C345.58023111 367.98326263 337.31541434 365.63967001 329.06811523 363.10986328 C324.07499714 361.58958851 319.07470263 360.21895189 314 359 C307.05604262 357.32001031 300.25213416 355.30141076 293.421875 353.2109375 C288.30751155 351.65780259 283.19520222 350.25690376 278 349 C271.05604262 347.32001031 264.25213416 345.30141076 257.421875 343.2109375 C252.30751155 341.65780259 247.19520222 340.25690376 242 339 C235.05604262 337.32001031 228.25213416 335.30141076 221.421875 333.2109375 C216.30751155 331.65780259 211.19520222 330.25690376 206 329 C199.05604262 327.32001031 192.25213416 325.30141076 185.421875 323.2109375 C180.30751155 321.65780259 175.19520222 320.25690376 170 319 C163.92989596 317.53142644 157.97137123 315.82747474 152 314 C146.11098949 312.19872753 140.23636389 310.5094116 134.25 309.0625 C127.58168367 307.44736006 121.01571272 305.57355627 114.4375 303.625 C105.29252384 300.91656011 96.11134534 298.42683741 86.87280273 296.05908203 C82.04158401 294.81439223 77.2554404 293.51451116 72.5 292 C65.76836509 289.85690355 58.94037773 288.11674215 52.09765625 286.36914062 C45.91228418 284.7834838 39.75480552 283.11104609 33.60424805 281.39624023 C32.77430077 281.16525383 31.94435349 280.93426743 31.08925629 280.69628143 C29.0593871 280.13127477 27.02967722 279.56569586 25 279 C22.41505039 255.31083428 20.10097511 231.61424037 18.10742188 207.86816406 C17.36730767 199.0544426 16.61141663 190.24206268 15.85546875 181.4296875 C15.77848125 180.53117821 15.70149376 179.63266891 15.62217331 178.70693207 C14.06651176 160.56955183 12.40566694 142.44265787 10.71599579 124.31734085 C8.14921723 96.77930015 5.67950399 69.23403296 3.29940796 41.67919922 C3.06357318 38.9499198 2.82723997 36.22068389 2.59082031 33.49145508 C2.22208604 29.23235932 1.85492968 24.97313058 1.48917961 20.71377754 C1.35429642 19.14433093 1.21903503 17.57491677 1.08337593 16.00553703 C0.89814919 13.8604871 0.71457297 11.71530254 0.53149414 9.57006836 C0.42825333 8.36700546 0.32501251 7.16394257 0.21864319 5.92442322 C0 3 0 3 0 0 Z " fill="#EAEAEA" transform="translate(611,1314)"/>
<path d="M0 0 C146.52 0 293.04 0 444 0 C444 12.37384773 444 12.37384773 443.54443359 17.30419922 C443.44344864 18.42464127 443.34246368 19.54508331 443.23841858 20.69947815 C443.07012794 22.48405678 443.07012794 22.48405678 442.8984375 24.3046875 C442.71894823 26.27693574 442.53946124 28.24918418 442.36005878 30.22144032 C442.16803487 32.32233086 441.9736163 34.42298712 441.7784729 36.52359009 C441.154715 43.23961428 440.54562418 49.95697872 439.93470955 56.67418098 C439.72109474 59.02106183 439.50686689 61.36788619 439.29258728 63.71470642 C438.2899189 74.71230577 437.32009446 85.71249023 436.37109375 96.71484375 C436.30519295 97.47810722 436.23929214 98.2413707 436.17139435 99.02776337 C435.59476909 105.70781866 435.01945612 112.38798556 434.44866943 119.06854248 C434.21232007 121.83473558 433.97488595 124.60083171 433.73634338 127.36683655 C433.52299229 129.84181777 433.3111027 132.31692593 433.10142517 134.79222107 C431.88367338 148.87820137 430.40723867 162.92761328 429 177 C287.43 177 145.86 177 0 177 C0 118.59 0 60.18 0 0 Z " fill="#FEFEFE" transform="translate(999,689)"/>
<path d="M0 0 C31.68 0 63.36 0 96 0 C101.61 9.24 107.22 18.48 113 28 C121.07828343 41.29699751 129.19131612 54.5703558 137.35571289 67.81445312 C142.29849556 75.84014001 147.18601009 83.89645031 152 92 C154.81749283 88.60069664 157.23563972 85.1523979 159.51171875 81.37109375 C160.17824463 80.26813965 160.84477051 79.16518555 161.53149414 78.02880859 C162.25017623 76.83171381 162.96884447 75.63461072 163.6875 74.4375 C164.44289134 73.18547627 165.19867655 71.9336901 165.95483398 70.68212891 C167.52518012 68.0821664 169.0938321 65.48119395 170.66113281 62.87939453 C174.28224104 56.87024239 177.92190382 50.87235811 181.5625 44.875 C181.90890533 44.30400574 182.25531067 43.73301147 182.61221313 43.14471436 C189.83982627 31.23247096 197.13981911 19.36528557 204.46044922 7.51000977 C205.98985006 5.01654797 207.49503012 2.50828314 209 0 C240.68 0 272.36 0 305 0 C305 89.1 305 178.2 305 270 C274.97 270 244.94 270 214 270 C213.67 227.1 213.34 184.2 213 140 C209.7 145.28 206.4 150.56 203 156 C200.53285158 159.82146602 198.05892632 163.63547141 195.5625 167.4375 C194.26668775 169.41781216 192.97111658 171.3982821 191.67578125 173.37890625 C190.73919678 174.81000732 190.73919678 174.81000732 189.78369141 176.27001953 C187.2610461 180.13098583 184.75325676 184.00144363 182.25 187.875 C181.81179932 188.55296631 181.37359863 189.23093262 180.92211914 189.92944336 C180.05147602 191.27677856 179.18095069 192.62418988 178.31054688 193.97167969 C176.50216813 196.77048942 174.69182209 199.56802411 172.88134766 202.36547852 C171.96937569 203.77469925 171.0575881 205.18403931 170.14599609 206.59350586 C167.73337679 210.32355942 165.3178214 214.05167366 162.8984375 217.77734375 C162.13950195 218.94716797 162.13950195 218.94716797 161.36523438 220.140625 C160.39081924 221.64247585 159.41559225 223.14380035 158.43945312 224.64453125 C156.08099098 228.24114893 156.08099098 228.24114893 154 232 C151.828125 231.99609375 151.828125 231.99609375 149 231 C146.8875662 228.58474049 145.36183978 225.82781 143.75 223.0625 C142.69659776 221.32525141 141.6404501 219.58966553 140.58203125 217.85546875 C140.01178223 216.91493652 139.4415332 215.9744043 138.85400391 215.00537109 C135.84459546 210.12707007 132.693799 205.34259761 129.54290771 200.55487061 C127.7083704 197.76695329 125.8800428 194.97497534 124.05078125 192.18359375 C123.35678223 191.1251123 122.6627832 190.06663086 121.94775391 188.97607422 C119.32700221 184.97169178 116.72215112 180.95721848 114.125 176.9375 C113.69654785 176.27451904 113.2680957 175.61153809 112.82666016 174.9284668 C111.08436276 172.23100636 109.34351065 169.5326156 107.60302734 166.83398438 C106.17355501 164.61803474 104.74303212 162.40276557 103.3125 160.1875 C102.89693848 159.54224365 102.48137695 158.8969873 102.05322266 158.23217773 C98.09906499 152.10978507 94.04448956 146.06673435 90 140 C89.67 182.9 89.34 225.8 89 270 C59.63 270 30.26 270 0 270 C0 180.9 0 91.8 0 0 Z " fill="#000000" transform="translate(1013,0)"/>
<path d="M0 0 C30.03 0 60.06 0 91 0 C91 29.37 91 58.74 91 89 C117.73 89 144.46 89 172 89 C172 59.63 172 30.26 172 0 C202.36 0 232.72 0 264 0 C264 89.1 264 178.2 264 270 C233.64 270 203.28 270 172 270 C172 240.3 172 210.6 172 180 C145.27 180 118.54 180 91 180 C91 209.7 91 239.4 91 270 C60.97 270 30.94 270 0 270 C0 180.9 0 91.8 0 0 Z " fill="#000000" transform="translate(423,0)"/>
<path d="M0 0 C71.94 0 143.88 0 218 0 C214.6381154 41.46324337 214.6381154 41.46324337 213.03707886 57.81088257 C210.56285842 83.14198663 208.37889458 108.49651387 206.20926666 133.85508728 C204.30217464 156.1450607 202.39311541 178.43241823 200.15405273 200.69213867 C199.18070772 210.45328648 198.50725041 220.20439696 198 230 C191.89754483 232.13804657 185.78690486 233.8743193 179.5 235.375 C173.11504748 236.93219005 166.78990527 238.59474033 160.5 240.5 C153.53198932 242.60787267 146.51241178 244.39773147 139.44140625 246.125 C134.08105344 247.44650454 128.78407002 248.90179357 123.5 250.5 C116.63239388 252.57715875 109.72066915 254.37797406 102.74023438 256.03710938 C97.43202938 257.32026325 92.20060918 258.81221766 86.96875 260.375 C77.47918344 263.2035146 67.90426951 265.63947371 58.30224609 268.05224609 C49.45264662 270.28087383 40.66766289 272.64124971 31.92253113 275.25164795 C26.41847162 276.89139051 20.89128492 278.38395406 15.3125 279.75 C14.48556641 279.95753906 13.65863281 280.16507813 12.80664062 280.37890625 C8.52743765 281.43930027 4.3686387 282.27189355 0 283 C0 189.61 0 96.22 0 0 Z " fill="#F16529" transform="translate(1000,1225)"/>
<path d="M0 0 C82.83 0 165.66 0 251 0 C251 59.73 251 119.46 251 181 C173.45 181 95.9 181 16 181 C13.11516782 150.42077886 10.24306775 119.85589155 7.64995193 89.25323868 C6.98842367 81.4587079 6.31969313 73.66479223 5.6484375 65.87109375 C5.54072745 64.62025025 5.54072745 64.62025025 5.43084145 63.34413719 C4.09664175 47.87926153 2.65799773 32.42601692 1.06616211 16.98535156 C0.99146698 16.25303818 0.91677185 15.52072479 0.83981323 14.76622009 C0.64835983 12.89696618 0.45248164 11.02816678 0.25610352 9.15942383 C0.00932798 6.11507478 0 3.05433451 0 0 Z " fill="#E44D26" transform="translate(749,866)"/>
<path d="M0 0 C82.5 0 165 0 250 0 C250 29.7 250 59.4 250 90 C223.6 90 197.2 90 170 90 C170 149.4 170 208.8 170 270 C139.97 270 109.94 270 79 270 C79 210.6 79 151.2 79 90 C52.93 90 26.86 90 0 90 C0 60.3 0 30.6 0 0 Z " fill="#000000" transform="translate(725,0)"/>
<path d="M0 0 C30.03 0 60.06 0 91 0 C91 59.4 91 118.8 91 180 C132.91 180 174.82 180 218 180 C218 209.7 218 239.4 218 270 C146.06 270 74.12 270 0 270 C0 180.9 0 91.8 0 0 Z " fill="#000000" transform="translate(1362,0)"/>
</svg>
