<?xml version="1.0" encoding="UTF-8"?>
<svg version="1.1" xmlns="http://www.w3.org/2000/svg" width="512" height="512">
<path d="M0 0 C2.02103232 -0.00300026 4.04206407 -0.00640475 6.06309509 -0.01017761 C11.50367923 -0.01893468 16.9442476 -0.02135222 22.3848381 -0.0219934 C25.79880686 -0.02270876 29.21277172 -0.0248522 32.6267395 -0.02749062 C44.57944997 -0.03671737 56.53214937 -0.04082896 68.48486328 -0.04003906 C79.55749073 -0.03943934 90.6300693 -0.0499773 101.7026844 -0.06578273 C111.26597379 -0.07893831 120.82924736 -0.08421961 130.3925457 -0.08358365 C136.07893474 -0.08333097 141.76528028 -0.08605338 147.45166016 -0.0967617 C224.89378451 -0.2322536 224.89378451 -0.2322536 252.25 18.15698242 C255.07733158 20.11107281 255.07733158 20.11107281 257.5 21.19604492 C260.28583552 22.68060201 261.80565312 25.03525898 263.71875 27.48901367 C265.18875697 29.24230234 265.18875697 29.24230234 267.234375 30.09838867 C277.94600183 35.5768543 284.75120948 52.75009283 288.59375 63.70776367 C294.19983295 81.36784428 294.72517715 99.48149331 294.66943359 117.86010742 C294.67351085 120.15422819 294.67885914 122.44834699 294.68536377 124.74246216 C294.69890597 130.90777129 294.69379345 137.07292788 294.68422651 143.23823929 C294.67656134 149.73060732 294.68369437 156.22296342 294.68838501 162.71533203 C294.69416977 174.30760443 294.68492367 185.89980805 294.669607 197.4920696 C294.6562078 207.95625414 294.65853712 218.42033875 294.67236328 228.88452148 C294.6884967 241.10026946 294.69435219 253.31594649 294.68552649 265.5317049 C294.68088099 271.97468268 294.68013816 278.41759198 294.69013596 284.86056519 C294.69888635 290.92158638 294.69263828 296.98242134 294.67545319 303.0434227 C294.67153103 305.25027026 294.67254769 307.45713386 294.67924118 309.66397476 C294.76298145 340.11105345 290.84646813 370.80765885 268.8581543 393.6940918 C245.20076506 417.39993638 216.55805422 423.49664657 183.91372681 423.55184937 C181.79266271 423.54602007 179.67159947 423.5398758 177.55053711 423.53344727 C175.25479383 423.53752449 172.95905251 423.54287275 170.66331482 423.54937744 C164.49394076 423.56291928 158.32471915 423.55780749 152.15534282 423.54824018 C145.6598376 423.54057574 139.1643443 423.54770776 132.6688385 423.55239868 C121.07210498 423.55818325 109.47544022 423.5489374 97.87871755 423.53362067 C87.40796207 423.52021829 76.93730643 423.52255347 66.46655273 423.53637695 C54.24458842 423.55250532 42.02269501 423.55836875 29.80072027 423.54954016 C23.35386199 423.5448928 16.90707216 423.54415719 10.46021843 423.55414963 C4.396738 423.56289369 -1.66655614 423.55666316 -7.73001671 423.53946686 C-9.93889687 423.53554158 -12.14779304 423.53656694 -14.35666656 423.54325485 C-47.28948055 423.63368088 -76.60789266 417.86477633 -101.46875 394.83276367 C-125.13729931 369.64475194 -128.04530029 337.14933854 -127.97753906 304.25830078 C-127.98025587 302.01724637 -127.98382064 299.77619285 -127.98815918 297.53514099 C-127.99720296 291.50217736 -127.99377243 285.46928285 -127.98740101 279.43631816 C-127.98229983 273.09154129 -127.98704376 266.74676992 -127.99017334 260.4019928 C-127.99403243 249.07284145 -127.9878593 237.74372486 -127.97765467 226.41458047 C-127.96871928 216.17822705 -127.97027603 205.94191901 -127.97949219 195.70556641 C-127.99023604 183.76713119 -127.99415778 171.82872345 -127.98826766 159.89028174 C-127.98516562 153.58936415 -127.98468975 147.28847771 -127.99134064 140.98756218 C-127.99715964 135.0620586 -127.99303464 129.13663991 -127.98155212 123.2111454 C-127.97892986 121.04938268 -127.97962844 118.8876127 -127.98407745 116.72585297 C-128.02587348 94.33637258 -126.48870152 72.66216187 -116.71875 52.14526367 C-116.30109375 51.24549805 -115.8834375 50.34573242 -115.453125 49.41870117 C-111.40051918 41.33678037 -105.75765734 34.79535952 -99.71875 28.14526367 C-99.03039062 27.38084961 -98.34203125 26.61643555 -97.6328125 25.82885742 C-95.54409871 23.99164183 -94.36418025 23.76560681 -91.71875 23.14526367 C-90.25914391 22.01095739 -88.84730357 20.81430366 -87.46875 19.58276367 C-62.93757191 -0.51115721 -30.08804004 -0.00903832 0 0 Z " fill="#240000" transform="translate(172.71875,48.854736328125)"/>
<path d="M0 0 C0.97125824 -0.01606293 1.94251648 -0.03212585 2.94320679 -0.04867554 C7.38937846 -0.09293354 11.83539812 -0.1341853 16.28173828 -0.15722656 C18.63112278 -0.17380357 20.98045649 -0.20111618 23.32958984 -0.23925781 C26.70648517 -0.29384636 30.08219636 -0.31587288 33.45947266 -0.33056641 C34.51266693 -0.35323578 35.56586121 -0.37590515 36.65097046 -0.39926147 C39.33487499 -0.39143668 41.80426099 -0.3320004 44.43603516 0.19287109 C46.48730469 2.34130859 46.48730469 2.34130859 47.43603516 5.19287109 C47.80535156 6.16144043 48.17466797 7.13000977 48.55517578 8.12792969 C48.89742188 9.18834473 49.23966797 10.24875977 49.59228516 11.34130859 C49.97513672 12.51177734 50.35798828 13.68224609 50.75244141 14.88818359 C51.14302734 16.10248047 51.53361328 17.31677734 51.93603516 18.56787109 C54.66612391 27.34568894 54.66612391 27.34568894 58.00244141 35.89990234 C60.30719766 41.19393375 61.96610977 46.70152861 63.74267578 52.19091797 C65.46327178 57.44467545 67.36444095 62.56760285 69.4519043 67.68579102 C71.46748454 72.82049542 73.09436903 78.09100822 74.79150391 83.33740234 C76.20405223 87.65174677 77.68609973 91.89639813 79.40478516 96.09912109 C82.09826408 102.7056696 84.23277702 109.48909214 86.43603516 116.27099609 C88.26608867 121.84694041 90.24621556 127.30072435 92.46728516 132.73193359 C94.48174908 137.8493218 96.09947405 143.1067895 97.79150391 148.33740234 C99.49145253 153.52955313 101.37115089 158.59388695 103.43212891 163.65283203 C105.17778533 168.06961447 106.68260751 172.56404063 108.18603516 177.06787109 C108.65976562 178.45232422 108.65976562 178.45232422 109.14306641 179.86474609 C109.44083984 180.75419922 109.73861328 181.64365234 110.04541016 182.56005859 C110.31321289 183.35524902 110.58101562 184.15043945 110.85693359 184.96972656 C111.43603516 187.19287109 111.43603516 187.19287109 111.43603516 191.19287109 C97.57603516 191.19287109 83.71603516 191.19287109 69.43603516 191.19287109 C64.62353516 177.13037109 64.62353516 177.13037109 63.12426758 172.7355957 C62.72570557 171.57552002 62.32714355 170.41544434 61.91650391 169.22021484 C61.51326904 168.04193115 61.11003418 166.86364746 60.69458008 165.6496582 C59.4020188 162.09943994 57.92941785 158.66283869 56.43603516 155.19287109 C54.95103516 151.23287109 54.95103516 151.23287109 53.43603516 147.19287109 C31.65603516 147.19287109 9.87603516 147.19287109 -12.56396484 147.19287109 C-15.13643131 153.62403726 -17.49971855 159.85254898 -19.50146484 166.44287109 C-26.54561474 189.17452099 -26.54561474 189.17452099 -28.56396484 191.19287109 C-31.37559864 191.28149102 -34.1625474 191.30809464 -36.97412109 191.29052734 C-37.81615585 191.2891124 -38.65819061 191.28769745 -39.52574158 191.28623962 C-42.22601819 191.28062373 -44.92621312 191.26806858 -47.62646484 191.25537109 C-49.45263552 191.25035814 -51.2788075 191.24579488 -53.10498047 191.24169922 C-57.59134027 191.23064914 -62.07763869 191.21337389 -66.56396484 191.19287109 C-66.42868276 189.76787459 -66.28675591 188.34350804 -66.14208984 186.91943359 C-66.0637793 186.12617676 -65.98546875 185.33291992 -65.90478516 184.515625 C-65.4948372 181.72175334 -64.58497954 179.2294658 -63.51708984 176.62255859 C-62.2355596 173.35570692 -61.15577172 170.02657614 -60.06396484 166.69287109 C-58.80845546 162.86195785 -57.52775138 159.05449063 -56.09521484 155.28662109 C-54.45560667 150.96325528 -53.00342818 146.58623315 -51.56396484 142.19287109 C-49.90430891 137.12746287 -48.17706691 132.10900542 -46.28271484 127.12646484 C-45.12432301 124.01013898 -44.09925648 120.85183789 -43.06396484 117.69287109 C-41.59159903 113.22771424 -40.06944145 108.79796957 -38.37646484 104.41162109 C-36.75108891 99.97309452 -35.31715415 95.46542308 -33.84521484 90.97412109 C-32.96819619 88.38584652 -32.06538093 85.83836002 -31.09521484 83.28662109 C-29.45560667 78.96325528 -28.00342818 74.58623315 -26.56396484 70.19287109 C-24.90430891 65.12746287 -23.17706691 60.10900542 -21.28271484 55.12646484 C-20.12432301 52.01013898 -19.09925648 48.85183789 -18.06396484 45.69287109 C-15.49144576 37.89134438 -15.49144576 37.89134438 -14.06396484 34.19287109 C-10.22876695 24.06794866 -7.13155594 14.62713549 -5.92333984 3.82568359 C-5.33606494 -0.47674339 -3.99407578 0.05978216 0 0 Z " fill="#FC8200" transform="translate(192.56396484375,146.80712890625)"/>
<path d="M0 0 C0 0.66 0 1.32 0 2 C-1.20739046 3.110682 -2.46734831 4.16465549 -3.75 5.1875 C-6.91258411 7.88401908 -9.11338091 10.3070877 -11.01171875 14.0703125 C-12.18869047 16.36843119 -13.5597629 18.5040483 -14.9375 20.6875 C-24.39309489 36.55003451 -28.16547871 54.58146215 -28.13371277 72.90322876 C-28.1371111 74.35649317 -28.1371111 74.35649317 -28.14057809 75.83911645 C-28.14688486 79.07065372 -28.14609086 82.30214869 -28.14526367 85.53369141 C-28.14825728 87.85695449 -28.15166028 90.18021707 -28.15544128 92.503479 C-28.16426607 98.80539986 -28.16661879 105.10730713 -28.16725707 111.40923357 C-28.16796857 115.3505559 -28.17010481 119.29187479 -28.17275429 123.23319626 C-28.18152644 136.28534541 -28.18617462 149.33748603 -28.18542381 162.38963814 C-28.18538386 163.09234173 -28.1853439 163.79504533 -28.18530273 164.51904297 C-28.18526185 165.22261293 -28.18522097 165.92618288 -28.18517885 166.65107314 C-28.1847728 178.041607 -28.19433339 189.43210774 -28.2084411 200.82263203 C-28.22283956 212.54118385 -28.22970934 224.25971955 -28.22884732 235.97828043 C-28.22859295 242.54809259 -28.2314104 249.11786728 -28.24202538 255.68767166 C-28.25174411 261.87156988 -28.2517597 268.05539509 -28.24450874 274.23929596 C-28.24346751 276.50067884 -28.2457982 278.76206635 -28.2518692 281.02344131 C-28.29076568 296.52397981 -27.72671286 311.09097578 -23 326 C-22.72414063 326.88042969 -22.44828125 327.76085937 -22.1640625 328.66796875 C-14.9356961 350.07505387 -0.86040343 366.46817747 18.84375 377.4375 C29.11587341 382.52270961 39.77069707 385.13055474 51 387 C52.02738722 387.17402721 53.05477444 387.34805443 54.1132946 387.52735519 C58.65775623 388.07998678 63.0874791 388.14492603 67.65994263 388.14044189 C68.61482508 388.14341302 69.56970752 388.14638414 70.55352581 388.1494453 C73.74418893 388.15809693 76.93481437 388.15963759 80.12548828 388.16113281 C82.41754231 388.16576375 84.70959558 388.17078878 87.00164795 388.17617798 C93.22558517 388.18928359 99.44951162 388.19574419 105.67346048 388.20018864 C109.5694369 388.20312434 113.4654104 388.20723024 117.36138535 388.21169281 C128.17378951 388.2238015 138.98619044 388.23418179 149.79860115 388.2375679 C150.48992875 388.23778747 151.18125636 388.23800703 151.89353328 388.23823325 C152.58641966 388.23845153 153.27930604 388.23866981 153.99318898 388.2388947 C155.39698927 388.23933815 156.80078956 388.23978471 158.20458984 388.24023438 C158.9009079 388.2404558 159.59722596 388.24067723 160.31464456 388.24090537 C171.56473186 388.2448424 182.81475395 388.26226291 194.06481613 388.2855939 C205.64889994 388.30942091 217.232948 388.32151808 228.81705654 388.32293582 C235.30720524 388.32397873 241.79726208 388.32977549 248.28738785 388.34775543 C254.40565741 388.36437468 260.52376744 388.36632515 266.6420517 388.35761642 C268.8714707 388.35685321 271.10089877 388.36109256 273.33029556 388.37107468 C303.38118362 388.49758891 330.86115809 384.71683229 354 364 C354.59683594 363.49597656 355.19367188 362.99195313 355.80859375 362.47265625 C372.84592909 347.0092087 380.15129455 323.27559995 382 301 C382.13278257 297.639457 382.14369394 294.2836619 382.14044189 290.92077637 C382.14341302 289.9450286 382.14638414 288.96928082 382.1494453 287.96396494 C382.15807318 284.71490006 382.15963552 281.46587228 382.16113281 278.21679688 C382.16576522 275.87854942 382.17079045 273.54030272 382.17617798 271.20205688 C382.18926432 264.86280786 382.19573972 258.52356942 382.20018864 252.18430901 C382.2031258 248.21766392 382.20723185 244.25102169 382.21169281 240.28437805 C382.22387859 229.27801416 382.23417892 218.27165217 382.2375679 207.26528168 C382.23778747 206.56214762 382.23800703 205.85901357 382.23823325 205.13457242 C382.23845153 204.42986061 382.23866981 203.7251488 382.2388947 202.99908209 C382.23933815 201.57132816 382.23978471 200.14357424 382.24023438 198.71582031 C382.2404558 198.00762156 382.24067723 197.2994228 382.24090537 196.56976348 C382.24484826 185.11017287 382.26228979 173.65064604 382.2855939 162.19108003 C382.30938747 150.39451105 382.3217734 138.59797397 382.32293582 126.80138063 C382.32384815 120.1906707 382.32981302 113.58003416 382.34775543 106.96934509 C382.36432298 100.74436139 382.36634967 94.51953459 382.35761642 88.29453659 C382.35685065 86.02150932 382.36112741 83.74847331 382.37107468 81.47546768 C382.46510564 58.63236508 379.87569716 37.88403091 367.76953125 18.0234375 C366 15 366 15 364.94921875 12.1640625 C364.47935547 11.09285156 364.47935547 11.09285156 364 10 C363.01 9.67 362.02 9.34 361 9 C360.3125 6.9375 360.3125 6.9375 360 5 C364.67767031 8.58144772 367.8794413 12.18750943 371.0625 17.125 C371.4958667 17.79168701 371.9292334 18.45837402 372.37573242 19.14526367 C377.56633743 27.27678785 380.99528469 35.4464931 383.6875 44.6875 C383.89028564 45.36917236 384.09307129 46.05084473 384.30200195 46.75317383 C388.46332911 61.93723982 388.29440355 77.54251318 388.2746582 93.1472168 C388.2790143 95.44059921 388.28420042 97.73398017 388.29014587 100.02735901 C388.30345192 106.21359128 388.30412385 112.39976215 388.30158257 118.58600593 C388.30050693 123.7717143 388.30541142 128.95741054 388.310188 134.1431163 C388.32188555 147.0881489 388.32107482 160.03314263 388.31463119 172.97817687 C388.30946778 184.16949796 388.32070889 195.36073186 388.33972941 206.55203571 C388.3591955 218.0957316 388.36705836 229.63937611 388.36360615 241.18308955 C388.36180354 247.64291578 388.36432639 254.10266218 388.37832069 260.5624752 C388.39100416 266.64393925 388.38885662 272.72523037 388.37590981 278.80669212 C388.37356703 281.02160199 388.3761947 283.23652442 388.38453293 285.45141983 C388.49085126 315.9219415 384.58358688 346.64327616 362.5769043 369.54882812 C338.91951506 393.25467271 310.27680422 399.3513829 277.63247681 399.40658569 C275.51141271 399.4007564 273.39034947 399.39461212 271.26928711 399.38818359 C268.97354383 399.39226082 266.67780251 399.39760908 264.38206482 399.40411377 C258.21269076 399.41765561 252.04346915 399.41254382 245.87409282 399.40297651 C239.3785876 399.39531207 232.8830943 399.40244409 226.3875885 399.40713501 C214.79085498 399.41291957 203.19419022 399.40367373 191.59746755 399.388357 C181.12671207 399.37495461 170.65605643 399.3772898 160.18530273 399.39111328 C147.96333842 399.40724165 135.74144501 399.41310508 123.51947027 399.40427649 C117.07261199 399.39962913 110.62582216 399.39889351 104.17896843 399.40888596 C98.115488 399.41763002 92.05219386 399.41139949 85.98873329 399.39420319 C83.77985313 399.3902779 81.57095696 399.39130327 79.36208344 399.39799118 C46.42926945 399.48841721 17.11085734 393.71951266 -7.75 370.6875 C-31.41854931 345.49948827 -34.32655029 313.00407486 -34.25878906 280.11303711 C-34.26150587 277.8719827 -34.26507064 275.63092918 -34.26940918 273.38987732 C-34.27845296 267.35691369 -34.27502243 261.32401918 -34.26865101 255.29105449 C-34.26354983 248.94627762 -34.26829376 242.60150625 -34.27142334 236.25672913 C-34.27528243 224.92757778 -34.2691093 213.59846119 -34.25890467 202.2693168 C-34.24996928 192.03296338 -34.25152603 181.79665534 -34.26074219 171.56030273 C-34.27148604 159.62186752 -34.27540778 147.68345978 -34.26951766 135.74501806 C-34.26641562 129.44410048 -34.26593975 123.14321403 -34.27259064 116.84229851 C-34.27840964 110.91679493 -34.27428464 104.99137624 -34.26280212 99.06588173 C-34.26017986 96.90411901 -34.26087844 94.74234903 -34.26532745 92.58058929 C-34.30712348 70.19110891 -32.76995152 48.5168982 -23 28 C-22.58234375 27.10023437 -22.1646875 26.20046875 -21.734375 25.2734375 C-18.632148 19.0868124 -7.58790631 0 0 0 Z " fill="#010000" transform="translate(79,73)"/>
<path d="M0 0 C13.53 0 27.06 0 41 0 C41 47.52 41 95.04 41 144 C27.8 144 14.6 144 1 144 C0 143 0 143 -0.12304783 140.64366817 C-0.12212604 139.59005879 -0.12120424 138.53644941 -0.12025452 137.45091248 C-0.12162918 136.24631378 -0.12300385 135.04171509 -0.12442017 133.8006134 C-0.12088056 132.45358252 -0.11724575 131.10655188 -0.11352539 129.75952148 C-0.11324352 128.35052492 -0.11340125 126.94152821 -0.1139679 125.53253174 C-0.11425589 121.6959237 -0.10835894 117.85934666 -0.10139394 114.02274585 C-0.09516063 110.01753059 -0.09455662 106.0123147 -0.09336853 102.00709534 C-0.09025515 94.41747996 -0.08204167 86.82787892 -0.07201904 79.23826987 C-0.06085812 70.59996076 -0.05534751 61.96165099 -0.05032361 53.32333648 C-0.03985906 35.5488812 -0.02151349 17.77444558 0 0 Z " fill="#FC8200" transform="translate(323,194)"/>
<path d="M0 0 C2 1 2 1 2.89794922 3.50927734 C3.19717285 4.6070752 3.49639648 5.70487305 3.8046875 6.8359375 C4.14113281 8.04636719 4.47757813 9.25679687 4.82421875 10.50390625 C5.17508281 11.79410683 5.52534011 13.08447256 5.875 14.375 C8.03275663 22.25942633 10.25714036 30.02556658 13.13378906 37.68066406 C14.18129751 40.48543583 15.07911412 43.3196209 15.9375 46.1875 C17.04804251 49.86727378 18.16645426 53.54310842 19.328125 57.20703125 C19.5537915 57.92028564 19.77945801 58.63354004 20.01196289 59.3684082 C20.45198667 60.75686054 20.89379208 62.1447499 21.33764648 63.53198242 C22.4418326 67.0287922 23.277771 70.38885498 24 74 C8.82 74 -6.36 74 -22 74 C-19.75650364 63.90426639 -19.75650364 63.90426639 -18.30078125 59.96875 C-17.98197998 59.08783691 -17.66317871 58.20692383 -17.3347168 57.29931641 C-16.99738525 56.37554199 -16.66005371 55.45176758 -16.3125 54.5 C-12.89688388 44.94254924 -9.99367409 35.31041462 -7.34692383 25.51367188 C-5.93336535 20.28354842 -4.44207665 15.12315918 -2.66015625 10.00561523 C-1.57728982 6.7157677 -0.79639462 3.36936184 0 0 Z " fill="#2B0300" transform="translate(212,182)"/>
<path d="M0 0 C7.15719444 -0.35022658 11.81301651 0.41275718 17.23828125 5.22265625 C22.3678571 10.23681664 23.3931046 14.31894016 23.61328125 21.34765625 C23.53913458 27.94670968 22.33080264 32.96503906 18.23828125 38.22265625 C11.41702542 43.9689671 4.91265644 44.68496517 -3.76171875 44.22265625 C-9.14676588 43.25158218 -13.18134812 41.41179307 -16.76171875 37.22265625 C-21.53086779 30.28302762 -21.85925776 22.38680607 -20.76171875 14.22265625 C-18.65285103 8.25064148 -14.32967942 4.1069602 -8.76171875 1.22265625 C-5.80876252 0.32990204 -3.06213784 0.24687674 0 0 Z " fill="#FC8200" transform="translate(342.76171875,132.77734375)"/>
<path d="" fill="#000000" transform="translate(0,0)"/>
<path d="" fill="#000000" transform="translate(0,0)"/>
<path d="" fill="#000000" transform="translate(0,0)"/>
<path d="" fill="#000000" transform="translate(0,0)"/>
<path d="" fill="#000000" transform="translate(0,0)"/>
<path d="" fill="#000000" transform="translate(0,0)"/>
<path d="" fill="#000000" transform="translate(0,0)"/>
<path d="" fill="#000000" transform="translate(0,0)"/>
<path d="" fill="#000000" transform="translate(0,0)"/>
<path d="" fill="#000000" transform="translate(0,0)"/>
<path d="" fill="#000000" transform="translate(0,0)"/>
</svg>
