<?xml version="1.0" encoding="UTF-8"?>
<svg version="1.1" xmlns="http://www.w3.org/2000/svg" width="512" height="512">
<path d="M0 0 C2.02103232 -0.00300026 4.04206407 -0.00640475 6.06309509 -0.01017761 C11.50367923 -0.01893468 16.9442476 -0.02135222 22.3848381 -0.0219934 C25.79880686 -0.02270876 29.21277172 -0.0248522 32.6267395 -0.02749062 C44.57944997 -0.03671737 56.53214937 -0.04082896 68.48486328 -0.04003906 C79.55749073 -0.03943934 90.6300693 -0.0499773 101.7026844 -0.06578273 C111.26597379 -0.07893831 120.82924736 -0.08421961 130.3925457 -0.08358365 C136.07893474 -0.08333097 141.76528028 -0.08605338 147.45166016 -0.0967617 C224.89378451 -0.2322536 224.89378451 -0.2322536 252.25 18.15698242 C255.07733158 20.11107281 255.07733158 20.11107281 257.5 21.19604492 C260.28583552 22.68060201 261.80565312 25.03525898 263.71875 27.48901367 C265.18875697 29.24230234 265.18875697 29.24230234 267.234375 30.09838867 C277.94600183 35.5768543 284.75120948 52.75009283 288.59375 63.70776367 C294.19983295 81.36784428 294.72517715 99.48149331 294.66943359 117.86010742 C294.67351085 120.15422819 294.67885914 122.44834699 294.68536377 124.74246216 C294.69890597 130.90777129 294.69379345 137.07292788 294.68422651 143.23823929 C294.67656134 149.73060732 294.68369437 156.22296342 294.68838501 162.71533203 C294.69416977 174.30760443 294.68492367 185.89980805 294.669607 197.4920696 C294.6562078 207.95625414 294.65853712 218.42033875 294.67236328 228.88452148 C294.6884967 241.10026946 294.69435219 253.31594649 294.68552649 265.5317049 C294.68088099 271.97468268 294.68013816 278.41759198 294.69013596 284.86056519 C294.69888635 290.92158638 294.69263828 296.98242134 294.67545319 303.0434227 C294.67153103 305.25027026 294.67254769 307.45713386 294.67924118 309.66397476 C294.76298145 340.11105345 290.84646813 370.80765885 268.8581543 393.6940918 C245.20076506 417.39993638 216.55805422 423.49664657 183.91372681 423.55184937 C181.79266271 423.54602007 179.67159947 423.5398758 177.55053711 423.53344727 C175.25479383 423.53752449 172.95905251 423.54287275 170.66331482 423.54937744 C164.49394076 423.56291928 158.32471915 423.55780749 152.15534282 423.54824018 C145.6598376 423.54057574 139.1643443 423.54770776 132.6688385 423.55239868 C121.07210498 423.55818325 109.47544022 423.5489374 97.87871755 423.53362067 C87.40796207 423.52021829 76.93730643 423.52255347 66.46655273 423.53637695 C54.24458842 423.55250532 42.02269501 423.55836875 29.80072027 423.54954016 C23.35386199 423.5448928 16.90707216 423.54415719 10.46021843 423.55414963 C4.396738 423.56289369 -1.66655614 423.55666316 -7.73001671 423.53946686 C-9.93889687 423.53554158 -12.14779304 423.53656694 -14.35666656 423.54325485 C-47.28948055 423.63368088 -76.60789266 417.86477633 -101.46875 394.83276367 C-125.13729931 369.64475194 -128.04530029 337.14933854 -127.97753906 304.25830078 C-127.98025587 302.01724637 -127.98382064 299.77619285 -127.98815918 297.53514099 C-127.99720296 291.50217736 -127.99377243 285.46928285 -127.98740101 279.43631816 C-127.98229983 273.09154129 -127.98704376 266.74676992 -127.99017334 260.4019928 C-127.99403243 249.07284145 -127.9878593 237.74372486 -127.97765467 226.41458047 C-127.96871928 216.17822705 -127.97027603 205.94191901 -127.97949219 195.70556641 C-127.99023604 183.76713119 -127.99415778 171.82872345 -127.98826766 159.89028174 C-127.98516562 153.58936415 -127.98468975 147.28847771 -127.99134064 140.98756218 C-127.99715964 135.0620586 -127.99303464 129.13663991 -127.98155212 123.2111454 C-127.97892986 121.04938268 -127.97962844 118.8876127 -127.98407745 116.72585297 C-128.02587348 94.33637258 -126.48870152 72.66216187 -116.71875 52.14526367 C-116.30109375 51.24549805 -115.8834375 50.34573242 -115.453125 49.41870117 C-111.40051918 41.33678037 -105.75765734 34.79535952 -99.71875 28.14526367 C-99.03039062 27.38084961 -98.34203125 26.61643555 -97.6328125 25.82885742 C-95.54409871 23.99164183 -94.36418025 23.76560681 -91.71875 23.14526367 C-90.25914391 22.01095739 -88.84730357 20.81430366 -87.46875 19.58276367 C-62.93757191 -0.51115721 -30.08804004 -0.00903832 0 0 Z " fill="#400012" transform="translate(172.71875,48.854736328125)"/>
<path d="M0 0 C13.53 0 27.06 0 41 0 C41 65.67 41 131.34 41 199 C25.97043568 204.78060166 25.97043568 204.78060166 19.5 206.1875 C18.85675781 206.33896484 18.21351563 206.49042969 17.55078125 206.64648438 C-9.06048952 212.69450046 -40.11940165 213.86349763 -64.19824219 199.19775391 C-79.83439193 188.80331615 -89.40492076 172.71691213 -93.40234375 154.57446289 C-94.41706659 148.50560787 -94.43316148 142.51426782 -94.375 136.375 C-94.38660156 135.14265625 -94.39820313 133.9103125 -94.41015625 132.640625 C-94.37547052 121.74930465 -92.27681771 112.57910117 -87.25 102.9375 C-86.90074463 102.25631104 -86.55148926 101.57512207 -86.19165039 100.87329102 C-76.64253172 82.62468094 -61.76399383 69.3935183 -42 63 C-40.19595703 62.41412109 -40.19595703 62.41412109 -38.35546875 61.81640625 C-24.87199159 58.05145466 -15.00545055 59 0 59 C0 39.53 0 20.06 0 0 Z " fill="#FC004F" transform="translate(317,131)"/>
<path d="M0 0 C0.82290527 0.00202423 1.64581055 0.00404846 2.49365234 0.00613403 C3.33331543 0.00517731 4.17297852 0.00422058 5.03808594 0.00323486 C6.81689529 0.00255306 8.59570712 0.00440737 10.37451172 0.00857544 C13.10699011 0.01392371 15.83930411 0.00863048 18.57177734 0.00222778 C20.29573604 0.00288856 22.01969464 0.00416973 23.74365234 0.00613403 C24.56655762 0.0041098 25.38946289 0.00208557 26.23730469 0 C32.0037018 0.02399599 32.0037018 0.02399599 33.11865234 1.13894653 C33.21635111 3.59265274 33.24861475 6.01817823 33.23890686 8.47233582 C33.23976129 9.24906519 33.24061571 10.02579456 33.24149603 10.82606119 C33.24315318 13.44868975 33.23762563 16.07125543 33.23217773 18.69387817 C33.23189589 20.56592304 33.23205355 22.43796802 33.23262024 24.31001282 C33.23290831 29.40897414 33.22701003 34.50791215 33.22004628 39.60686803 C33.21381434 44.92936286 33.21320907 50.25185816 33.21202087 55.57435608 C33.20890709 65.66079544 33.20069306 75.74722403 33.19067138 85.83365864 C33.17951172 97.31351032 33.17400017 108.79336252 33.16897595 120.27321827 C33.15851048 143.89513506 33.14016442 167.51703705 33.11865234 191.13894653 C19.91865234 191.13894653 6.71865234 191.13894653 -6.88134766 191.13894653 C-6.90389221 166.38329326 -6.92232538 141.62764826 -6.93315983 116.87198734 C-6.93832341 105.3783691 -6.94536729 93.88475767 -6.95678711 82.3911438 C-6.96673205 72.37719466 -6.97320063 62.36325045 -6.97543615 52.34929651 C-6.97674358 47.04349211 -6.97983147 41.73770182 -6.98707771 36.43190193 C-6.99383494 31.44403882 -6.99596523 26.45619573 -6.99445534 21.46832848 C-6.9947318 19.63204464 -6.99673868 17.79576018 -7.00055313 15.95948029 C-7.00548574 13.46374037 -7.00434756 10.96807729 -7.00160217 8.47233582 C-7.00451501 7.73596848 -7.00742786 6.99960115 -7.01042897 6.24091965 C-6.99127391 -0.14557518 -6.31090508 0.02626188 0 0 Z " fill="#FD004F" transform="translate(160.88134765625,146.86105346679688)"/>
<path d="M0 0 C-0.33 0.99 -0.66 1.98 -1 3 C-1.66 3 -2.32 3 -3 3 C-3.268125 3.61875 -3.53625 4.2375 -3.8125 4.875 C-5 7 -5 7 -8 9 C-8.97506703 10.61390404 -9.9397376 12.23553526 -10.8359375 13.89453125 C-12.11980098 16.21668701 -13.52638625 18.44057273 -14.9375 20.6875 C-19.80170561 28.84760311 -23.00357261 37.23542947 -25.25 46.4375 C-25.41322754 47.09242432 -25.57645508 47.74734863 -25.74462891 48.42211914 C-28.85716241 62.07715831 -28.14899213 76.40945822 -28.14526367 90.31933594 C-28.14826038 92.55965226 -28.15166408 94.79996806 -28.15544128 97.0402832 C-28.16423283 103.09418354 -28.16661733 109.14806972 -28.16725707 115.20197582 C-28.16797026 118.99242231 -28.17010966 122.78286525 -28.17275429 126.57331085 C-28.18151572 139.13802204 -28.18617599 151.70272525 -28.18542381 164.26743886 C-28.18538386 164.9426313 -28.1853439 165.61782374 -28.18530273 166.31347656 C-28.18526185 166.98950716 -28.18522097 167.66553776 -28.18517885 168.36205414 C-28.18477266 179.31052019 -28.19433958 190.25895182 -28.2084411 201.20740792 C-28.22285516 212.48881708 -28.22952602 223.77021002 -28.22884732 235.05163026 C-28.22859342 241.36939429 -28.23138496 247.68711929 -28.24202538 254.00487518 C-28.25176735 259.95082493 -28.25174404 265.89669881 -28.24450874 271.84265137 C-28.24347049 274.0124752 -28.24578012 276.18230391 -28.2518692 278.35211945 C-28.33511613 310.09749735 -23.95063953 339.29573419 -1 363 C22.18870647 385.13467436 51.03171285 388.48668053 81.67480469 388.37231445 C83.98821679 388.37474863 86.30162783 388.37847397 88.61503601 388.38337708 C94.83998346 388.39270193 101.06477135 388.38343309 107.28970623 388.37004495 C113.83427103 388.3586427 120.37882898 388.36284455 126.92340088 388.36479187 C137.90452561 388.36621208 148.88559153 388.35472698 159.86669922 388.33618164 C171.12941357 388.31716614 182.39205589 388.3101005 193.65478516 388.31567383 C207.28638639 388.32239959 220.91793985 388.31905906 234.54953766 388.30657005 C239.73414958 388.30194666 244.91874199 388.30104034 250.10335541 388.3031559 C256.21354664 388.30504988 262.32364651 388.29685014 268.43381691 388.2810955 C270.6657581 388.27688082 272.89770861 388.27598294 275.12965202 388.27878571 C305.27912019 388.3108824 332.80907311 383.75770757 355.69140625 362.33984375 C378.874454 338.84298148 382.48936735 309.72732345 382.37231445 278.24926758 C382.37474861 275.92762591 382.37847394 273.6059853 382.38337708 271.28434753 C382.3927027 265.03660661 382.38343213 258.78902465 382.37004495 252.54129624 C382.35980188 246.63996532 382.36235128 240.73864857 382.36424746 234.83731111 C382.36742315 223.14517635 382.35585047 211.45310291 382.33618164 199.76098633 C382.31717052 188.45660538 382.31009932 177.15229619 382.31567383 165.84790039 C382.32240173 152.16442379 382.3190558 138.48099478 382.30657005 124.79752159 C382.30194857 119.5941986 382.30103951 114.39089505 382.3031559 109.18757057 C382.30505114 103.05357391 382.29684059 96.91966815 382.2810955 90.78569221 C382.27688391 88.54610826 382.2759808 86.30651502 382.27878571 84.06692886 C382.30517373 59.21187743 380.09034792 35.86897982 365.78515625 14.7265625 C364 12 364 12 364 10 C363.01 9.67 362.02 9.34 361 9 C360.3125 6.9375 360.3125 6.9375 360 5 C364.67767031 8.58144772 367.8794413 12.18750943 371.0625 17.125 C371.4958667 17.79168701 371.9292334 18.45837402 372.37573242 19.14526367 C377.56633743 27.27678785 380.99528469 35.4464931 383.6875 44.6875 C383.89028564 45.36917236 384.09307129 46.05084473 384.30200195 46.75317383 C388.46332911 61.93723982 388.29440355 77.54251318 388.2746582 93.1472168 C388.2790143 95.44059921 388.28420042 97.73398017 388.29014587 100.02735901 C388.30345192 106.21359128 388.30412385 112.39976215 388.30158257 118.58600593 C388.30050693 123.7717143 388.30541142 128.95741054 388.310188 134.1431163 C388.32188555 147.0881489 388.32107482 160.03314263 388.31463119 172.97817687 C388.30946778 184.16949796 388.32070889 195.36073186 388.33972941 206.55203571 C388.3591955 218.0957316 388.36705836 229.63937611 388.36360615 241.18308955 C388.36180354 247.64291578 388.36432639 254.10266218 388.37832069 260.5624752 C388.39100416 266.64393925 388.38885662 272.72523037 388.37590981 278.80669212 C388.37356703 281.02160199 388.3761947 283.23652442 388.38453293 285.45141983 C388.49085126 315.9219415 384.58358688 346.64327616 362.5769043 369.54882812 C338.91951506 393.25467271 310.27680422 399.3513829 277.63247681 399.40658569 C275.51141271 399.4007564 273.39034947 399.39461212 271.26928711 399.38818359 C268.97354383 399.39226082 266.67780251 399.39760908 264.38206482 399.40411377 C258.21269076 399.41765561 252.04346915 399.41254382 245.87409282 399.40297651 C239.3785876 399.39531207 232.8830943 399.40244409 226.3875885 399.40713501 C214.79085498 399.41291957 203.19419022 399.40367373 191.59746755 399.388357 C181.12671207 399.37495461 170.65605643 399.3772898 160.18530273 399.39111328 C147.96333842 399.40724165 135.74144501 399.41310508 123.51947027 399.40427649 C117.07261199 399.39962913 110.62582216 399.39889351 104.17896843 399.40888596 C98.115488 399.41763002 92.05219386 399.41139949 85.98873329 399.39420319 C83.77985313 399.3902779 81.57095696 399.39130327 79.36208344 399.39799118 C46.42926945 399.48841721 17.11085734 393.71951266 -7.75 370.6875 C-31.41854931 345.49948827 -34.32655029 313.00407486 -34.25878906 280.11303711 C-34.26150587 277.8719827 -34.26507064 275.63092918 -34.26940918 273.38987732 C-34.27845296 267.35691369 -34.27502243 261.32401918 -34.26865101 255.29105449 C-34.26354983 248.94627762 -34.26829376 242.60150625 -34.27142334 236.25672913 C-34.27528243 224.92757778 -34.2691093 213.59846119 -34.25890467 202.2693168 C-34.24996928 192.03296338 -34.25152603 181.79665534 -34.26074219 171.56030273 C-34.27148604 159.62186752 -34.27540778 147.68345978 -34.26951766 135.74501806 C-34.26641562 129.44410048 -34.26593975 123.14321403 -34.27259064 116.84229851 C-34.27840964 110.91679493 -34.27428464 104.99137624 -34.26280212 99.06588173 C-34.26017986 96.90411901 -34.26087844 94.74234903 -34.26532745 92.58058929 C-34.30712348 70.19110891 -32.76995152 48.5168982 -23 28 C-22.58234375 27.10023437 -22.1646875 26.20046875 -21.734375 25.2734375 C-18.632148 19.0868124 -7.58790631 0 0 0 Z " fill="#010000" transform="translate(79,73)"/>
<path d="M0 0 C1.20785156 -0.00257813 2.41570312 -0.00515625 3.66015625 -0.0078125 C6.33734936 0.10067924 8.39047462 0.42736514 10.9375 1.125 C10.96062359 11.53842925 10.97841517 21.95185244 10.98931217 32.36530209 C10.99454097 37.20016827 11.00163854 42.03501694 11.01293945 46.86987305 C11.02376847 51.5317712 11.02977686 56.19365246 11.03237724 60.85556221 C11.03423147 62.63824288 11.03785203 64.42092259 11.04323006 66.20359612 C11.05044069 68.6916596 11.05149093 71.17965243 11.05102539 73.66772461 C11.05462067 74.41218842 11.05821594 75.15665222 11.06192017 75.92367554 C11.05155216 81.01094784 11.05155216 81.01094784 9.9375 82.125 C6.27889953 82.40814685 2.60572928 82.35695213 -1.0625 82.375 C-2.58810547 82.4059375 -2.58810547 82.4059375 -4.14453125 82.4375 C-14.54007645 82.49087892 -23.08996774 79.99942876 -31.0625 73.125 C-39.59001441 63.40363357 -42.4293872 50.89367408 -42.2734375 38.27734375 C-41.52855355 27.14546699 -36.94260943 17.55657325 -28.9375 9.8125 C-20.57979749 2.81469485 -10.72693384 -0.02294531 0 0 Z " fill="#420012" transform="translate(306.0625,223.875)"/>
<path d="" fill="#000000" transform="translate(0,0)"/>
<path d="" fill="#000000" transform="translate(0,0)"/>
<path d="" fill="#000000" transform="translate(0,0)"/>
<path d="" fill="#000000" transform="translate(0,0)"/>
<path d="" fill="#000000" transform="translate(0,0)"/>
<path d="" fill="#000000" transform="translate(0,0)"/>
<path d="" fill="#000000" transform="translate(0,0)"/>
<path d="" fill="#000000" transform="translate(0,0)"/>
<path d="" fill="#000000" transform="translate(0,0)"/>
<path d="" fill="#000000" transform="translate(0,0)"/>
<path d="" fill="#000000" transform="translate(0,0)"/>
</svg>
