<?xml version="1.0" standalone="no"?>
<!DOCTYPE svg PUBLIC "-//W3C//DTD SVG 20010904//EN"
 "http://www.w3.org/TR/2001/REC-SVG-20010904/DTD/svg10.dtd">
<svg version="1.0" xmlns="http://www.w3.org/2000/svg"
 width="526.000000pt" height="741.000000pt" viewBox="0 0 526.000000 741.000000"
 preserveAspectRatio="xMidYMid meet">

<g transform="translate(0.000000,741.000000) scale(0.100000,-0.100000)"
fill="#000000" stroke="none">
<path d="M2140 7075 l0 -335 -235 0 -235 0 0 -165 0 -165 400 0 400 0 0 500 0
500 -165 0 -165 0 0 -335z"/>
<path d="M2640 7291 l0 -119 123 -133 c67 -73 168 -183 223 -244 l102 -110
-224 -3 -224 -2 0 -135 0 -135 465 0 465 0 0 118 0 117 -224 240 -223 240 214
3 213 2 0 140 0 140 -455 0 -455 0 0 -119z"/>
</g>
</svg>
