<?xml version="1.0" encoding="UTF-8"?>
<svg version="1.1" xmlns="http://www.w3.org/2000/svg" width="512" height="512">
<path d="M0 0 C2.02103232 -0.00300026 4.04206407 -0.00640475 6.06309509 -0.01017761 C11.50367923 -0.01893468 16.9442476 -0.02135222 22.3848381 -0.0219934 C25.79880686 -0.02270876 29.21277172 -0.0248522 32.6267395 -0.02749062 C44.57944997 -0.03671737 56.53214937 -0.04082896 68.48486328 -0.04003906 C79.55749073 -0.03943934 90.6300693 -0.0499773 101.7026844 -0.06578273 C111.26597379 -0.07893831 120.82924736 -0.08421961 130.3925457 -0.08358365 C136.07893474 -0.08333097 141.76528028 -0.08605338 147.45166016 -0.0967617 C224.89378451 -0.2322536 224.89378451 -0.2322536 252.25 18.15698242 C255.07733158 20.11107281 255.07733158 20.11107281 257.5 21.19604492 C260.28583552 22.68060201 261.80565312 25.03525898 263.71875 27.48901367 C265.18875697 29.24230234 265.18875697 29.24230234 267.234375 30.09838867 C277.94600183 35.5768543 284.75120948 52.75009283 288.59375 63.70776367 C294.19983295 81.36784428 294.72517715 99.48149331 294.66943359 117.86010742 C294.67351085 120.15422819 294.67885914 122.44834699 294.68536377 124.74246216 C294.69890597 130.90777129 294.69379345 137.07292788 294.68422651 143.23823929 C294.67656134 149.73060732 294.68369437 156.22296342 294.68838501 162.71533203 C294.69416977 174.30760443 294.68492367 185.89980805 294.669607 197.4920696 C294.6562078 207.95625414 294.65853712 218.42033875 294.67236328 228.88452148 C294.6884967 241.10026946 294.69435219 253.31594649 294.68552649 265.5317049 C294.68088099 271.97468268 294.68013816 278.41759198 294.69013596 284.86056519 C294.69888635 290.92158638 294.69263828 296.98242134 294.67545319 303.0434227 C294.67153103 305.25027026 294.67254769 307.45713386 294.67924118 309.66397476 C294.76298145 340.11105345 290.84646813 370.80765885 268.8581543 393.6940918 C245.20076506 417.39993638 216.55805422 423.49664657 183.91372681 423.55184937 C181.79266271 423.54602007 179.67159947 423.5398758 177.55053711 423.53344727 C175.25479383 423.53752449 172.95905251 423.54287275 170.66331482 423.54937744 C164.49394076 423.56291928 158.32471915 423.55780749 152.15534282 423.54824018 C145.6598376 423.54057574 139.1643443 423.54770776 132.6688385 423.55239868 C121.07210498 423.55818325 109.47544022 423.5489374 97.87871755 423.53362067 C87.40796207 423.52021829 76.93730643 423.52255347 66.46655273 423.53637695 C54.24458842 423.55250532 42.02269501 423.55836875 29.80072027 423.54954016 C23.35386199 423.5448928 16.90707216 423.54415719 10.46021843 423.55414963 C4.396738 423.56289369 -1.66655614 423.55666316 -7.73001671 423.53946686 C-9.93889687 423.53554158 -12.14779304 423.53656694 -14.35666656 423.54325485 C-47.28948055 423.63368088 -76.60789266 417.86477633 -101.46875 394.83276367 C-125.13729931 369.64475194 -128.04530029 337.14933854 -127.97753906 304.25830078 C-127.98025587 302.01724637 -127.98382064 299.77619285 -127.98815918 297.53514099 C-127.99720296 291.50217736 -127.99377243 285.46928285 -127.98740101 279.43631816 C-127.98229983 273.09154129 -127.98704376 266.74676992 -127.99017334 260.4019928 C-127.99403243 249.07284145 -127.9878593 237.74372486 -127.97765467 226.41458047 C-127.96871928 216.17822705 -127.97027603 205.94191901 -127.97949219 195.70556641 C-127.99023604 183.76713119 -127.99415778 171.82872345 -127.98826766 159.89028174 C-127.98516562 153.58936415 -127.98468975 147.28847771 -127.99134064 140.98756218 C-127.99715964 135.0620586 -127.99303464 129.13663991 -127.98155212 123.2111454 C-127.97892986 121.04938268 -127.97962844 118.8876127 -127.98407745 116.72585297 C-128.02587348 94.33637258 -126.48870152 72.66216187 -116.71875 52.14526367 C-116.30109375 51.24549805 -115.8834375 50.34573242 -115.453125 49.41870117 C-111.40051918 41.33678037 -105.75765734 34.79535952 -99.71875 28.14526367 C-99.03039062 27.38084961 -98.34203125 26.61643555 -97.6328125 25.82885742 C-95.54409871 23.99164183 -94.36418025 23.76560681 -91.71875 23.14526367 C-90.25914391 22.01095739 -88.84730357 20.81430366 -87.46875 19.58276367 C-62.93757191 -0.51115721 -30.08804004 -0.00903832 0 0 Z " fill="#001126" transform="translate(172.71875,48.854736328125)"/>
<path d="M0 0 C9.65007186 -0.06996676 19.30005442 -0.12304559 28.95032597 -0.15543652 C33.43287778 -0.17099411 37.91525418 -0.19204776 42.39770508 -0.22631836 C46.73549016 -0.25926977 51.07310811 -0.27692717 55.41100883 -0.28463173 C57.05375227 -0.29011183 58.6964881 -0.30080986 60.33915901 -0.31719017 C80.55058616 -0.51044549 99.86380553 2.9466241 116 16 C116.77988281 16.60585937 117.55976563 17.21171875 118.36328125 17.8359375 C129.25218442 26.80326953 133.44131202 37.80932597 137 51 C137.17958252 51.65460205 137.35916504 52.3092041 137.54418945 52.98364258 C141.35769848 69.85336462 135.88282389 88.69655524 127 103 C115.97830589 117.62951484 101.37891515 124.28562104 84 129 C82.7931958 129.34369629 81.5863916 129.68739258 80.34301758 130.04150391 C75.96345544 131.12811445 71.83772318 131.25775611 67.34375 131.1953125 C66.64411133 131.19329834 65.94447266 131.19128418 65.22363281 131.18920898 C62.64902035 131.17886805 60.07450248 131.15094709 57.5 131.125 C48.8375 131.063125 48.8375 131.063125 40 131 C40 151.13 40 171.26 40 192 C30.3784375 192.0309375 30.3784375 192.0309375 20.5625 192.0625 C18.53552979 192.071604 16.50855957 192.08070801 14.42016602 192.09008789 C12.8230801 192.09300703 11.22599345 192.09555559 9.62890625 192.09765625 C8.79194214 192.10277222 7.95497803 192.10788818 7.09265137 192.11315918 C5.06141735 192.11346924 3.03027529 192.06240188 1 192 C-0.70589706 190.29410294 -0.12229238 188.14723106 -0.12908131 185.87185377 C-0.12616847 185.13159549 -0.12325563 184.3913372 -0.12025452 183.62864685 C-0.12110894 182.84783392 -0.12196337 182.067021 -0.12284368 181.26254708 C-0.12450086 178.6260991 -0.11897326 175.98971368 -0.11352539 173.35327148 C-0.11324354 171.47137453 -0.1134012 169.58947746 -0.1139679 167.70758057 C-0.11425597 162.58176065 -0.10835767 157.45596392 -0.10139394 152.33014941 C-0.09516202 146.97962736 -0.09455673 141.62910483 -0.09336853 136.27857971 C-0.09025474 126.13901642 -0.0820407 115.99946386 -0.07201904 105.8599053 C-0.06085939 94.31959526 -0.05534783 82.77928472 -0.05032361 71.23897064 C-0.03985813 47.49264114 -0.02225776 23.74632117 0 0 Z " fill="#2199FC" transform="translate(133,147)"/>
<path d="M0 0 C1.11012451 0.0038974 1.11012451 0.0038974 2.24267578 0.00787354 C30.91186752 0.16186752 30.91186752 0.16186752 38.3125 7.5625 C38.48745606 10.07170846 38.54419569 12.46874941 38.5078125 14.9765625 C38.5049826 15.70620209 38.50215271 16.43584167 38.49923706 17.18759155 C38.48803002 19.52106028 38.4629251 21.85414703 38.4375 24.1875 C38.42747085 25.76822363 38.41834489 27.34895327 38.41015625 28.9296875 C38.38808905 32.80743914 38.35355615 36.68490478 38.3125 40.5625 C29.76117272 39.58596986 29.76117272 39.58596986 26.2421875 38.40625 C25.23865234 38.07947266 25.23865234 38.07947266 24.21484375 37.74609375 C23.54582031 37.52050781 22.87679687 37.29492188 22.1875 37.0625 C14.07441073 34.35813691 6.8211799 33.36255106 -1.6875 33.3125 C-2.5640625 33.291875 -3.440625 33.27125 -4.34375 33.25 C-9.5686868 33.21852448 -13.16373062 33.65032346 -17.6875 36.5625 C-19.95958703 38.42962029 -19.95958703 38.42962029 -20.0625 41.375 C-19.58699507 45.41679188 -18.49803279 46.63560757 -15.6875 49.5625 C-13.25011009 51.14947993 -10.69286843 52.39078795 -8.0625 53.625 C-7.34320313 53.97369141 -6.62390625 54.32238281 -5.8828125 54.68164062 C-2.19969643 56.4470191 1.49807028 58.09791521 5.3125 59.5625 C16.61112183 63.91399625 27.42480929 69.21756903 36.3125 77.5625 C36.90546875 78.11421875 37.4984375 78.6659375 38.109375 79.234375 C45.53962594 86.95889331 46.66694409 96.12667717 46.69287109 106.37255859 C46.43422031 118.46093001 42.00196836 127.53377578 33.77734375 136.23828125 C20.28634973 148.95958306 1.05515217 150.81147818 -16.625 150.875 C-17.31836456 150.87761841 -18.01172913 150.88023682 -18.72610474 150.88293457 C-32.34960546 150.88845663 -44.69445618 149.66042389 -56.6875 142.5625 C-57.6875 141.5625 -57.6875 141.5625 -57.80102539 138.23608398 C-57.80086629 136.76024444 -57.79517314 135.28439931 -57.78515625 133.80859375 C-57.78303383 132.64542381 -57.78303383 132.64542381 -57.78086853 131.45875549 C-57.77525345 128.97246506 -57.76269846 126.4862634 -57.75 124 C-57.74498694 122.31836067 -57.7404237 120.63671994 -57.73632812 118.95507812 C-57.72527913 114.82418434 -57.70800445 110.69335724 -57.6875 106.5625 C-54.0312125 107.23348278 -51.26901873 108.15439887 -48 109.9375 C-36.72034903 115.7365479 -25.56297502 116.74823021 -13.0625 116.8125 C-12.051875 116.833125 -11.04125 116.85375 -10 116.875 C-4.4672979 116.90404306 -0.44285447 116.73273631 4.3125 113.5625 C6.61351076 111.635388 6.61351076 111.635388 6.9375 108.3125 C6.24464723 104.15538339 5.92209196 103.78628074 2.75 101.375 C1.28741568 100.41183471 -0.19149083 99.4728828 -1.6875 98.5625 C-2.739375 97.881875 -3.79125 97.20125 -4.875 96.5 C-8.01123305 94.76942095 -11.26920709 93.55645771 -14.625 92.3125 C-31.03304141 86.15474774 -47.81079786 78.49309687 -55.5625 61.8125 C-59.82581678 51.93063991 -60.43497051 40.13098707 -56.78515625 29.89453125 C-50.95335792 17.50455402 -40.55042266 8.16157579 -27.74169922 3.48754883 C-18.32570041 0.55780307 -9.79606558 -0.11428378 0 0 Z " fill="#2199FC" transform="translate(345.6875,190.4375)"/>
<path d="M0 0 C-0.33 0.99 -0.66 1.98 -1 3 C-1.66 3 -2.32 3 -3 3 C-3.268125 3.61875 -3.53625 4.2375 -3.8125 4.875 C-5 7 -5 7 -8 9 C-8.97715248 10.61735583 -9.94336511 12.24282195 -10.83984375 13.90625 C-11.63966535 15.34969908 -12.48984389 16.76598818 -13.37890625 18.15625 C-28.19152145 41.36139131 -28.14814803 67.0306397 -28.16113281 93.62817383 C-28.16577188 95.86568786 -28.17079797 98.10320112 -28.17617798 100.3407135 C-28.18919425 106.37390692 -28.195725 112.40708927 -28.20018864 118.4402945 C-28.20313528 122.22021965 -28.20724283 126.00014188 -28.21169281 129.78006554 C-28.22377874 140.28487519 -28.23416984 150.78968311 -28.2375679 161.2944994 C-28.23778747 161.96370837 -28.23800703 162.63291735 -28.23823325 163.32240538 C-28.23845153 163.99302009 -28.23866981 164.6636348 -28.2388947 165.35457116 C-28.23933814 166.71302466 -28.2397847 168.07147815 -28.24023438 169.42993164 C-28.2404558 170.10374112 -28.24067723 170.77755059 -28.24090537 171.47177853 C-28.24485238 182.38638616 -28.26231348 193.30092701 -28.2855939 204.21550886 C-28.30940676 215.4721617 -28.32151699 226.72878232 -28.32293582 237.98546427 C-28.32397857 244.2853859 -28.32977341 250.58521287 -28.34775543 256.88511086 C-28.36435261 262.81389582 -28.36633562 268.74251609 -28.35761642 274.67131615 C-28.3568524 276.83224304 -28.36110362 278.99317923 -28.37107468 281.15408325 C-28.49876682 310.57992264 -23.74402824 339.50217064 -2.54345703 361.47998047 C23.02588421 386.66104952 55.21404801 388.31906286 89.3034668 388.2746582 C91.55319384 388.27901867 93.8029194 388.28420619 96.05264282 388.29014587 C102.09582062 388.3033985 108.13893538 388.30413044 114.18212485 388.30158257 C119.25155656 388.30050422 124.32097596 388.30541772 129.390405 388.310188 C142.03776381 388.32186264 154.68508448 388.32108532 167.33244268 388.31463119 C178.2700455 388.30945789 189.20755937 388.32073892 200.1451446 388.33972941 C211.43472691 388.3591778 222.72426844 388.36706176 234.01387149 388.36360615 C240.3287698 388.36180245 246.64358647 388.36433843 252.9584713 388.37832069 C258.89553723 388.39097844 264.8324258 388.38888038 270.76948929 388.37590981 C272.93406169 388.37356233 275.0986469 388.37621212 277.26320457 388.38453293 C306.69877988 388.48943661 334.61230986 383.31869965 356.28515625 361.875 C364.49585485 353.17992925 370.15626124 343.83833974 375 333 C375.40089844 332.13246094 375.80179687 331.26492188 376.21484375 330.37109375 C382.98179938 314.05379318 382.44272677 295.24996684 382.40405273 277.92382812 C382.40977043 275.57897113 382.41674003 273.23411691 382.42485046 270.88926697 C382.44264005 264.5814175 382.44164075 258.27370821 382.43590808 251.96584129 C382.43240069 246.00292091 382.44040643 240.04001715 382.44726873 234.07710201 C382.46093085 221.54793008 382.45559996 209.01882097 382.44408352 196.48965055 C382.43415104 185.07478548 382.44710327 173.66008251 382.47101771 162.24524242 C382.49550742 150.46524664 382.50499289 138.68532606 382.49836498 126.90530539 C382.49489543 120.31533305 382.49729774 113.7254692 382.51461601 107.13551331 C382.53019936 100.93658051 382.5260043 94.73795505 382.50731087 88.53903389 C382.50365668 86.28016273 382.50663935 84.02126819 382.51719666 81.76241875 C382.62203382 57.45330109 379.00510465 35.72952553 365.79296875 14.984375 C364 12 364 12 364 10 C363.01 9.67 362.02 9.34 361 9 C360.3125 6.9375 360.3125 6.9375 360 5 C364.67767031 8.58144772 367.8794413 12.18750943 371.0625 17.125 C371.4958667 17.79168701 371.9292334 18.45837402 372.37573242 19.14526367 C377.56633743 27.27678785 380.99528469 35.4464931 383.6875 44.6875 C383.89028564 45.36917236 384.09307129 46.05084473 384.30200195 46.75317383 C388.46332911 61.93723982 388.29440355 77.54251318 388.2746582 93.1472168 C388.2790143 95.44059921 388.28420042 97.73398017 388.29014587 100.02735901 C388.30345192 106.21359128 388.30412385 112.39976215 388.30158257 118.58600593 C388.30050693 123.7717143 388.30541142 128.95741054 388.310188 134.1431163 C388.32188555 147.0881489 388.32107482 160.03314263 388.31463119 172.97817687 C388.30946778 184.16949796 388.32070889 195.36073186 388.33972941 206.55203571 C388.3591955 218.0957316 388.36705836 229.63937611 388.36360615 241.18308955 C388.36180354 247.64291578 388.36432639 254.10266218 388.37832069 260.5624752 C388.39100416 266.64393925 388.38885662 272.72523037 388.37590981 278.80669212 C388.37356703 281.02160199 388.3761947 283.23652442 388.38453293 285.45141983 C388.49085126 315.9219415 384.58358688 346.64327616 362.5769043 369.54882812 C338.91951506 393.25467271 310.27680422 399.3513829 277.63247681 399.40658569 C275.51141271 399.4007564 273.39034947 399.39461212 271.26928711 399.38818359 C268.97354383 399.39226082 266.67780251 399.39760908 264.38206482 399.40411377 C258.21269076 399.41765561 252.04346915 399.41254382 245.87409282 399.40297651 C239.3785876 399.39531207 232.8830943 399.40244409 226.3875885 399.40713501 C214.79085498 399.41291957 203.19419022 399.40367373 191.59746755 399.388357 C181.12671207 399.37495461 170.65605643 399.3772898 160.18530273 399.39111328 C147.96333842 399.40724165 135.74144501 399.41310508 123.51947027 399.40427649 C117.07261199 399.39962913 110.62582216 399.39889351 104.17896843 399.40888596 C98.115488 399.41763002 92.05219386 399.41139949 85.98873329 399.39420319 C83.77985313 399.3902779 81.57095696 399.39130327 79.36208344 399.39799118 C46.42926945 399.48841721 17.11085734 393.71951266 -7.75 370.6875 C-31.41854931 345.49948827 -34.32655029 313.00407486 -34.25878906 280.11303711 C-34.26150587 277.8719827 -34.26507064 275.63092918 -34.26940918 273.38987732 C-34.27845296 267.35691369 -34.27502243 261.32401918 -34.26865101 255.29105449 C-34.26354983 248.94627762 -34.26829376 242.60150625 -34.27142334 236.25672913 C-34.27528243 224.92757778 -34.2691093 213.59846119 -34.25890467 202.2693168 C-34.24996928 192.03296338 -34.25152603 181.79665534 -34.26074219 171.56030273 C-34.27148604 159.62186752 -34.27540778 147.68345978 -34.26951766 135.74501806 C-34.26641562 129.44410048 -34.26593975 123.14321403 -34.27259064 116.84229851 C-34.27840964 110.91679493 -34.27428464 104.99137624 -34.26280212 99.06588173 C-34.26017986 96.90411901 -34.26087844 94.74234903 -34.26532745 92.58058929 C-34.30712348 70.19110891 -32.76995152 48.5168982 -23 28 C-22.58234375 27.10023437 -22.1646875 26.20046875 -21.734375 25.2734375 C-18.632148 19.0868124 -7.58790631 0 0 0 Z " fill="#000001" transform="translate(79,73)"/>
<path d="M0 0 C7.3940625 -0.061875 7.3940625 -0.061875 14.9375 -0.125 C16.47398193 -0.14320801 18.01046387 -0.16141602 19.59350586 -0.18017578 C32.24938356 -0.23131064 41.39518307 1.11945135 51.05078125 9.85546875 C57.86009218 16.91854282 58.49050577 24.46917671 58.3203125 34 C57.60284367 40.71970803 54.87748908 47.25799673 50 52 C44.83614899 56.08447123 39.59016247 57.91539485 33.22265625 59.421875 C31.04254629 59.78867481 31.04254629 59.78867481 30 61 C23.66174414 61.89200429 17.456194 62.15508797 11.0625 62.125 C10.21365234 62.12886719 9.36480469 62.13273437 8.49023438 62.13671875 C7.68005859 62.13542969 6.86988281 62.13414062 6.03515625 62.1328125 C5.3069165 62.13168457 4.57867676 62.13055664 3.82836914 62.12939453 C2 62 2 62 0 61 C0 40.87 0 20.74 0 0 Z " fill="#001228" transform="translate(173,182)"/>
<path d="" fill="#000000" transform="translate(0,0)"/>
<path d="" fill="#000000" transform="translate(0,0)"/>
<path d="" fill="#000000" transform="translate(0,0)"/>
<path d="" fill="#000000" transform="translate(0,0)"/>
<path d="" fill="#000000" transform="translate(0,0)"/>
<path d="" fill="#000000" transform="translate(0,0)"/>
<path d="" fill="#000000" transform="translate(0,0)"/>
<path d="" fill="#000000" transform="translate(0,0)"/>
<path d="" fill="#000000" transform="translate(0,0)"/>
<path d="" fill="#000000" transform="translate(0,0)"/>
<path d="" fill="#000000" transform="translate(0,0)"/>
</svg>
