<?xml version="1.0" encoding="UTF-8"?>
<svg version="1.1" xmlns="http://www.w3.org/2000/svg" width="512" height="512">
<path d="M0 0 C1.98180168 -0.00135935 3.9636031 -0.00314225 5.94540405 -0.00531006 C11.26770538 -0.009821 16.58998705 -0.00812125 21.91228867 -0.00493097 C27.51940712 -0.00237427 33.12652405 -0.00475404 38.73364258 -0.00631714 C48.14437152 -0.00812925 57.55509257 -0.00575776 66.96582031 -0.00097656 C77.79888319 0.0044642 88.63192724 0.00270086 99.46498966 -0.00280297 C108.81676169 -0.00736149 118.16852809 -0.0079713 127.52030087 -0.0053643 C133.0834935 -0.00381654 138.64667733 -0.00356612 144.20986938 -0.00690079 C149.44345594 -0.00981956 154.67701856 -0.00773133 159.91060257 -0.00200653 C161.81513047 -0.00070019 163.71966043 -0.00103616 165.62418747 -0.0032692 C174.96975029 -0.01320463 184.29103894 0.09027688 193.6262207 0.55935669 C194.37583415 0.59599769 195.1254476 0.63263868 195.8977766 0.67039001 C222.38651092 2.15882278 246.18516446 10.92950382 264.73046875 30.44189453 C287.0243656 56.13778213 288.74795628 87.80747532 288.67675781 120.19189453 C288.67947691 122.30867634 288.68304293 124.42545721 288.68737793 126.54223633 C288.69639507 132.22406392 288.69300236 137.90581782 288.68661976 143.58764648 C288.68150382 149.57552264 288.68626657 155.56339309 288.68939209 161.55126953 C288.6930156 171.60076004 288.68827526 181.65022102 288.67871094 191.69970703 C288.66782954 203.26555753 288.67135627 214.83133748 288.68236375 226.39718628 C288.69148288 236.38427325 288.69269941 246.37133916 288.68748641 256.35842896 C288.68439201 262.29837192 288.68388684 268.2382819 288.69055939 274.17822266 C288.69640003 279.76644135 288.69221508 285.35457039 288.68077087 290.94277954 C288.67815979 292.97547254 288.67882725 295.00817328 288.6832962 297.04086304 C288.75210647 331.56107641 284.70523385 362.39969638 260.23046875 388.69189453 C249.95692742 398.54800077 237.12090179 405.12325333 223.79296875 409.81689453 C220.44591818 410.91919276 220.44591818 410.91919276 218.22265625 412.91845703 C201.81865742 425.84974302 177.899996 434.10652982 157.41796875 437.12939453 C156.21720703 437.32082031 156.21720703 437.32082031 154.9921875 437.51611328 C126.30471344 441.22860992 98.67480371 434.91654606 75.67578125 417.25830078 C75.26070312 416.88576172 74.845625 416.51322266 74.41796875 416.12939453 C74.41796875 415.79939453 74.41796875 415.46939453 74.41796875 415.12939453 C73.20148651 415.12130768 71.98500427 415.11322083 70.73165894 415.10488892 C59.17153579 415.02682854 47.61152176 414.93894792 36.05154228 414.84186745 C30.11088185 414.7922823 24.17023605 414.74595461 18.22949219 414.70751953 C12.47812736 414.67018235 6.72689764 414.62370368 0.97565079 414.57133102 C-1.19993554 414.55304046 -3.37555054 414.53784317 -5.55118179 414.52605057 C-16.5927109 414.46415737 -27.55556266 414.19744721 -38.55810547 413.21679688 C-39.44183901 413.13833841 -40.32557255 413.05987995 -41.23608589 412.97904396 C-65.859046 410.56164951 -88.62656737 399.85236315 -104.47705078 380.57739258 C-118.92724023 362.29219818 -124.22777509 340.67697122 -125.15597534 317.7980957 C-125.19669281 316.84290889 -125.23741028 315.88772207 -125.27936161 314.9035902 C-125.66472704 305.20313929 -125.72327784 295.51193164 -125.71142578 285.80517578 C-125.71278627 283.88691169 -125.71456978 281.96864787 -125.71673584 280.05038452 C-125.72123334 274.91400365 -125.71955278 269.77764321 -125.71635675 264.64126205 C-125.71379288 259.21974388 -125.71618175 253.79822724 -125.71774292 248.37670898 C-125.719553 239.27896822 -125.71718897 230.18123562 -125.71240234 221.08349609 C-125.70696198 210.62363054 -125.70872547 200.16378449 -125.71422875 189.70391941 C-125.71879316 180.66031765 -125.71939425 171.6167217 -125.71679008 162.57311916 C-125.7152455 157.19934711 -125.71498283 151.82558418 -125.71832657 146.45181274 C-125.72125407 141.39546437 -125.71914182 136.33914071 -125.71343231 131.28279495 C-125.7121305 129.44725205 -125.71245376 127.611707 -125.71469498 125.77616501 C-125.72552721 115.98851576 -125.57031096 106.22444015 -125.14816284 96.44506836 C-125.11099816 95.55273089 -125.07383349 94.66039343 -125.03554261 93.74101543 C-123.94234781 70.71389328 -117.43918367 50.10722737 -102.58203125 32.12939453 C-101.95425781 31.30826172 -101.32648438 30.48712891 -100.6796875 29.64111328 C-85.59538715 11.57927878 -62.22192191 3.57180673 -39.58203125 1.12939453 C-36.67971364 0.89138986 -33.77659073 0.72318912 -30.8684082 0.57498169 C-30.04683637 0.53285431 -29.22526453 0.49072693 -28.37879658 0.44732296 C-18.91991075 0.0004788 -9.46742348 -0.01110046 0 0 Z M212.41796875 411.12939453 C216.41796875 412.12939453 216.41796875 412.12939453 216.41796875 412.12939453 Z M205.41796875 412.12939453 C205.41796875 412.45939453 205.41796875 412.78939453 205.41796875 413.12939453 C207.39796875 413.12939453 209.37796875 413.12939453 211.41796875 413.12939453 C211.41796875 412.79939453 211.41796875 412.46939453 211.41796875 412.12939453 C209.43796875 412.12939453 207.45796875 412.12939453 205.41796875 412.12939453 Z M191.41796875 413.12939453 C191.41796875 413.45939453 191.41796875 413.78939453 191.41796875 414.12939453 C195.37796875 414.12939453 199.33796875 414.12939453 203.41796875 414.12939453 C203.41796875 413.79939453 203.41796875 413.46939453 203.41796875 413.12939453 C199.45796875 413.12939453 195.49796875 413.12939453 191.41796875 413.12939453 Z " fill="#1A2026" transform="translate(174.58203125,47.87060546875)"/>
<path d="M0 0 C3.1800489 1.25934689 6.09462271 2.72558315 9.078125 4.39453125 C11.67553329 5.82171682 14.28683345 6.99113182 17.01855469 8.1315918 C21.98612034 10.30872721 26.78215329 12.87452555 31.6171875 15.328125 C35.22414924 17.14805098 38.8077958 18.91774854 42.5234375 20.5078125 C47.00153239 22.4298712 51.30359675 24.62651987 55.625 26.875 C56.45773437 27.29652344 57.29046875 27.71804687 58.1484375 28.15234375 C63.48746402 30.93237826 68.24240718 33.6026324 71.11072731 39.14699841 C72.25915321 42.8314261 72.28302875 46.32068317 72.26742554 50.14021301 C72.27195665 50.95555108 72.27648776 51.77088915 72.28115618 52.61093444 C72.29380786 55.34069699 72.29217932 58.07026022 72.29052734 60.80004883 C72.29651213 62.7582271 72.30331756 64.716403 72.31088257 66.67457581 C72.32855526 71.99284169 72.3332385 77.31104323 72.33451414 82.62933564 C72.33593563 85.95265704 72.34020519 89.27596207 72.34550858 92.5992794 C72.36401335 104.19518447 72.37217866 115.79104355 72.37060547 127.38696289 C72.36940409 138.19276373 72.3905047 148.99836482 72.4220928 159.80411512 C72.44825309 169.08410386 72.45897286 178.36402735 72.45769465 187.64405268 C72.45718493 193.18537363 72.46287392 198.72651709 72.48405075 204.26780128 C72.50342874 209.4807513 72.50356046 214.69335444 72.48901749 219.90631676 C72.48692773 221.81707135 72.49164023 223.72784763 72.5037384 225.63856506 C72.5192135 228.25239463 72.5098682 230.86503151 72.49447632 233.47883606 C72.50476344 234.23031239 72.51505057 234.98178872 72.52564943 235.75603706 C72.45468554 241.23035994 70.99467419 245.4044623 68 250 C64.80713224 253.06910313 61.3097191 255.05660051 57.39453125 257.09375 C56.32783203 257.64933594 55.26113281 258.20492188 54.16210938 258.77734375 C53.05673828 259.34582031 51.95136719 259.91429687 50.8125 260.5 C49.72646484 261.06847656 48.64042969 261.63695312 47.52148438 262.22265625 C41.83311315 265.16762682 36.16000244 267.82084 30.18237305 270.11914062 C27.14837918 271.34373508 24.34360629 272.88764592 21.5 274.5 C16.1244863 277.46033596 10.74441591 279.86607085 5 282 C4.20464844 282.35707031 3.40929687 282.71414063 2.58984375 283.08203125 C-0.37339136 284.13234837 -2.79788856 284.33459316 -5.9375 284.375 C-6.93652344 284.40335937 -7.93554688 284.43171875 -8.96484375 284.4609375 C-16.00228078 283.39218902 -20.93647751 277.43318495 -25.875 272.6875 C-30.5145277 268.25804725 -35.1979966 263.91961624 -40.04443359 259.71704102 C-43.22312235 256.92606498 -46.29589083 254.02483062 -49.375 251.125 C-58.94319896 241.79839649 -58.94319896 241.79839649 -69.26953125 233.38671875 C-69.84058594 232.92910156 -70.41164063 232.47148437 -71 232 C-71 231.34 -71 230.68 -71 230 C-71.54140625 229.78730469 -72.0828125 229.57460938 -72.640625 229.35546875 C-75.85329739 227.50977783 -78.20530041 224.96021569 -80.75 222.3125 C-85.94805923 217.00777744 -91.30903543 212.04169356 -97.04296875 207.31640625 C-97.68878906 206.77886719 -98.33460938 206.24132812 -99 205.6875 C-99.5775 205.21699219 -100.155 204.74648438 -100.75 204.26171875 C-102 203 -102 203 -102 201 C-102.57234375 200.7421875 -103.1446875 200.484375 -103.734375 200.21875 C-106.21128995 198.88634058 -108.1341166 197.34943882 -110.25 195.5 C-110.95640625 194.8915625 -111.6628125 194.283125 -112.390625 193.65625 C-114 192 -114 192 -114 190 C-114.53109375 189.77570313 -115.0621875 189.55140625 -115.609375 189.3203125 C-118.8110886 187.55204584 -121.48147104 185.23950919 -124.25 182.875 C-124.80429688 182.40707031 -125.35859375 181.93914062 -125.9296875 181.45703125 C-127.28947326 180.30824672 -128.64515165 179.15460347 -130 178 C-130.61488281 178.42152344 -131.22976562 178.84304688 -131.86328125 179.27734375 C-132.67152344 179.82519531 -133.47976562 180.37304688 -134.3125 180.9375 C-135.11300781 181.48277344 -135.91351563 182.02804687 -136.73828125 182.58984375 C-139 184 -139 184 -142 185 C-142 185.66 -142 186.32 -142 187 C-143.546875 188.19140625 -143.546875 188.19140625 -145.75 189.5625 C-150.88338839 192.85145949 -155.67947677 196.51438432 -160.49609375 200.2421875 C-163 202 -163 202 -165 202 C-165 202.66 -165 203.32 -165 204 C-167.25814848 205.79826445 -169.51277739 207.4746801 -171.875 209.125 C-172.52597656 209.59292969 -173.17695313 210.06085938 -173.84765625 210.54296875 C-178.73587828 214 -178.73587828 214 -181 214 C-181 214.66 -181 215.32 -181 216 C-186.00107884 216.77012811 -190.23498642 217.14315722 -194.60546875 214.3125 C-197.17272766 211.96156021 -199.58452666 209.50619534 -202 207 C-203.82210119 205.36241539 -205.65515715 203.73692151 -207.5 202.125 C-213.76575035 196.59289764 -213.76575035 196.59289764 -214.37109375 192.4765625 C-214.39300781 191.53554688 -214.41492188 190.59453125 -214.4375 189.625 C-214.49744141 188.22121094 -214.49744141 188.22121094 -214.55859375 186.7890625 C-213.7814976 182.90901601 -211.94825649 181.58176052 -209 179 C-208.08863281 178.14921875 -207.17726563 177.2984375 -206.23828125 176.421875 C-205.27277344 175.54015625 -204.30726563 174.6584375 -203.3125 173.75 C-202.79067139 173.27256348 -202.26884277 172.79512695 -201.73120117 172.30322266 C-198.44648668 169.30259428 -195.1348478 166.33396601 -191.8125 163.375 C-187.78851492 159.76950937 -183.9759702 155.99880044 -180.18359375 152.15234375 C-176.92633505 148.94170056 -173.48809488 145.95585152 -170 143 C-171.37538959 139.88125502 -172.93033968 137.86110345 -175.4140625 135.5390625 C-176.09339844 134.90226563 -176.77273437 134.26546875 -177.47265625 133.609375 C-178.18292969 132.95453125 -178.89320313 132.2996875 -179.625 131.625 C-180.31207031 130.97789062 -180.99914062 130.33078125 -181.70703125 129.6640625 C-185.6992031 125.94902078 -189.80513328 122.59630362 -194.20385742 119.37768555 C-196.7018577 117.46165788 -198.83077213 115.27679289 -201 113 C-201.96146941 112.05514776 -202.92646057 111.11386885 -203.89453125 110.17578125 C-204.86721196 109.2213791 -205.83986808 108.26695188 -206.8125 107.3125 C-207.31458984 106.82716797 -207.81667969 106.34183594 -208.33398438 105.84179688 C-209.59417273 104.59875394 -210.80191044 103.30300108 -212 102 C-212 101.34 -212 100.68 -212 100 C-212.66 100 -213.32 100 -214 100 C-214.08204828 98.60517921 -214.13966204 97.20891272 -214.1875 95.8125 C-214.23970703 94.64654297 -214.23970703 94.64654297 -214.29296875 93.45703125 C-213.51776832 86.95568365 -208.12954181 83.03481757 -203.5625 78.875 C-202.55993164 77.94494141 -202.55993164 77.94494141 -201.53710938 76.99609375 C-192.04321695 68.24552888 -192.04321695 68.24552888 -184.6171875 68.546875 C-179.82172018 69.37713501 -176.75433377 72.0289445 -173 75 C-171.75314076 75.94773637 -170.50426381 76.89282129 -169.25390625 77.8359375 C-165.5856476 80.6121609 -161.93928721 83.41577483 -158.29785156 86.22705078 C-154.49674118 89.15986672 -150.68632619 92.08048037 -146.875 95 C-146.18921875 95.52730713 -145.5034375 96.05461426 -144.796875 96.59790039 C-143.49583208 97.59520719 -142.19096565 98.58755116 -140.88183594 99.57421875 C-139.60717172 100.53997368 -138.34499369 101.52239356 -137.09472656 102.51953125 C-135.07588354 104.12330453 -135.07588354 104.12330453 -132 106 C-128.70349934 105.53553667 -126.99820239 104.41706277 -124.5625 102.1875 C-123.52029297 101.24197266 -123.52029297 101.24197266 -122.45703125 100.27734375 C-121.24080078 99.15005859 -121.24080078 99.15005859 -120 98 C-119.00418352 97.08433378 -118.00807177 96.16898862 -117.01171875 95.25390625 C-114.79432474 93.21376897 -112.58127481 91.16904218 -110.37109375 89.12109375 C-102.81831531 82.12376238 -95.21618124 75.18289753 -87.5546875 68.3046875 C-82.67405968 63.90167464 -77.84007959 59.44747491 -73 55 C-61.72339154 44.63809743 -61.72339154 44.63809743 -56.0625 39.5625 C-52.17629402 36.07551903 -48.33157193 32.54668015 -44.5 29 C-39.88384562 24.72707406 -35.23694621 20.49272398 -30.546875 16.30078125 C-28.64589592 14.58348573 -26.76296434 12.85348201 -24.890625 11.10546875 C-24.35832275 10.61054932 -23.82602051 10.11562988 -23.27758789 9.60571289 C-22.24731924 8.64631179 -21.22024643 7.6834626 -20.19702148 6.71655273 C-13.70271731 0.68178769 -8.83485354 -1.4290007 0 0 Z " fill="#0089E6" transform="translate(327,114)"/>
<path d="M0 0 C7.92112725 -0.84200959 13.14376801 0.51550559 20.078125 4.39453125 C22.67553329 5.82171682 25.28683345 6.99113182 28.01855469 8.1315918 C32.98612034 10.30872721 37.78215329 12.87452555 42.6171875 15.328125 C46.22414924 17.14805098 49.8077958 18.91774854 53.5234375 20.5078125 C58.00153239 22.4298712 62.30359675 24.62651987 66.625 26.875 C67.45773437 27.29652344 68.29046875 27.71804687 69.1484375 28.15234375 C74.48746402 30.93237826 79.24240718 33.6026324 82.11072731 39.14699841 C83.25915321 42.8314261 83.28302875 46.32068317 83.26742554 50.14021301 C83.27195665 50.95555108 83.27648776 51.77088915 83.28115618 52.61093444 C83.29380786 55.34069699 83.29217932 58.07026022 83.29052734 60.80004883 C83.29651213 62.7582271 83.30331756 64.716403 83.31088257 66.67457581 C83.32855526 71.99284169 83.3332385 77.31104323 83.33451414 82.62933564 C83.33593563 85.95265704 83.34020519 89.27596207 83.34550858 92.5992794 C83.36401335 104.19518447 83.37217866 115.79104355 83.37060547 127.38696289 C83.36940409 138.19276373 83.3905047 148.99836482 83.4220928 159.80411512 C83.44825309 169.08410386 83.45897286 178.36402735 83.45769465 187.64405268 C83.45718493 193.18537363 83.46287392 198.72651709 83.48405075 204.26780128 C83.50342874 209.4807513 83.50356046 214.69335444 83.48901749 219.90631676 C83.48692773 221.81707135 83.49164023 223.72784763 83.5037384 225.63856506 C83.5192135 228.25239463 83.5098682 230.86503151 83.49447632 233.47883606 C83.50476344 234.23031239 83.51505057 234.98178872 83.52564943 235.75603706 C83.45468554 241.23035994 81.99467419 245.4044623 79 250 C75.80713224 253.06910313 72.3097191 255.05660051 68.39453125 257.09375 C67.32783203 257.64933594 66.26113281 258.20492188 65.16210938 258.77734375 C63.50405273 259.63005859 63.50405273 259.63005859 61.8125 260.5 C60.18344727 261.35271484 60.18344727 261.35271484 58.52148438 262.22265625 C52.83311315 265.16762682 47.16000244 267.82084 41.18237305 270.11914062 C38.14837918 271.34373508 35.34360629 272.88764592 32.5 274.5 C27.1244863 277.46033596 21.74441591 279.86607085 16 282 C15.15050781 282.36222656 14.30101562 282.72445313 13.42578125 283.09765625 C10.50724661 284.18329474 8.08875453 284.143663 5 284 C6.12047806 280.63856582 7.49707183 279.42471166 10 277 C11.49062994 274.01874013 11.13714605 270.97571266 11.12698364 267.70695496 C11.12854363 266.94538678 11.13010362 266.1838186 11.13171089 265.3991726 C11.13571916 262.83014197 11.13253101 260.26116981 11.12939453 257.69213867 C11.1307494 255.85308294 11.13252982 254.01402748 11.13470459 252.17497253 C11.13929008 247.14581832 11.13747922 242.1166845 11.1343255 237.0875299 C11.13178236 231.75995694 11.13414719 226.43238566 11.13571167 221.10481262 C11.13753824 212.08476453 11.13512535 203.06472458 11.13037109 194.04467773 C11.12561864 184.92650817 11.12547812 175.80835503 11.13037109 166.69018555 C11.14527744 137.76164721 11.12086927 108.83354559 11.01091194 79.90518856 C11.0001735 77.04619194 10.99021905 74.18719334 10.98033142 71.32819366 C10.94346927 61.15600724 10.8830181 50.98444464 10.78292465 40.81267738 C10.75411224 37.83499134 10.73409873 34.85746019 10.72217178 31.87965965 C10.70550676 27.87155276 10.65737918 23.86448839 10.60498047 19.85668945 C10.60414333 18.69603533 10.6033062 17.5353812 10.6024437 16.33955574 C10.58312916 15.28719671 10.56381462 14.23483768 10.54391479 13.15058899 C10.53540937 12.24492848 10.52690395 11.33926798 10.51814079 10.40616322 C9.830913 7.21478694 8.50745283 6.03013239 6 4 C2.86649283 2.73215876 2.86649283 2.73215876 0 2 C0 1.34 0 0.68 0 0 Z " fill="#1EADFE" transform="translate(316,114)"/>
<path d="M0 0 C4.26006763 0.94389734 6.4777688 3.00507992 9.125 6.4375 C9.90868256 10.09619648 9.84571565 13.7184647 9.83203125 17.44921875 C9.84719788 18.62134918 9.8623645 19.79347961 9.87799072 21.00112915 C9.91478152 24.33208037 9.92833983 27.66170906 9.93208694 30.99277115 C9.93937414 33.86323155 9.96535221 36.73340042 9.99130154 39.60374355 C10.08766817 50.39170888 10.10712033 61.17960537 10.12051392 71.96794128 C10.12533292 75.69497844 10.13132239 79.42201263 10.13745117 83.14904785 C10.20312472 123.91192787 10.18696583 164.67462624 10.125 205.4375 C9.465 205.4375 8.805 205.4375 8.125 205.4375 C7.465 204.4475 6.805 203.4575 6.125 202.4375 C4.42329166 201.44517851 2.71848956 200.45721349 0.98925781 199.51367188 C-1.88989768 197.8516345 -4.42794358 195.77871757 -7 193.6875 C-8.22799229 192.70686093 -9.45724076 191.72779357 -10.6875 190.75 C-11.35394531 190.22019531 -12.02039063 189.69039062 -12.70703125 189.14453125 C-16.76924219 185.94599759 -20.88546267 182.81824938 -25 179.6875 C-25.89259521 179.00800293 -26.78519043 178.32850586 -27.70483398 177.62841797 C-34.61850499 172.37434965 -41.56800889 167.16911142 -48.52539062 161.97314453 C-55.19087455 156.98201102 -61.77242563 151.888079 -68.31713867 146.73974609 C-69.01943604 146.18883301 -69.7217334 145.63791992 -70.4453125 145.0703125 C-71.36981201 144.34158936 -71.36981201 144.34158936 -72.31298828 143.59814453 C-73.88404325 142.36027444 -73.88404325 142.36027444 -75.875 141.4375 C-75.875 140.7775 -75.875 140.1175 -75.875 139.4375 C-76.44903564 139.16977783 -77.02307129 138.90205566 -77.61450195 138.6262207 C-79.95112947 137.39746604 -81.93703136 136.00825431 -84.04296875 134.41796875 C-84.84597412 133.81380127 -85.64897949 133.20963379 -86.47631836 132.5871582 C-87.3297583 131.939646 -88.18319824 131.29213379 -89.0625 130.625 C-89.94365479 129.96008545 -90.82480957 129.2951709 -91.73266602 128.61010742 C-94.45012913 126.556951 -97.1633823 124.49836895 -99.875 122.4375 C-100.70580078 121.80618164 -101.53660156 121.17486328 -102.39257812 120.52441406 C-116.17467821 110.03949389 -116.17467821 110.03949389 -121.875 105.4375 C-121.39466309 105.09501221 -120.91432617 104.75252441 -120.41943359 104.3996582 C-115.06725992 100.49641195 -110.27059154 96.212338 -105.5 91.625 C-103.99945422 90.19712145 -102.49815692 88.77003223 -100.99609375 87.34375 C-100.28308105 86.66570312 -99.57006836 85.98765625 -98.83544922 85.2890625 C-95.69673811 82.3246808 -92.48430342 79.44664142 -89.26171875 76.57421875 C-86.44448276 74.05207786 -83.65856784 71.49662898 -80.875 68.9375 C-77.24765837 65.60411198 -73.60606803 62.28803585 -69.9375 59 C-65.48213196 55.00232627 -61.08416481 50.94549115 -56.69165039 46.87915039 C-52.65050116 43.14223118 -48.56789404 39.45450894 -44.46875 35.78125 C-41.41608319 33.02281613 -38.39417344 30.23247956 -35.375 27.4375 C-30.76093986 23.16646277 -26.11462918 18.93559432 -21.4296875 14.7421875 C-19.50741517 13.00802745 -17.5971493 11.26414116 -15.6953125 9.5078125 C-15.15398682 9.00838135 -14.61266113 8.5089502 -14.05493164 7.99438477 C-13.00039977 7.02007691 -11.94742413 6.04408117 -10.89624023 5.06616211 C-4.67535719 -0.67868088 -4.67535719 -0.67868088 0 0 Z " fill="#0064C5" transform="translate(317.875,115.5625)"/>
<path d="M0 0 C0 42.24 0 84.48 0 128 C-11.18115055 121.29130967 -11.18115055 121.29130967 -16.3125 117.125 C-17.51307982 116.16250985 -18.71499119 115.20167913 -19.91796875 114.2421875 C-20.56556152 113.72495117 -21.2131543 113.20771484 -21.88037109 112.67480469 C-25.92202559 109.4813297 -30.02536505 106.36845515 -34.125 103.25 C-35.46425537 102.2305127 -35.46425537 102.2305127 -36.83056641 101.19042969 C-42.10045931 97.18542427 -47.38771795 93.20451581 -52.68994141 89.24243164 C-55.97249627 86.78805606 -59.24835427 84.32484535 -62.52294922 81.85986328 C-64.2195091 80.58602204 -65.9192169 79.3163656 -67.62158203 78.05029297 C-70.17362131 76.14963674 -72.7128583 74.23297707 -75.25 72.3125 C-76.42212036 71.44794189 -76.42212036 71.44794189 -77.61791992 70.56591797 C-78.3266626 70.02467285 -79.03540527 69.48342773 -79.765625 68.92578125 C-80.39243164 68.45567627 -81.01923828 67.98557129 -81.66503906 67.5012207 C-83 66 -83 66 -83 62 C-81.0078125 60.1328125 -81.0078125 60.1328125 -78.125 58.125 C-77.02183296 57.33818233 -75.92038046 56.54895727 -74.8203125 55.7578125 C-74.21219727 55.3237207 -73.60408203 54.88962891 -72.97753906 54.44238281 C-69.24700732 51.72139744 -65.63282493 48.84929688 -62 46 C-55.06008545 40.58233811 -48.06604066 35.25245659 -41 30 C-33.2291648 24.20626579 -33.2291648 24.20626579 -25.53125 18.31640625 C-24.95238037 17.86773193 -24.37351074 17.41905762 -23.77709961 16.95678711 C-22.15277969 15.69512327 -20.53138027 14.42970207 -18.91015625 13.1640625 C-16 11 -16 11 -13.44921875 9.47265625 C-10.66816054 7.80047293 -8.25590639 5.87199492 -5.75 3.8125 C-1.10630631 0 -1.10630631 0 0 0 Z " fill="#0C2C4D" transform="translate(327,192)"/>
<path d="M0 0 C3.40389712 1.4754535 6.10162888 3.70632501 9 6 C10.24685924 6.94773637 11.49573619 7.89282129 12.74609375 8.8359375 C17.18569362 12.19607056 21.5931269 15.59712919 26 19 C28.9766324 21.29498039 31.95639137 23.58583862 34.9375 25.875 C35.59814453 26.38554932 36.25878906 26.89609863 36.93945312 27.42211914 C41.36070486 30.81779445 45.88535756 34.03285334 50.46264648 37.21435547 C54.56080126 40.09840281 58.56149674 43.10829731 62.5625 46.125 C63.41803467 46.76808105 64.27356934 47.41116211 65.1550293 48.07373047 C71.58306719 52.91272841 77.98291434 57.78818228 84.35571289 62.69970703 C84.99758545 63.19325684 85.63945801 63.68680664 86.30078125 64.1953125 C86.91131348 64.66485352 87.5218457 65.13439453 88.15087891 65.61816406 C90.06090186 67.04551156 92.01474285 68.39293768 93.98046875 69.7421875 C94.97691406 70.48726563 95.97335938 71.23234375 97 72 C97 72.66 97 73.32 97 74 C97.598125 74.28875 98.19625 74.5775 98.8125 74.875 C103.04813614 77.05332716 104.47434063 78.54038031 106 83 C101.73428979 81.53069982 98.34648298 79.28216868 94.75 76.625 C93.49917431 75.71549031 92.24785056 74.80666527 90.99609375 73.8984375 C90.01552002 73.18445801 90.01552002 73.18445801 89.01513672 72.45605469 C86.3320052 70.51733451 83.62175899 68.61867264 80.91040039 66.71972656 C73.15251193 61.28478084 65.50070406 55.71819156 57.8894043 50.08007812 C53.16888537 46.58634156 48.41924926 43.14169793 43.625 39.75 C36.94429855 35.01234091 30.4668737 30.02362292 24 25 C21.0668299 22.72350978 18.12846937 20.45390276 15.1875 18.1875 C14.14758911 17.37865356 14.14758911 17.37865356 13.08666992 16.5534668 C4.97085407 10.04880314 4.97085407 10.04880314 -4.5 6.25 C-9.69997525 7.36428041 -12.31503395 10.31503395 -16 14 C-16.82757813 14.74507812 -17.65515625 15.49015625 -18.5078125 16.2578125 C-19.74144531 17.39863281 -19.74144531 17.39863281 -21 18.5625 C-21.763125 19.26503906 -22.52625 19.96757812 -23.3125 20.69140625 C-25.51352076 23.70252493 -25.53867956 25.34467439 -25 29 C-23.81137231 31.1591776 -23.81137231 31.1591776 -22 32.9375 C-21.04673828 33.94683594 -21.04673828 33.94683594 -20.07421875 34.9765625 C-16.1847278 38.77083051 -12.21163424 42.44452252 -7.76171875 45.57421875 C-7.18035156 46.04472656 -6.59898437 46.51523438 -6 47 C-6 47.66 -6 48.32 -6 49 C-5.41734375 49.268125 -4.8346875 49.53625 -4.234375 49.8125 C-1.97213399 51.01480991 -0.19423682 52.33825913 1.75 54 C2.67039062 54.7734375 2.67039062 54.7734375 3.609375 55.5625 C5 57 5 57 5 59 C5.59006836 59.26337158 6.18013672 59.52674316 6.78808594 59.7980957 C9.09572815 61.05201652 10.56727394 62.35195261 12.390625 64.23046875 C13.32479248 65.18215942 13.32479248 65.18215942 14.27783203 66.15307617 C14.92864746 66.82443604 15.57946289 67.4957959 16.25 68.1875 C20.68131111 72.69018155 25.09076457 77.11701234 29.9140625 81.203125 C37.28647501 87.55389233 44.34755826 94.27469748 51.17578125 101.203125 C55.01223677 104.98207476 59.13325763 108.45610177 63.28125 111.88671875 C64.0134375 112.50160156 64.745625 113.11648438 65.5 113.75 C66.1703125 114.30171875 66.840625 114.8534375 67.53125 115.421875 C69 117 69 117 69 120 C64.09310209 119.57212579 61.24396018 117.07911185 57.6875 113.9375 C57.13771484 113.46505859 56.58792969 112.99261719 56.02148438 112.50585938 C54.6737304 111.345619 53.33584883 110.17392776 52 109 C51.07767578 109.63228516 51.07767578 109.63228516 50.13671875 110.27734375 C49.32847656 110.82519531 48.52023438 111.37304688 47.6875 111.9375 C46.48673828 112.75541016 46.48673828 112.75541016 45.26171875 113.58984375 C43 115 43 115 40 116 C40 116.66 40 117.32 40 118 C38.453125 119.19140625 38.453125 119.19140625 36.25 120.5625 C31.11661161 123.85145949 26.32052323 127.51438432 21.50390625 131.2421875 C19 133 19 133 17 133 C17 133.66 17 134.32 17 135 C14.74185152 136.79826445 12.48722261 138.4746801 10.125 140.125 C9.47402344 140.59292969 8.82304687 141.06085938 8.15234375 141.54296875 C3.26412172 145 3.26412172 145 1 145 C1 145.66 1 146.32 1 147 C-4.00107884 147.77012811 -8.23498642 148.14315722 -12.60546875 145.3125 C-15.17272766 142.96156021 -17.58452666 140.50619534 -20 138 C-21.82210119 136.36241539 -23.65515715 134.73692151 -25.5 133.125 C-31.76575035 127.59289764 -31.76575035 127.59289764 -32.37109375 123.4765625 C-32.39300781 122.53554688 -32.41492188 121.59453125 -32.4375 120.625 C-32.47746094 119.68914062 -32.51742187 118.75328125 -32.55859375 117.7890625 C-31.7814976 113.90901601 -29.94825649 112.58176052 -27 110 C-25.63294922 108.72382813 -25.63294922 108.72382813 -24.23828125 107.421875 C-23.27277344 106.54015625 -22.30726562 105.6584375 -21.3125 104.75 C-20.79067139 104.27256348 -20.26884277 103.79512695 -19.73120117 103.30322266 C-16.44648668 100.30259428 -13.1348478 97.33396601 -9.8125 94.375 C-5.78851492 90.76950937 -1.9759702 86.99880044 1.81640625 83.15234375 C5.07366495 79.94170056 8.51190512 76.95585152 12 74 C10.62461041 70.88125502 9.06966032 68.86110345 6.5859375 66.5390625 C5.56693359 65.58386719 5.56693359 65.58386719 4.52734375 64.609375 C3.81707031 63.95453125 3.10679687 63.2996875 2.375 62.625 C1.68792969 61.97789062 1.00085938 61.33078125 0.29296875 60.6640625 C-3.6992031 56.94902078 -7.80513328 53.59630362 -12.20385742 50.37768555 C-14.7018577 48.46165788 -16.83077213 46.27679289 -19 44 C-19.96146941 43.05514776 -20.92646057 42.11386885 -21.89453125 41.17578125 C-22.86721196 40.2213791 -23.83986808 39.26695188 -24.8125 38.3125 C-25.31458984 37.82716797 -25.81667969 37.34183594 -26.33398438 36.84179688 C-27.59417273 35.59875394 -28.80191044 34.30300108 -30 33 C-30 32.34 -30 31.68 -30 31 C-30.66 31 -31.32 31 -32 31 C-32.08204828 29.60517921 -32.13966204 28.20891272 -32.1875 26.8125 C-32.22230469 26.03519531 -32.25710937 25.25789063 -32.29296875 24.45703125 C-31.51776832 17.95568365 -26.12954181 14.03481757 -21.5625 9.875 C-20.89412109 9.25496094 -20.22574219 8.63492188 -19.53710938 7.99609375 C-9.14413086 -1.58316296 -9.14413086 -1.58316296 0 0 Z " fill="#0090ED" transform="translate(145,183)"/>
<path d="M0 0 C-3.64597107 2.03927196 -7.31792196 4.02670846 -11 6 C-12.74216797 6.93972656 -12.74216797 6.93972656 -14.51953125 7.8984375 C-29.65346702 15.87067224 -46.03399522 22.38290352 -63 25 C-63.804375 25.12890625 -64.60875 25.2578125 -65.4375 25.390625 C-94.13303098 29.07451073 -121.73367243 22.79443979 -144.7421875 5.12890625 C-145.15726563 4.75636719 -145.57234375 4.38382812 -146 4 C-146 3.67 -146 3.34 -146 3 C-132.84144098 2.01899033 -119.71342868 1.81536552 -106.5217762 1.73963928 C-102.83588163 1.7183204 -99.15006478 1.69133647 -95.46421814 1.66296387 C-86.33130886 1.59373337 -77.19834548 1.53348663 -68.06536865 1.47393799 C-60.30093585 1.42307071 -52.53655045 1.36834456 -44.77218437 1.30812073 C-41.13704192 1.28153802 -37.50189485 1.26074729 -33.86671448 1.2401123 C-31.65731587 1.22352243 -29.44791934 1.20665177 -27.23852539 1.18945312 C-25.71844879 1.1831765 -25.71844879 1.1831765 -24.16766357 1.17677307 C-23.24709671 1.16842941 -22.32652985 1.16008575 -21.37806702 1.15148926 C-20.576064 1.14633553 -19.77406099 1.14118179 -18.94775486 1.13587189 C-16.91928523 1.11959555 -16.91928523 1.11959555 -15 0 C-13.21439008 -0.25508713 -11.4208497 -0.45648863 -9.625 -0.625 C-8.66851562 -0.72039062 -7.71203125 -0.81578125 -6.7265625 -0.9140625 C-4.21530604 -0.99321385 -2.37698275 -0.75477651 0 0 Z " fill="#0083FF" transform="translate(395,460)"/>
<path d="M0 0 C3.40389712 1.4754535 6.10162888 3.70632501 9 6 C10.24685924 6.94773637 11.49573619 7.89282129 12.74609375 8.8359375 C17.18569362 12.19607056 21.5931269 15.59712919 26 19 C28.9766324 21.29498039 31.95639137 23.58583862 34.9375 25.875 C35.59814453 26.38554932 36.25878906 26.89609863 36.93945312 27.42211914 C41.36070486 30.81779445 45.88535756 34.03285334 50.46264648 37.21435547 C54.56080126 40.09840281 58.56149674 43.10829731 62.5625 46.125 C63.41803467 46.76808105 64.27356934 47.41116211 65.1550293 48.07373047 C71.58306719 52.91272841 77.98291434 57.78818228 84.35571289 62.69970703 C84.99758545 63.19325684 85.63945801 63.68680664 86.30078125 64.1953125 C86.91131348 64.66485352 87.5218457 65.13439453 88.15087891 65.61816406 C90.06090186 67.04551156 92.01474285 68.39293768 93.98046875 69.7421875 C94.97691406 70.48726563 95.97335938 71.23234375 97 72 C97 72.66 97 73.32 97 74 C97.598125 74.28875 98.19625 74.5775 98.8125 74.875 C103.04813614 77.05332716 104.47434063 78.54038031 106 83 C101.73428979 81.53069982 98.34648298 79.28216868 94.75 76.625 C93.49917431 75.71549031 92.24785056 74.80666527 90.99609375 73.8984375 C90.01552002 73.18445801 90.01552002 73.18445801 89.01513672 72.45605469 C86.3320052 70.51733451 83.62175899 68.61867264 80.91040039 66.71972656 C73.15251193 61.28478084 65.50070406 55.71819156 57.8894043 50.08007812 C53.16888537 46.58634156 48.41924926 43.14169793 43.625 39.75 C36.94429855 35.01234091 30.4668737 30.02362292 24 25 C21.0668299 22.72350978 18.12846937 20.45390276 15.1875 18.1875 C14.14758911 17.37865356 14.14758911 17.37865356 13.08666992 16.5534668 C4.97085407 10.04880314 4.97085407 10.04880314 -4.5 6.25 C-9.69997525 7.36428041 -12.31503395 10.31503395 -16 14 C-16.82757813 14.74507812 -17.65515625 15.49015625 -18.5078125 16.2578125 C-19.74144531 17.39863281 -19.74144531 17.39863281 -21 18.5625 C-21.763125 19.26503906 -22.52625 19.96757812 -23.3125 20.69140625 C-25.51352076 23.70252493 -25.53867956 25.34467439 -25 29 C-23.81137231 31.1591776 -23.81137231 31.1591776 -22 32.9375 C-21.04673828 33.94683594 -21.04673828 33.94683594 -20.07421875 34.9765625 C-16.1847278 38.77083051 -12.21163424 42.44452252 -7.76171875 45.57421875 C-7.18035156 46.04472656 -6.59898437 46.51523438 -6 47 C-6 47.66 -6 48.32 -6 49 C-5.41734375 49.268125 -4.8346875 49.53625 -4.234375 49.8125 C-1.97213399 51.01480991 -0.19423682 52.33825913 1.75 54 C2.67039062 54.7734375 2.67039062 54.7734375 3.609375 55.5625 C5 57 5 57 5 59 C5.59006836 59.26337158 6.18013672 59.52674316 6.78808594 59.7980957 C9.09572815 61.05201652 10.56727394 62.35195261 12.390625 64.23046875 C13.32479248 65.18215942 13.32479248 65.18215942 14.27783203 66.15307617 C14.92864746 66.82443604 15.57946289 67.4957959 16.25 68.1875 C20.68131111 72.69018155 25.09076457 77.11701234 29.9140625 81.203125 C37.28647501 87.55389233 44.34755826 94.27469748 51.17578125 101.203125 C55.01223677 104.98207476 59.13325763 108.45610177 63.28125 111.88671875 C64.0134375 112.50160156 64.745625 113.11648438 65.5 113.75 C66.1703125 114.30171875 66.840625 114.8534375 67.53125 115.421875 C69 117 69 117 69 120 C65.01038009 119.47359182 62.94042463 118.47700671 60 115.75 C59.360625 115.16734375 58.72125 114.5846875 58.0625 113.984375 C54.85614453 110.89947239 51.72853495 107.73923122 48.60546875 104.5703125 C44.30534913 100.22156471 39.96978883 96.01088236 35.3203125 92.0390625 C32.81646357 89.83871041 30.389201 87.56885894 27.96020508 85.28662109 C23.44521532 81.04492125 18.96468318 76.85985057 14.0625 73.0625 C8.90782103 69.06655878 4.22364544 64.615226 -0.47241211 60.09790039 C-4.18905352 56.55707645 -8.02798946 53.43490359 -12.16870117 50.40405273 C-14.67969666 48.47887808 -16.81970842 46.28840521 -19 44 C-19.96146941 43.05514776 -20.92646057 42.11386885 -21.89453125 41.17578125 C-22.86721196 40.2213791 -23.83986808 39.26695188 -24.8125 38.3125 C-25.31458984 37.82716797 -25.81667969 37.34183594 -26.33398438 36.84179688 C-27.59417273 35.59875394 -28.80191044 34.30300108 -30 33 C-30 32.34 -30 31.68 -30 31 C-30.66 31 -31.32 31 -32 31 C-32.08204828 29.60517921 -32.13966204 28.20891272 -32.1875 26.8125 C-32.22230469 26.03519531 -32.25710937 25.25789063 -32.29296875 24.45703125 C-31.51776832 17.95568365 -26.12954181 14.03481757 -21.5625 9.875 C-20.89412109 9.25496094 -20.22574219 8.63492188 -19.53710938 7.99609375 C-9.14413086 -1.58316296 -9.14413086 -1.58316296 0 0 Z " fill="#30B4FC" transform="translate(145,183)"/>
<path d="M0 0 C-3.64597107 2.03927196 -7.31792196 4.02670846 -11 6 C-12.74216797 6.93972656 -12.74216797 6.93972656 -14.51953125 7.8984375 C-29.65346702 15.87067224 -46.03399522 22.38290352 -63 25 C-63.804375 25.12890625 -64.60875 25.2578125 -65.4375 25.390625 C-94.13303098 29.07451073 -121.73367243 22.79443979 -144.7421875 5.12890625 C-145.15726563 4.75636719 -145.57234375 4.38382812 -146 4 C-146 3.67 -146 3.34 -146 3 C-144.20841511 2.97303635 -142.41671527 2.95362083 -140.625 2.9375 C-139.62726563 2.92589844 -138.62953125 2.91429687 -137.6015625 2.90234375 C-135 3 -135 3 -133 4 C-133 4.66 -133 5.32 -133 6 C-131.35 6.33 -129.7 6.66 -128 7 C-128 7.66 -128 8.32 -128 9 C-127.2678125 9.12632812 -126.535625 9.25265625 -125.78125 9.3828125 C-123.14089925 9.96873303 -120.96633032 10.78542256 -118.5 11.875 C-91.85224545 22.82886024 -61.2118278 19.35789969 -35 9 C-34.01 8.34 -33.02 7.68 -32 7 C-30.61723795 6.50362388 -29.21935337 6.04830101 -27.8125 5.625 C-24.68441536 4.63771403 -21.9723209 3.49533107 -19.125 1.875 C-13.35668578 -1.14815264 -6.24661844 -1.91193228 0 0 Z " fill="#0003FE" transform="translate(395,460)"/>
<path d="M0 0 C0.33 0 0.66 0 1 0 C1 66 1 132 1 200 C0.34 200.33 -0.32 200.66 -1 201 C-2.32334422 198.35331157 -2.19587285 196.24633539 -2.28125 193.28515625 C-2.33732422 191.54202148 -2.33732422 191.54202148 -2.39453125 189.76367188 C-2.42933594 188.54228516 -2.46414063 187.32089844 -2.5 186.0625 C-2.5699332 183.67829604 -2.64281744 181.29417668 -2.71875 178.91015625 C-2.74904297 177.84933838 -2.77933594 176.78852051 -2.81054688 175.69555664 C-2.96387923 172.70458778 -3.20818279 169.76146713 -3.50219727 166.78295898 C-4.04153798 161.03778002 -4.18587226 155.33011314 -4.24609375 149.5625 C-4.2775824 147.36213717 -4.30941536 145.16177924 -4.34155273 142.96142578 C-4.35693085 141.82417053 -4.37230896 140.68691528 -4.38815308 139.51519775 C-4.62881204 122.37200468 -4.94634726 105.24309961 -5.9375 88.125 C-5.99392166 87.1047876 -5.99392166 87.1047876 -6.05148315 86.06396484 C-6.5844941 76.62296677 -7.68263443 67.35902923 -9 58 C-11.01979178 42.45363022 -11.01979178 42.45363022 -6 35 C-5.67 35 -5.34 35 -5 35 C-1.72586873 55.02482074 -1.72586873 55.02482074 -3.57421875 62.2421875 C-3.71472656 62.82226562 -3.85523438 63.40234375 -4 64 C-3.67 64.33 -3.34 64.66 -3 65 C-2.9394849 68.77084746 -2.97982841 72.52857844 -3.0390625 76.29882812 C-3.04679687 77.09353516 -3.05453125 77.88824219 -3.0625 78.70703125 C-3.07410156 79.4338208 -3.08570313 80.16061035 -3.09765625 80.90942383 C-2.99677817 83.06897142 -2.5279715 84.90941768 -2 87 C-1.92291277 88.36800819 -1.89196391 89.73923592 -1.90234375 91.109375 C-1.90556641 91.86347656 -1.90878906 92.61757812 -1.91210938 93.39453125 C-1.92048828 94.17183594 -1.92886719 94.94914062 -1.9375 95.75 C-1.94201172 96.54277344 -1.94652344 97.33554688 -1.95117188 98.15234375 C-1.96291435 100.10159508 -1.98084854 102.05080738 -2 104 C-0.85835823 101.71671646 -0.86360868 100.42535225 -0.84178162 97.88717651 C-0.82709839 96.59568695 -0.82709839 96.59568695 -0.81211853 95.27810669 C-0.80636307 94.33152191 -0.8006076 93.38493713 -0.79467773 92.40966797 C-0.78477814 91.41451172 -0.77487854 90.41935547 -0.76467896 89.39404297 C-0.73300506 86.09344896 -0.70828325 82.79284055 -0.68359375 79.4921875 C-0.66302931 77.20817686 -0.64203298 74.92417008 -0.62062073 72.64016724 C-0.5653474 66.61992505 -0.51596135 60.59964822 -0.46777344 54.5793457 C-0.41759678 48.43958441 -0.36189072 42.29987361 -0.30664062 36.16015625 C-0.19899472 24.10681394 -0.09756407 12.05342784 0 0 Z " fill="#57AFEF" transform="translate(398,156)"/>
<path d="M0 0 C0.33 0 0.66 0 1 0 C3.86037676 18.98803297 5.13497847 38.0807375 5.65844727 57.26660156 C5.68994873 58.3490918 5.7214502 59.43158203 5.75390625 60.546875 C5.77783447 61.50432617 5.8017627 62.46177734 5.82641602 63.44824219 C5.91019478 65.96212985 5.91019478 65.96212985 6.60522461 68.15722656 C7 70 7 70 5.5625 72.9375 C0.20583887 79.3393633 -8.07174563 82.7468142 -15.375 86.5625 C-16.25671875 87.03107422 -17.1384375 87.49964844 -18.046875 87.98242188 C-23.18239342 90.6744275 -28.33478983 92.99011104 -33.74072266 95.08178711 C-36.79869969 96.32460661 -39.63078361 97.87312473 -42.5 99.5 C-47.8755137 102.46033596 -53.25558409 104.86607085 -59 107 C-60.28390625 107.54720703 -60.28390625 107.54720703 -61.59375 108.10546875 C-64 109 -64 109 -67 109 C-67 108.34 -67 107.68 -67 107 C-66.16726563 106.75378906 -65.33453125 106.50757813 -64.4765625 106.25390625 C-60.52794927 104.8297435 -57.03308318 102.97422161 -53.375 100.9375 C-49.63157908 98.85577479 -46.16983597 97.03634601 -42 96 C-39.00122266 94.3123947 -36.09274216 92.50378201 -33.16796875 90.69140625 C-29.8152253 88.90134717 -26.65290733 88.01848349 -23 87 C-20.59895022 85.90980781 -18.22315698 84.76238241 -15.875 83.5625 C-15.28074219 83.26279297 -14.68648438 82.96308594 -14.07421875 82.65429688 C-5.65874166 78.37268068 -5.65874166 78.37268068 0 71 C0.82913779 67.69489914 1.12806251 64.61125207 1.1328125 61.2109375 C1.13474609 60.28273193 1.13667969 59.35452637 1.13867188 58.39819336 C1.13416016 57.40053955 1.12964844 56.40288574 1.125 55.375 C1.12306641 54.32900635 1.12113281 53.2830127 1.11914062 52.20532227 C1.06994256 42.96086993 0.73907577 33.73416159 0.3581543 24.49829102 C0.02596746 16.32410071 -0.12332057 8.18026466 0 0 Z " fill="#18A1FE" transform="translate(391,289)"/>
<path d="M0 0 C4.69548291 0.27620488 6.59932195 2.28464306 9.5703125 5.625 C11.06623929 7.26079745 11.06623929 7.26079745 14 8 C15.6875 9.4375 15.6875 9.4375 17 11 C17 11.66 17 12.32 17 13 C17.8971875 13.1546875 17.8971875 13.1546875 18.8125 13.3125 C21.35431617 14.11135651 22.17376486 15.10071545 24 17 C24.68578125 17.36867187 25.3715625 17.73734375 26.078125 18.1171875 C30.29525354 20.83464199 33.70917902 24.27661408 37.3125 27.75 C42.18901028 32.42168813 47.1065824 36.99768159 52.21166992 41.41894531 C54.58040311 43.51313182 56.79484425 45.73524545 59 48 C63.86545124 52.91752794 68.94309597 57.47358963 74.2734375 61.87890625 C75.00820312 62.49636719 75.74296875 63.11382812 76.5 63.75 C77.1703125 64.30171875 77.840625 64.8534375 78.53125 65.421875 C80 67 80 67 80 70 C76.01038009 69.47359182 73.94042463 68.47700671 71 65.75 C70.360625 65.16734375 69.72125 64.5846875 69.0625 63.984375 C65.85614453 60.89947239 62.72853495 57.73923122 59.60546875 54.5703125 C55.30534913 50.22156471 50.96978883 46.01088236 46.3203125 42.0390625 C43.81646357 39.83871041 41.389201 37.56885894 38.96020508 35.28662109 C34.44521532 31.04492125 29.96468318 26.85985057 25.0625 23.0625 C16.12036967 16.11081064 7.9576198 8.04856402 0 0 Z " fill="#38B1F8" transform="translate(134,233)"/>
<path d="M0 0 C11.17622319 -0.62475782 21.99566055 1.2556359 33 3 C33 3.66 33 4.32 33 5 C34.81293089 4.85962479 36.6253443 4.71255111 38.4375 4.5625 C39.44683594 4.48128906 40.45617187 4.40007812 41.49609375 4.31640625 C43.93640779 4.26788532 43.93640779 4.26788532 45 3 C56.06096869 0.62275395 66.69599708 -0.45015941 78 0 C78 0.66 78 1.32 78 2 C74.33559996 2.98778303 70.66812318 3.96364227 67 4.9375 C65.97003906 5.21529297 64.94007813 5.49308594 63.87890625 5.77929688 C42.22421556 11.50330747 20.50147239 10.02064785 0 1 C0 0.67 0 0.34 0 0 Z " fill="#0058FE" transform="translate(276,463)"/>
<path d="M0 0 C3.125 1.6875 3.125 1.6875 4.125 4.6875 C-0.625 2.8125 -0.625 2.8125 -2.875 1.6875 C-6.32618144 1.13531097 -8.78905641 0.98340243 -11.796875 2.93359375 C-13.91706295 4.76967651 -15.89181253 6.70431253 -17.875 8.6875 C-18.70257813 9.43257812 -19.53015625 10.17765625 -20.3828125 10.9453125 C-21.20523438 11.70585937 -22.02765625 12.46640625 -22.875 13.25 C-23.638125 13.95253906 -24.40125 14.65507812 -25.1875 15.37890625 C-27.38852076 18.39002493 -27.41367956 20.03217439 -26.875 23.6875 C-25.68637231 25.8466776 -25.68637231 25.8466776 -23.875 27.625 C-22.92173828 28.63433594 -22.92173828 28.63433594 -21.94921875 29.6640625 C-18.0597278 33.45833051 -14.08663424 37.13202252 -9.63671875 40.26171875 C-9.05535156 40.73222656 -8.47398437 41.20273438 -7.875 41.6875 C-7.875 42.3475 -7.875 43.0075 -7.875 43.6875 C-7.29234375 43.955625 -6.7096875 44.22375 -6.109375 44.5 C-3.84713399 45.70230991 -2.06923682 47.02575913 -0.125 48.6875 C0.79539062 49.4609375 0.79539062 49.4609375 1.734375 50.25 C3.125 51.6875 3.125 51.6875 3.125 53.6875 C3.71796875 53.94273437 4.3109375 54.19796875 4.921875 54.4609375 C7.33724538 55.80566498 8.63711706 57.17964367 10.375 59.3125 C10.89578125 59.94414062 11.4165625 60.57578125 11.953125 61.2265625 C12.53320312 61.94972656 12.53320312 61.94972656 13.125 62.6875 C10.02627153 61.15137819 7.00729224 59.60902816 4.125 57.6875 C4.125 57.0275 4.125 56.3675 4.125 55.6875 C3.135 55.3575 2.145 55.0275 1.125 54.6875 C1.125 54.0275 1.125 53.3675 1.125 52.6875 C0.52300781 52.58308594 -0.07898438 52.47867188 -0.69921875 52.37109375 C-3.20927718 51.58247575 -4.00713268 50.73060586 -5.6875 48.75 C-8.75716165 45.47879491 -11.55256513 44.86634587 -15.875 43.6875 C-18.375 41.5 -18.375 41.5 -20.875 38.6875 C-22.7526358 36.93189085 -24.63083967 35.17731114 -26.51953125 33.43359375 C-27.875 31.6875 -27.875 31.6875 -27.875 27.6875 C-28.535 27.6875 -29.195 27.6875 -29.875 27.6875 C-31.67340245 23.8658948 -32.49008797 20.9052461 -31.875 16.6875 C-29.8125 14.25 -29.8125 14.25 -26.875 11.6875 C-25.72272961 10.52719052 -24.57721714 9.3601423 -23.4375 8.1875 C-16.47591575 1.2410826 -10.31127761 -4.05237453 0 0 Z " fill="#26BEFE" transform="translate(146.875,188.3125)"/>
<path d="M0 0 C0.33 0 0.66 0 1 0 C4.27413127 20.02482074 4.27413127 20.02482074 2.42578125 27.2421875 C2.28527344 27.82226562 2.14476562 28.40234375 2 29 C2.33 29.33 2.66 29.66 3 30 C3.0605151 33.77084746 3.02017159 37.52857844 2.9609375 41.29882812 C2.95320313 42.09353516 2.94546875 42.88824219 2.9375 43.70703125 C2.92589844 44.4338208 2.91429687 45.16061035 2.90234375 45.90942383 C3.00322183 48.06897142 3.4720285 49.90941768 4 52 C4.07708723 53.36800819 4.10803609 54.73923592 4.09765625 56.109375 C4.09443359 56.86347656 4.09121094 57.61757812 4.08789062 58.39453125 C4.07951172 59.17183594 4.07113281 59.94914062 4.0625 60.75 C4.05798828 61.54277344 4.05347656 62.33554688 4.04882812 63.15234375 C4.03708565 65.10159508 4.01915146 67.05080738 4 69 C4.99 68.01 4.99 68.01 6 67 C6 78.22 6 89.44 6 101 C5.67 101 5.34 101 5 101 C4.97494385 100.3387915 4.9498877 99.67758301 4.92407227 98.99633789 C4.80846898 96.01817695 4.68558246 93.0403608 4.5625 90.0625 C4.52318359 89.02158203 4.48386719 87.98066406 4.44335938 86.90820312 C4.38051758 85.42416992 4.38051758 85.42416992 4.31640625 83.91015625 C4.27974854 82.99371338 4.24309082 82.07727051 4.20532227 81.13305664 C4.22996136 79.0179272 4.22996136 79.0179272 3 78 C1.5509649 71.07683229 1.91211942 64.0402113 2 57 C1.34 57 0.68 57 0 57 C-0.04898437 55.80246094 -0.09796875 54.60492188 -0.1484375 53.37109375 C-0.49439181 45.61595127 -0.90501493 37.93941009 -2 30.25 C-5.17204228 7.67969915 -5.17204228 7.67969915 0 0 Z " fill="#4DC7FF" transform="translate(392,191)"/>
<path d="M0 0 C3.55780196 0.60990891 6.6828589 1.5783681 10 3 C10 3.66 10 4.32 10 5 C10.66 5 11.32 5 12 5 C13.16653224 6.17715639 14.33027872 7.35721812 15.47900391 8.55175781 C18.26677596 11.20618218 21.49446038 13.24265672 24.6875 15.375 C26.10814857 16.33973236 27.52872148 17.30457613 28.94921875 18.26953125 C31.38771671 19.91516087 33.82852945 21.55730237 36.26953125 23.19921875 C37.17058594 23.81410156 38.07164062 24.42898437 39 25.0625 C39.78375 25.58972656 40.5675 26.11695313 41.375 26.66015625 C41.91125 27.10230469 42.4475 27.54445312 43 28 C43 28.66 43 29.32 43 30 C43.53625 30.268125 44.0725 30.53625 44.625 30.8125 C46.42507716 31.71253858 48.21504333 32.63283507 50 33.5625 C52.75279572 35.02680775 52.75279572 35.02680775 54.921875 35.40625 C57.48261244 36.13788927 59.1320256 37.3333305 61.25 38.9375 C61.95640625 39.46214844 62.6628125 39.98679688 63.390625 40.52734375 C64.18726563 41.25630859 64.18726563 41.25630859 65 42 C65 42.66 65 43.32 65 44 C65.598125 44.28875 66.19625 44.5775 66.8125 44.875 C71.04813614 47.05332716 72.47434063 48.54038031 74 53 C69.73428979 51.53069982 66.34648298 49.28216868 62.75 46.625 C61.49917431 45.71549031 60.24785056 44.80666527 58.99609375 43.8984375 C58.34237793 43.42245117 57.68866211 42.94646484 57.01513672 42.45605469 C54.3320052 40.51733451 51.62175899 38.61867264 48.91040039 36.71972656 C41.15820912 31.28877213 33.50965708 25.72921971 25.90698242 20.09106445 C22.24927083 17.38149456 18.58408801 14.68888631 14.86328125 12.06640625 C14.22801514 11.61861816 13.59274902 11.17083008 12.93823242 10.70947266 C11.25629425 9.5296022 9.56974298 8.3563153 7.8828125 7.18359375 C4.9494277 4.96169388 2.53178065 2.65790256 0 0 Z " fill="#1BAAFE" transform="translate(177,213)"/>
<path d="M0 0 C-6.96554652 5.8046221 -15.00542543 8.05476465 -23.625 10.1875 C-24.635625 10.44724609 -25.64625 10.70699219 -26.6875 10.97460938 C-50.41336327 16.9994841 -74.69463846 15.1388007 -97 5 C-97 4.34 -97 3.68 -97 3 C-97.66 3 -98.32 3 -99 3 C-99 2.34 -99 1.68 -99 1 C-94.96544057 2.29703614 -91.09178244 3.79493819 -87.1875 5.4375 C-62.95976228 14.70104677 -37.2883373 12.11361344 -13.1953125 3.98828125 C-10 3 -10 3 -7 3 C-7 2.34 -7 1.68 -7 1 C-4.53721199 -0.231394 -2.7204945 -0.07159196 0 0 Z " fill="#00E5FF" transform="translate(367,465)"/>
<path d="M0 0 C0.33 0 0.66 0 1 0 C2.50577733 10.29563705 3.54354825 20.54751455 4.125 30.9375 C4.16735779 31.66425934 4.20971558 32.39101868 4.25335693 33.13980103 C5.33342097 52.08181379 5.19313829 71.03530583 5 90 C4.67 90 4.34 90 4 90 C3.96907761 89.38708603 3.93815521 88.77417206 3.90629578 88.14268494 C3.5761185 81.63431855 3.23298788 75.12671821 2.88305664 68.61938477 C2.75488151 66.20613985 2.62977059 63.7927298 2.50805664 61.37915039 C1.78396118 47.06709076 0.67864379 32.94964714 -1.37255859 18.76318359 C-2.14740734 13.26950358 -2.82494734 7.51750493 -2 2 C-1.34 1.34 -0.68 0.68 0 0 Z " fill="#35B7FF" transform="translate(389,214)"/>
<path d="M0 0 C0.33 0 0.66 0 1 0 C1 3.63 1 7.26 1 11 C-10.12329985 17.2373644 -21.19414856 23.30730934 -32.92333984 28.33300781 C-37.97511053 30.50509718 -42.75116222 32.97681184 -47.5390625 35.6875 C-51.54959989 37.82645327 -55.75127549 39.40491571 -60 41 C-60.85851562 41.36609375 -61.71703125 41.7321875 -62.6015625 42.109375 C-65 43 -65 43 -68 43 C-68 42.34 -68 41.68 -68 41 C-67.16726563 40.75378906 -66.33453125 40.50757813 -65.4765625 40.25390625 C-61.52794927 38.8297435 -58.03308318 36.97422161 -54.375 34.9375 C-50.63157908 32.85577479 -47.16983597 31.03634601 -43 30 C-40.00122266 28.3123947 -37.09274216 26.50378201 -34.16796875 24.69140625 C-30.8152253 22.90134717 -27.65290733 22.01848349 -24 21 C-21.59895022 19.90980781 -19.22315698 18.76238241 -16.875 17.5625 C-16.28074219 17.26279297 -15.68648438 16.96308594 -15.07421875 16.65429688 C-6.65874166 12.37268068 -6.65874166 12.37268068 -1 5 C-0.21784412 2.2717496 -0.21784412 2.2717496 0 0 Z " fill="#007DF5" transform="translate(392,355)"/>
<path d="M0 0 C5.40469018 4.39916642 10.26562364 9.22550754 15.15551758 14.17724609 C18.13624736 17.18162904 21.1412041 20.07669606 24.375 22.8125 C28.25143121 26.12689001 32.23318575 29.68564558 35 34 C34.67 34.99 34.34 35.98 34 37 C33.5153125 36.50371094 33.030625 36.00742187 32.53125 35.49609375 C27.2385975 30.132194 21.75261983 25.09751352 15.94140625 20.30078125 C15.30074219 19.76839844 14.66007812 19.23601562 14 18.6875 C13.4225 18.21699219 12.845 17.74648438 12.25 17.26171875 C11 16 11 16 11 14 C10.42765625 13.7421875 9.8553125 13.484375 9.265625 13.21875 C6.78871005 11.88634058 4.8658834 10.34943882 2.75 8.5 C2.04359375 7.8915625 1.3371875 7.283125 0.609375 6.65625 C-1 5 -1 5 -1 3 C-1.66 2.67 -2.32 2.34 -3 2 C-2.01 2 -1.02 2 0 2 C0 1.34 0 0.68 0 0 Z " fill="#1B98EF" transform="translate(214,301)"/>
<path d="M0 0 C3.48330216 0.64505596 6.09432866 1.98217268 9 4 C9 4.66 9 5.32 9 6 C9.598125 6.2578125 10.19625 6.515625 10.8125 6.78125 C13.79029834 8.44030907 15.36753237 10.68879151 17.4375 13.34375 C19.17228905 15.18262639 20.72845681 15.92720618 23 17 C24.24590754 17.95777475 25.47463043 18.93821753 26.6875 19.9375 C30.82929185 23.12769373 34.98031934 24.67536205 40 26 C39.67 27.32 39.34 28.64 39 30 C33.75932055 30.49911233 31.00934554 29.13849598 27 26 C24.30188198 23.63745819 21.71057233 21.17211189 19.125 18.6875 C17.7747375 17.39837655 16.42317612 16.1106122 15.0703125 14.82421875 C14.40418945 14.1904834 13.73806641 13.55674805 13.05175781 12.90380859 C10.35673294 10.40311797 7.56989172 8.01875444 4.75732422 5.65161133 C2.90544239 3.91113056 1.4651169 2.07149843 0 0 Z " fill="#005DB1" transform="translate(282,368)"/>
<path d="M0 0 C4.90888444 4.12792555 9.66177307 8.40856117 14.37719727 12.75463867 C17.62055363 15.74248541 20.89227248 18.69419795 24.1875 21.625 C28.22173515 25.23967469 32.04195206 29.02247695 35.84765625 32.875 C39.7923788 36.76960811 44.00668786 40.35201295 48.27734375 43.8828125 C49.01082031 44.49898438 49.74429688 45.11515625 50.5 45.75 C51.1703125 46.30171875 51.840625 46.8534375 52.53125 47.421875 C54 49 54 49 54 52 C50.77266741 50.92422247 50.23142288 50.34067165 48.2109375 47.78125 C45.29539576 44.2574814 42.15217807 41.39317638 38.625 38.5 C32.4794691 33.34846499 26.60143771 27.96198233 20.77880859 22.44970703 C16.00348285 17.92934602 11.15861159 13.50684566 6.234375 9.1484375 C3.90039503 6.90422599 1.89911657 4.62217471 0 2 C0 1.34 0 0.68 0 0 Z " fill="#19A4FD" transform="translate(160,251)"/>
<path d="M0 0 C3.125 1.6875 3.125 1.6875 4.125 4.6875 C-0.625 2.8125 -0.625 2.8125 -2.875 1.6875 C-6.32618144 1.13531097 -8.78905641 0.98340243 -11.796875 2.93359375 C-13.91624451 4.76896775 -15.88719199 6.71063406 -17.875 8.6875 C-18.69097656 9.38617188 -19.50695312 10.08484375 -20.34765625 10.8046875 C-24.69555358 14.67714122 -27.34945658 17.30236087 -27.9375 23.25 C-27.95776267 24.72917459 -27.95210348 26.21019735 -27.875 27.6875 C-28.535 27.6875 -29.195 27.6875 -29.875 27.6875 C-31.67340245 23.8658948 -32.49008797 20.9052461 -31.875 16.6875 C-29.8125 14.25 -29.8125 14.25 -26.875 11.6875 C-25.72272961 10.52719052 -24.57721714 9.3601423 -23.4375 8.1875 C-16.47591575 1.2410826 -10.31127761 -4.05237453 0 0 Z " fill="#2BC4FF" transform="translate(146.875,188.3125)"/>
<path d="M0 0 C16.83 0 33.66 0 51 0 C46.97885708 2.01057146 44.2253253 2.51832776 39.8125 3.0625 C35.58046892 3.23731387 35.58046892 3.23731387 32 5 C30.14712498 5.07226502 28.29166122 5.0838122 26.4375 5.0625 C25.42558594 5.05347656 24.41367187 5.04445313 23.37109375 5.03515625 C22.19740234 5.01775391 22.19740234 5.01775391 21 5 C21 4.34 21 3.68 21 3 C19.7625 3.04125 18.525 3.0825 17.25 3.125 C11.38381252 3.14371192 5.74737122 2.08918033 0 1 C0 0.67 0 0.34 0 0 Z " fill="#0078FE" transform="translate(288,463)"/>
<path d="M0 0 C4.65861783 0.8747623 8.06213216 3.56474901 11.68359375 6.50390625 C10.69359375 6.83390625 9.70359375 7.16390625 8.68359375 7.50390625 C8.02359375 7.17390625 7.36359375 6.84390625 6.68359375 6.50390625 C6.68359375 5.84390625 6.68359375 5.18390625 6.68359375 4.50390625 C5.36359375 4.50390625 4.04359375 4.50390625 2.68359375 4.50390625 C2.35359375 3.84390625 2.02359375 3.18390625 1.68359375 2.50390625 C-0.95640625 2.50390625 -3.59640625 2.50390625 -6.31640625 2.50390625 C-6.31640625 3.49390625 -6.31640625 4.48390625 -6.31640625 5.50390625 C-7.95743497 6.54544478 -9.63109799 7.53565327 -11.31640625 8.50390625 C-13.40589125 10.30574786 -15.43388148 12.11653259 -17.44140625 14.00390625 C-17.96605469 14.48988281 -18.49070312 14.97585937 -19.03125 15.4765625 C-20.46729586 16.8108127 -21.89231565 18.15690318 -23.31640625 19.50390625 C-24.23292969 20.32761719 -24.23292969 20.32761719 -25.16796875 21.16796875 C-26.60451106 22.57612229 -26.60451106 22.57612229 -26.56640625 25.37890625 C-26.343096 28.17028432 -25.95710306 30.7809448 -25.31640625 33.50390625 C-24.65640625 33.50390625 -23.99640625 33.50390625 -23.31640625 33.50390625 C-23.64640625 34.49390625 -23.97640625 35.48390625 -24.31640625 36.50390625 C-25.81640625 35.12890625 -25.81640625 35.12890625 -27.31640625 33.50390625 C-27.31640625 32.84390625 -27.31640625 32.18390625 -27.31640625 31.50390625 C-27.97640625 31.50390625 -28.63640625 31.50390625 -29.31640625 31.50390625 C-29.39845453 30.10908546 -29.45606829 28.71281897 -29.50390625 27.31640625 C-29.53871094 26.53910156 -29.57351562 25.76179688 -29.609375 24.9609375 C-28.83417457 18.4595899 -23.44594806 14.53872382 -18.87890625 10.37890625 C-18.21052734 9.75886719 -17.54214844 9.13882813 -16.85351562 8.5 C-7.45128879 -0.16607627 -7.45128879 -0.16607627 0 0 Z " fill="#47B2E9" transform="translate(142.31640625,182.49609375)"/>
<path d="M0 0 C0 0.66 0 1.32 0 2 C-0.66 2 -1.32 2 -2 2 C-2.26699707 2.59748047 -2.53399414 3.19496094 -2.80908203 3.81054688 C-4.0236088 6.0434038 -5.17982693 7.33768359 -7.0546875 9.03125 C-7.6643335 9.58925293 -8.27397949 10.14725586 -8.90209961 10.72216797 C-9.55315674 11.30885254 -10.20421387 11.89553711 -10.875 12.5 C-17.77603391 18.81960361 -24.43934811 25.32939305 -31 32 C-31.66 31.67 -32.32 31.34 -33 31 C-28.10958923 20.48446886 -17.48016194 12.61793058 -9 5 C-8.44070801 4.49259277 -7.88141602 3.98518555 -7.30517578 3.46240234 C-3.35806147 0 -3.35806147 0 0 0 Z " fill="#017AD5" transform="translate(276,152)"/>
<path d="M0 0 C0.99 0.495 0.99 0.495 2 1 C1.98839844 2.25296875 1.97679687 3.5059375 1.96484375 4.796875 C1.95546284 6.44791517 1.94636296 8.09895696 1.9375 9.75 C1.92912109 10.575 1.92074219 11.4 1.91210938 12.25 C1.90888672 13.04921875 1.90566406 13.8484375 1.90234375 14.671875 C1.89710693 15.4050293 1.89187012 16.13818359 1.88647461 16.89355469 C2.00285618 19.05299589 2.4734575 20.90822766 3 23 C3.07708723 24.36800819 3.10803609 25.73923592 3.09765625 27.109375 C3.09443359 27.86347656 3.09121094 28.61757812 3.08789062 29.39453125 C3.07951172 30.17183594 3.07113281 30.94914062 3.0625 31.75 C3.05798828 32.54277344 3.05347656 33.33554688 3.04882812 34.15234375 C3.03708565 36.10159508 3.01915146 38.05080738 3 40 C3.66 39.34 4.32 38.68 5 38 C5 49.22 5 60.44 5 72 C4.67 72 4.34 72 4 72 C3.96241577 71.00818726 3.96241577 71.00818726 3.92407227 69.99633789 C3.80846898 67.01817695 3.68558246 64.0403608 3.5625 61.0625 C3.52318359 60.02158203 3.48386719 58.98066406 3.44335938 57.90820312 C3.40146484 56.91884766 3.35957031 55.92949219 3.31640625 54.91015625 C3.27974854 53.99371338 3.24309082 53.07727051 3.20532227 52.13305664 C3.22996136 50.0179272 3.22996136 50.0179272 2 49 C-0.34950176 32.72498413 -0.23275434 16.40560027 0 0 Z " fill="#60C2FF" transform="translate(393,220)"/>
<path d="M0 0 C0.75190109 -0.00014603 1.50380219 -0.00029205 2.27848816 -0.0004425 C4.74574746 0.00025011 7.21292979 0.00801181 9.68017578 0.01586914 C11.39795897 0.01773564 13.1157427 0.01915845 14.83352661 0.02015686 C19.34128301 0.0239638 23.84900688 0.03377843 28.35675049 0.04486084 C32.96195028 0.05511424 37.56715535 0.05966289 42.17236328 0.06469727 C51.19841919 0.07540241 60.22445103 0.09245683 69.25048828 0.11352539 C69.25048828 0.44352539 69.25048828 0.77352539 69.25048828 1.11352539 C44.17048828 1.11352539 19.09048828 1.11352539 -6.74951172 1.11352539 C-6.74951172 2.10352539 -6.74951172 3.09352539 -6.74951172 4.11352539 C-8.39951172 4.11352539 -10.04951172 4.11352539 -11.74951172 4.11352539 C-11.74951172 3.45352539 -11.74951172 2.79352539 -11.74951172 2.11352539 C-12.40951172 1.78352539 -13.06951172 1.45352539 -13.74951172 1.11352539 C-9.13735982 0.20984396 -4.68348603 -0.02410879 0 0 Z " fill="#009DFF" transform="translate(273.74951171875,461.886474609375)"/>
<path d="M0 0 C1.216875 0.4125 2.43375 0.825 3.6875 1.25 C3.6875 1.58 3.6875 1.91 3.6875 2.25 C2.470625 2.3325 1.25375 2.415 0 2.5 C-9.69828795 4.59028076 -17.34185575 14.86409193 -23.3125 22.25 C-23.9725 21.92 -24.6325 21.59 -25.3125 21.25 C-24.73258587 17.88062552 -23.70900321 16.28447573 -21.25 13.9375 C-20.62222656 13.33679688 -19.99445313 12.73609375 -19.34765625 12.1171875 C-16.65210548 9.64411021 -13.94039501 7.2000088 -11.1484375 4.8359375 C-9.14333696 3.14938074 -9.14333696 3.14938074 -6.8125 0.6875 C-3.86192502 -1.00908062 -3.1946419 -0.7776799 0 0 Z " fill="#066ABD" transform="translate(318.3125,115.75)"/>
<path d="M0 0 C0.33 0 0.66 0 1 0 C1.9995364 9.52106938 2.3291092 19.02277967 2.60546875 28.58789062 C2.64285156 29.74353516 2.68023437 30.89917969 2.71875 32.08984375 C2.74904297 33.13003662 2.77933594 34.17022949 2.81054688 35.24194336 C2.9040053 37.93461202 2.9040053 37.93461202 3.60351562 40.19750977 C4 42 4 42 2.625 44.75 C2.08875 45.4925 1.5525 46.235 1 47 C0.67 47 0.34 47 0 47 C0 31.49 0 15.98 0 0 Z " fill="#34A3FB" transform="translate(394,317)"/>
<path d="M0 0 C0 0.66 0 1.32 0 2 C-1.299375 2.12375 -1.299375 2.12375 -2.625 2.25 C-10.01306039 3.8917912 -15.074363 9.71725583 -20.4140625 14.7578125 C-22.59858375 16.65194422 -24.35840748 17.89623599 -27 19 C-25.43727522 15.2285078 -23.07921327 12.84402385 -20.1875 10 C-19.33542969 9.154375 -18.48335938 8.30875 -17.60546875 7.4375 C-11.60738978 1.82610378 -8.32144874 -0.15700847 0 0 Z M-30 20 C-29.34 20.33 -28.68 20.66 -28 21 C-29.32 21.99 -30.64 22.98 -32 24 C-31.34 22.68 -30.68 21.36 -30 20 Z " fill="#005CBA" transform="translate(323,118)"/>
<path d="M0 0 C4.00310519 1.62805713 6.80249664 4.43565863 9.875 7.375 C15.21058747 12.40473067 20.68350982 17.22305083 26.32958984 21.90185547 C29.64359517 24.68623848 32.40242506 27.50057752 35 31 C31.32180832 31 30.77617345 30.23156682 28.125 27.8125 C27.13886719 26.92498047 27.13886719 26.92498047 26.1328125 26.01953125 C22.88314979 22.94246967 19.74659038 19.75755174 16.60546875 16.5703125 C12.05467815 11.968059 7.46055805 7.53036649 2.49609375 3.375 C1 2 1 2 0 0 Z " fill="#34A8F9" transform="translate(177,271)"/>
<path d="M0 0 C2.125 -0.3203125 2.125 -0.3203125 5 0 C7.20494618 1.64784541 9.05206943 3.21662132 11 5.125 C11.50789062 5.599375 12.01578125 6.07375 12.5390625 6.5625 C15.97969254 9.82668748 19.19786312 13.1682901 22 17 C21.67 17.99 21.34 18.98 21 20 C20.27296875 19.25556641 20.27296875 19.25556641 19.53125 18.49609375 C15.43846207 14.3482106 11.24955434 10.40827059 6.83203125 6.609375 C4.43948191 4.50760458 2.21633026 2.28559058 0 0 Z " fill="#1C8CE0" transform="translate(227,318)"/>
<path d="M0 0 C2.05078125 0.03255208 4.1015625 0.06510417 6.15234375 0.09765625 C6.48234375 1.08765625 6.81234375 2.07765625 7.15234375 3.09765625 C8.47234375 3.09765625 9.79234375 3.09765625 11.15234375 3.09765625 C11.15234375 3.75765625 11.15234375 4.41765625 11.15234375 5.09765625 C12.94671875 5.43796875 12.94671875 5.43796875 14.77734375 5.78515625 C19.3279851 6.90257352 21.81999667 8.84861784 25.15234375 12.09765625 C25.15234375 12.42765625 25.15234375 12.75765625 25.15234375 13.09765625 C22.83984375 13.28515625 22.83984375 13.28515625 20.15234375 13.09765625 C18.65234375 11.72265625 18.65234375 11.72265625 17.15234375 10.09765625 C14.55318837 8.90737641 14.55318837 8.90737641 12.15234375 8.09765625 C12.15234375 7.43765625 12.15234375 6.77765625 12.15234375 6.09765625 C11.23710937 5.90429688 10.321875 5.7109375 9.37890625 5.51171875 C8.19039062 5.25132812 7.001875 4.9909375 5.77734375 4.72265625 C4.59398437 4.46742188 3.410625 4.2121875 2.19140625 3.94921875 C-0.84765625 3.09765625 -0.84765625 3.09765625 -2.84765625 1.09765625 C-1.84765625 0.09765625 -1.84765625 0.09765625 0 0 Z " fill="#3DC1FF" transform="translate(137.84765625,183.90234375)"/>
<path d="M0 0 C5.75974214 2.94386821 10.44345412 6.72829085 15.3984375 10.87109375 C18.16819247 13.13763498 20.96480579 15.11325765 24 17 C23.67 17.99 23.34 18.98 23 20 C20.26498808 18.11249466 17.53812543 16.21352902 14.8125 14.3125 C14.04357422 13.78205078 13.27464844 13.25160156 12.48242188 12.70507812 C1.72695604 5.18086812 1.72695604 5.18086812 0 0 Z " fill="#2096E9" transform="translate(249,262)"/>
<path d="M0 0 C9.22376851 7.7563508 18.37395878 15.62856202 26 25 C23 25 23 25 20.80078125 23.05859375 C19.56908203 21.76115234 19.56908203 21.76115234 18.3125 20.4375 C15.20382179 17.22459497 12.10071501 14.13760586 8.6875 11.25 C5.37089472 8.40431231 2.61155152 5.50927236 0 2 C0 1.34 0 0.68 0 0 Z " fill="#1DB0FF" transform="translate(160,251)"/>
<path d="M0 0 C3.84126475 1.67822246 6.97954613 4.17706557 10.25 6.75 C11.40458016 7.65021146 12.55952772 8.54995189 13.71484375 9.44921875 C14.27413574 9.88540527 14.83342773 10.3215918 15.40966797 10.77099609 C18.13749362 12.87905172 20.91986425 14.91280841 23.70703125 16.94140625 C24.13371094 17.29074219 24.56039062 17.64007813 25 18 C25 18.33 25 18.66 25 19 C23.35 19 21.7 19 20 19 C19.34 17.68 18.68 16.36 18 15 C17.34 15 16.68 15 16 15 C16 14.34 16 13.68 16 13 C14.35 12.67 12.7 12.34 11 12 C10.67 11.01 10.34 10.02 10 9 C9.34 9 8.68 9 8 9 C8 8.34 8 7.68 8 7 C7.34 7 6.68 7 6 7 C6 6.34 6 5.68 6 5 C5.071875 4.7834375 5.071875 4.7834375 4.125 4.5625 C2 4 2 4 0 3 C0 2.01 0 1.02 0 0 Z " fill="#45B0F2" transform="translate(171,203)"/>
<path d="M0 0 C0.33 0 0.66 0 1 0 C3.90827573 17.78722212 3.90827573 17.78722212 3 25 C2.34 25.66 1.68 26.32 1 27 C0.46409181 24.33559769 -0.05389262 21.66963352 -0.5625 19 C-0.78969727 17.88431641 -0.78969727 17.88431641 -1.02148438 16.74609375 C-2.07731244 11.09864129 -2.66071835 5.3214367 0 0 Z " fill="#60CEFF" transform="translate(392,191)"/>
<path d="M0 0 C3.38361519 0.61728115 5.52002561 1.86979718 8.25 3.9375 C8.95640625 4.46214844 9.6628125 4.98679688 10.390625 5.52734375 C11.18726563 6.25630859 11.18726563 6.25630859 12 7 C12 7.66 12 8.32 12 9 C12.8971875 9.433125 12.8971875 9.433125 13.8125 9.875 C18.04813614 12.05332716 19.47434063 13.54038031 21 18 C17.00547824 16.63044968 14.07840246 14.9073801 11 12 C10.64830932 10.67139075 10.31229724 9.33841672 10 8 C8.25132517 6.91568906 8.25132517 6.91568906 6 6 C2.75 4 2.75 4 0 2 C0 1.34 0 0.68 0 0 Z " fill="#26A2F8" transform="translate(230,248)"/>
<path d="M0 0 C0.33 0 0.66 0 1 0 C1 3.63 1 7.26 1 11 C-1.76693375 12.50760498 -4.53809425 14.00626174 -7.3125 15.5 C-8.09818359 15.92925781 -8.88386719 16.35851562 -9.69335938 16.80078125 C-10.8293457 17.40986328 -10.8293457 17.40986328 -11.98828125 18.03125 C-12.68477783 18.40830078 -13.38127441 18.78535156 -14.09887695 19.17382812 C-16 20 -16 20 -19 20 C-19 19.34 -19 18.68 -19 18 C-18.11957031 17.64808594 -17.23914063 17.29617188 -16.33203125 16.93359375 C-6.91083255 12.93626869 -6.91083255 12.93626869 -1 5 C-0.14147224 2.23570364 -0.14147224 2.23570364 0 0 Z " fill="#038BF8" transform="translate(392,355)"/>
<path d="M0 0 C4.84455959 2.37823834 4.84455959 2.37823834 7 4 C7.9375 6.75 7.9375 6.75 8 9 C9.98 9.66 11.96 10.32 14 11 C14 11.66 14 12.32 14 13 C14.66 13 15.32 13 16 13 C16 13.66 16 14.32 16 15 C16.66 15.33 17.32 15.66 18 16 C15.4375 16.5625 15.4375 16.5625 12 16 C9.97187795 13.91850632 8.35753191 11.69947844 6.6796875 9.328125 C5.24635696 7.3414622 3.84057872 5.73007666 2.0625 4.0625 C1.381875 3.381875 0.70125 2.70125 0 2 C0 1.34 0 0.68 0 0 Z " fill="#2FBAFF" transform="translate(163,197)"/>
<path d="M0 0 C5.875 3.75 5.875 3.75 7 6 C6.27425781 5.60039062 5.54851562 5.20078125 4.80078125 4.7890625 C1.97740454 3.64194161 1.97740454 3.64194161 -0.45703125 5.3359375 C-1.23433594 6.00882812 -2.01164063 6.68171875 -2.8125 7.375 C-3.60269531 8.04273438 -4.39289063 8.71046875 -5.20703125 9.3984375 C-5.79871094 9.92695313 -6.39039063 10.45546875 -7 11 C-7.66 10.01 -8.32 9.02 -9 8 C-8.01 7.67 -7.02 7.34 -6 7 C-4.78130071 4.49552484 -4.78130071 4.49552484 -4 2 C-2.68 2 -1.36 2 0 2 C0 1.34 0 0.68 0 0 Z " fill="#0075C4" transform="translate(194,288)"/>
<path d="M0 0 C0.33 0 0.66 0 1 0 C2.83150372 11.08713858 3.23135477 21.77929357 3 33 C2.67 33 2.34 33 2 33 C1.54457211 29.10500354 1.09934553 25.20898616 0.66333008 21.31176758 C0.4403911 19.33809479 0.20950491 17.36532495 -0.02148438 15.39257812 C-0.16005859 14.14541016 -0.29863281 12.89824219 -0.44140625 11.61328125 C-0.57232666 10.46641846 -0.70324707 9.31955566 -0.83813477 8.13793945 C-0.9905238 5.18370669 -0.73095694 2.85143267 0 0 Z " fill="#3DC0FF" transform="translate(389,214)"/>
<path d="M0 0 C3.55780196 0.60990891 6.6828589 1.5783681 10 3 C10 3.66 10 4.32 10 5 C10.66 5 11.32 5 12 5 C16.65909091 9.31818182 16.65909091 9.31818182 18 12 C12.94563405 11.54310816 10.00641686 9.06535132 6.1875 6 C5.59001953 5.5359375 4.99253906 5.071875 4.37695312 4.59375 C2.89298446 3.42692664 1.44309213 2.21701474 0 1 C0 0.67 0 0.34 0 0 Z " fill="#20B5FF" transform="translate(177,213)"/>
<path d="M0 0 C0.66 0.33 1.32 0.66 2 1 C-0.78358481 3.84137242 -3.57815727 6.67168155 -6.375 9.5 C-7.1690625 10.31082031 -7.963125 11.12164062 -8.78125 11.95703125 C-9.54179688 12.72402344 -10.30234375 13.49101562 -11.0859375 14.28125 C-11.7876709 14.99345703 -12.4894043 15.70566406 -13.21240234 16.43945312 C-15 18 -15 18 -17 18 C-17 21.3 -17 24.6 -17 28 C-17.33 28 -17.66 28 -18 28 C-18.13609913 26.27305325 -18.23249228 24.54295278 -18.3125 22.8125 C-18.37050781 21.84957031 -18.42851563 20.88664062 -18.48828125 19.89453125 C-17.8109363 15.87923039 -16.04438836 14.64675396 -13 12 C-11.97153442 11.04949102 -10.94555589 10.09628509 -9.921875 9.140625 C-8.86565475 8.17590898 -7.80835343 7.2123753 -6.75 6.25 C-3.3262948 3.1760457 -3.3262948 3.1760457 0 0 Z " fill="#0086CF" transform="translate(131,281)"/>
<path d="M0 0 C4.69548291 0.27620488 6.59932195 2.28464306 9.5703125 5.625 C11.06623929 7.26079745 11.06623929 7.26079745 14 8 C15.6875 10.0625 15.6875 10.0625 17 12 C16.34 12 15.68 12 15 12 C14.67 12.66 14.34 13.32 14 14 C9.33333333 9.33333333 4.66666667 4.66666667 0 0 Z " fill="#39A5E4" transform="translate(134,233)"/>
<path d="M0 0 C1.65 0 3.3 0 5 0 C5.0825 0.61875 5.165 1.2375 5.25 1.875 C5.77905978 4.1346633 5.77905978 4.1346633 7.75 4.9375 C8.4925 5.288125 9.235 5.63875 10 6 C11.70496537 7.62746694 13.37897032 9.28891311 15 11 C14.67 11.99 14.34 12.98 14 14 C8.81580806 9.67106815 4.27293882 5.23435005 0 0 Z " fill="#39A9E3" transform="translate(119,219)"/>
<path d="M0 0 C2.93879484 1.35236577 5.29232911 2.89942659 7.75 5 C8.67039063 5.7734375 8.67039063 5.7734375 9.609375 6.5625 C11 8 11 8 11 10 C11.59296875 10.25523437 12.1859375 10.51046875 12.796875 10.7734375 C15.21224538 12.11816498 16.51211706 13.49214367 18.25 15.625 C18.77078125 16.25664062 19.2915625 16.88828125 19.828125 17.5390625 C20.40820312 18.26222656 20.40820312 18.26222656 21 19 C17.90127153 17.46387819 14.88229224 15.92152816 12 14 C12 13.34 12 12.68 12 12 C11.01 11.67 10.02 11.34 9 11 C7.24609375 9.2578125 7.24609375 9.2578125 5.4375 7.125 C4.53837891 6.07699219 4.53837891 6.07699219 3.62109375 5.0078125 C2 3 2 3 0 0 Z " fill="#18B7FF" transform="translate(139,232)"/>
<path d="M0 0 C0.99 0.33 1.98 0.66 3 1 C0.69 2.65 -1.62 4.3 -4 6 C-2.84826645 3.53199953 -1.95216435 1.95216435 0 0 Z M-7 7 C-6.34 7.33 -5.68 7.66 -5 8 C-5.63808594 8.58007812 -6.27617188 9.16015625 -6.93359375 9.7578125 C-7.75988281 10.53898438 -8.58617188 11.32015625 -9.4375 12.125 C-10.26121094 12.89070312 -11.08492188 13.65640625 -11.93359375 14.4453125 C-14.29708903 17.36728965 -14.70512281 19.30063155 -15 23 C-15.33 23 -15.66 23 -16 23 C-16.43431635 17.78820375 -16.43431635 17.78820375 -16 15 C-13.75 12.75 -13.75 12.75 -11 11 C-9.64852862 9.68505488 -8.30887458 8.35735142 -7 7 Z " fill="#10C3FF" transform="translate(134,189)"/>
<path d="M0 0 C-5.10494942 3.87933526 -5.10494942 3.87933526 -8 5 C-8.99 4.67 -9.98 4.34 -11 4 C-11.33 3.34 -11.66 2.68 -12 2 C-13.89533342 1.53476937 -13.89533342 1.53476937 -16.0625 1.375 C-17.361875 1.25125 -18.66125 1.1275 -20 1 C-20 0.67 -20 0.34 -20 0 C-13.11422188 -1.01593448 -6.90188971 -0.83854735 0 0 Z " fill="#00AFFE" transform="translate(376,462)"/>
<path d="M0 0 C0 0.66 0 1.32 0 2 C-1.299375 2.12375 -1.299375 2.12375 -2.625 2.25 C-7.72639668 3.38364371 -11.5245763 6.13841811 -15 10 C-15.66 9.67 -16.32 9.34 -17 9 C-15.90344712 7.68113228 -14.79746577 6.37009943 -13.6875 5.0625 C-13.07261719 4.33160156 -12.45773437 3.60070312 -11.82421875 2.84765625 C-8.36157366 -0.65947679 -4.66269525 -0.08797538 0 0 Z " fill="#0052AD" transform="translate(323,118)"/>
<path d="M0 0 C1.79133978 -0.05391993 3.58313899 -0.09275571 5.375 -0.125 C6.37273437 -0.14820312 7.37046875 -0.17140625 8.3984375 -0.1953125 C11 0 11 0 13 2 C12.01 2.495 12.01 2.495 11 3 C11 3.99 11 4.98 11 6 C10.29875 5.71125 9.5975 5.4225 8.875 5.125 C5.94547497 3.97866412 2.99078347 2.97374346 0 2 C0 1.34 0 0.68 0 0 Z " fill="#58BCE2" transform="translate(316,114)"/>
<path d="M0 0 C-1 3 -1 3 -3.8359375 4.60546875 C-5.00382812 5.12753906 -6.17171875 5.64960938 -7.375 6.1875 C-8.53773438 6.71730469 -9.70046875 7.24710937 -10.8984375 7.79296875 C-14 9 -14 9 -17 9 C-17 8.34 -17 7.68 -17 7 C-15.7934375 6.6596875 -15.7934375 6.6596875 -14.5625 6.3125 C-10.74366645 4.90556132 -7.45105709 3.08174448 -3.953125 1.0234375 C-2 0 -2 0 0 0 Z " fill="#007FF5" transform="translate(341,389)"/>
<path d="M0 0 C4.41510774 0.48713098 6.30446645 1.85053197 9.3125 5.0625 C10.00988281 5.79597656 10.70726562 6.52945312 11.42578125 7.28515625 C11.94527344 7.85105469 12.46476563 8.41695313 13 9 C12.34 9.66 11.68 10.32 11 11 C9.49410612 9.71520959 7.99542625 8.42195918 6.5 7.125 C5.6646875 6.40570313 4.829375 5.68640625 3.96875 4.9453125 C3.3190625 4.30335938 2.669375 3.66140625 2 3 C2 2.34 2 1.68 2 1 C1.34 0.67 0.68 0.34 0 0 Z " fill="#2A93E5" transform="translate(211,303)"/>
<path d="M0 0 C5.32697239 1.45281065 8.36402802 5.08111378 12 9 C11.34 9.66 10.68 10.32 10 11 C8.51450044 9.73657512 7.03678811 8.4639897 5.5625 7.1875 C4.73878906 6.47980469 3.91507813 5.77210938 3.06640625 5.04296875 C1 3 1 3 0 0 Z " fill="#2F99EA" transform="translate(200,292)"/>
<path d="M0 0 C0.33 0 0.66 0 1 0 C1.33 4.62 1.66 9.24 2 14 C1.34 14 0.68 14 0 14 C-1.79885972 10.17742309 -2.36703674 7.2209225 -2 3 C-1.34 2.01 -0.68 1.02 0 0 Z " fill="#38C3FF" transform="translate(117,202)"/>
<path d="M0 0 C1.32 1.32 2.64 2.64 4 4 C2.68 5.32 1.36 6.64 0 8 C0 6.68 0 5.36 0 4 C-1.65 5.65 -3.3 7.3 -5 9 C-5.66 8.67 -6.32 8.34 -7 8 C-4.69 5.36 -2.38 2.72 0 0 Z " fill="#026DB5" transform="translate(158,255)"/>
<path d="M0 0 C1.32 0.66 2.64 1.32 4 2 C2.38007835 2.86375896 0.75388139 3.71575854 -0.875 4.5625 C-2.23238281 5.27599609 -2.23238281 5.27599609 -3.6171875 6.00390625 C-4.40351563 6.33261719 -5.18984375 6.66132813 -6 7 C-6.66 6.67 -7.32 6.34 -8 6 C-7.67 5.01 -7.34 4.02 -7 3 C-5.125 2.4375 -5.125 2.4375 -3 2 C-2.01 1.34 -1.02 0.68 0 0 Z " fill="#0068CC" transform="translate(371,374)"/>
<path d="M0 0 C-3.5087188 3.09592835 -6.49197399 4.74194623 -11 6 C-10.75 4.125 -10.75 4.125 -10 2 C-6.82026536 -0.35535899 -3.84875379 -0.17494335 0 0 Z " fill="#006ED8" transform="translate(351,386)"/>
<path d="M0 0 C0 0.33 0 0.66 0 1 C-2.97 1 -5.94 1 -9 1 C-9 1.99 -9 2.98 -9 4 C-10.65 4 -12.3 4 -14 4 C-14 3.34 -14 2.68 -14 2 C-14.66 1.67 -15.32 1.34 -16 1 C-10.63904667 -0.12862175 -5.44693314 -0.09688221 0 0 Z " fill="#00D4FF" transform="translate(276,462)"/>
<path d="M0 0 C3.5786304 1.65167557 6.74820188 3.78286492 10 6 C9.67 6.99 9.34 7.98 9 9 C7.49428343 7.88266271 5.99555708 6.75589965 4.5 5.625 C3.6646875 4.99851562 2.829375 4.37203125 1.96875 3.7265625 C1.3190625 3.15679687 0.669375 2.58703125 0 2 C0 1.34 0 0.68 0 0 Z " fill="#1B90E2" transform="translate(263,273)"/>
<path d="M0 0 C-1.60032137 0.84069415 -3.20541171 1.67231505 -4.8125 2.5 C-6.15248047 3.19609375 -6.15248047 3.19609375 -7.51953125 3.90625 C-10 5 -10 5 -13 5 C-13 4.34 -13 3.68 -13 3 C-11.5903653 2.29819469 -10.17192359 1.61406042 -8.75 0.9375 C-7.96109375 0.55464844 -7.1721875 0.17179687 -6.359375 -0.22265625 C-3.74006478 -1.08564091 -2.55144824 -0.93045933 0 0 Z " fill="#007CEE" transform="translate(386,370)"/>
<path d="M0 0 C1.11375 0.598125 2.2275 1.19625 3.375 1.8125 C4.00148437 2.14894531 4.62796875 2.48539063 5.2734375 2.83203125 C7 4 7 4 9 7 C6.75 7.3125 6.75 7.3125 4 7 C0 2.89189189 0 2.89189189 0 0 Z " fill="#46B5F1" transform="translate(154,190)"/>
<path d="M0 0 C0.66 0.33 1.32 0.66 2 1 C-1.3 4.3 -4.6 7.6 -8 11 C-8.99 10.34 -9.98 9.68 -11 9 C-10.45730469 8.60167969 -9.91460937 8.20335937 -9.35546875 7.79296875 C-8.64003906 7.26316406 -7.92460937 6.73335937 -7.1875 6.1875 C-6.47980469 5.66542969 -5.77210938 5.14335937 -5.04296875 4.60546875 C-3.21468607 3.16871123 -1.60103312 1.68184237 0 0 Z " fill="#0384D1" transform="translate(207,212)"/>
<path d="M0 0 C9.17286652 -0.63019694 9.17286652 -0.63019694 12.625 2 C13.07875 2.66 13.5325 3.32 14 4 C11 4 11 4 9.25 3.0625 C6.23469916 1.63860793 3.29232427 1.37988357 0 1 C0 0.67 0 0.34 0 0 Z " fill="#16C2FF" transform="translate(137,188)"/>
<path d="M0 0 C4.04420651 1.77945087 7.46078487 4.39529673 11 7 C10.01 7.33 9.02 7.66 8 8 C5.95703125 6.85546875 5.95703125 6.85546875 3.8125 5.1875 C3.09707031 4.64480469 2.38164062 4.10210937 1.64453125 3.54296875 C1.10183594 3.03378906 0.55914062 2.52460938 0 2 C0 1.34 0 0.68 0 0 Z " fill="#1789DA" transform="translate(275,282)"/>
<path d="M0 0 C6.875 3.75 6.875 3.75 8 6 C5.6875 6.25 5.6875 6.25 3 6 C1.02389614 3.95575462 0 2.8823175 0 0 Z " fill="#46B6F4" transform="translate(163,197)"/>
<path d="M0 0 C2.64 0 5.28 0 8 0 C7.67 0.99 7.34 1.98 7 3 C5.02 3 3.04 3 1 3 C0.67 2.01 0.34 1.02 0 0 Z " fill="#0070D7" transform="translate(314,395)"/>
<path d="M0 0 C5.875 3.75 5.875 3.75 7 6 C6.236875 5.62875 5.47375 5.2575 4.6875 4.875 C3.3571875 4.441875 3.3571875 4.441875 2 4 C1.01 4.66 0.02 5.32 -1 6 C-1.33 5.01 -1.66 4.02 -2 3 C-1.34 3 -0.68 3 0 3 C0 2.01 0 1.02 0 0 Z " fill="#0965AE" transform="translate(194,288)"/>
<path d="M0 0 C2.3125 0.1875 2.3125 0.1875 5 1 C6.75 3.4375 6.75 3.4375 8 6 C8.33 6.66 8.66 7.32 9 8 C4.7257442 6.4169423 2.73468206 3.49431596 0 0 Z " fill="#035FAC" transform="translate(260,348)"/>
<path d="M0 0 C0.33 0.66 0.66 1.32 1 2 C1.61875 2.309375 2.2375 2.61875 2.875 2.9375 C5.05810535 4.02905268 6.37010468 5.20711515 8 7 C7.01 7.495 7.01 7.495 6 8 C6 7.34 6 6.68 6 6 C5.030625 5.71125 4.06125 5.4225 3.0625 5.125 C0 4 0 4 -1 2 C-0.67 1.34 -0.34 0.68 0 0 Z " fill="#2A99EA" transform="translate(241,255)"/>
<path d="M0 0 C-1.50223584 4.20626034 -4.28550034 5.73900021 -8 8 C-6.48291727 4.46014029 -4.24676932 0 0 0 Z " fill="#0182D8" transform="translate(243,181)"/>
<path d="M0 0 C4.75 0.75 4.75 0.75 7 3 C6.67 3.66 6.34 4.32 6 5 C2.83884224 3.63016497 2.0072908 3.0109362 0 0 Z " fill="#0055A4" transform="translate(307,391)"/>
<path d="M0 0 C2.31 0.66 4.62 1.32 7 2 C7 3.32 7 4.64 7 6 C5.83054208 5.19152271 4.66449539 4.37810888 3.5 3.5625 C2.8503125 3.11003906 2.200625 2.65757812 1.53125 2.19140625 C1.0259375 1.79824219 0.520625 1.40507812 0 1 C0 0.67 0 0.34 0 0 Z " fill="#35A9EE" transform="translate(156,253)"/>
</svg>
